<mxfile host="65bd71144e">
    <diagram id="-1xIDn_rROddTj8zWfal" name="Page-1">
        <mxGraphModel dx="2311" dy="1778" grid="1" gridSize="10" guides="1" tooltips="1" connect="1" arrows="1" fold="1" page="1" pageScale="1" pageWidth="850" pageHeight="1100" math="0" shadow="0">
            <root>
                <mxCell id="0"/>
                <mxCell id="1" parent="0"/>
                <mxCell id="5" value="" style="shape=umlActor;verticalLabelPosition=bottom;verticalAlign=top;html=1;outlineConnect=0;" parent="1" vertex="1">
                    <mxGeometry x="310" y="50" width="30" height="60" as="geometry"/>
                </mxCell>
                <mxCell id="20" value="" style="shape=image;html=1;verticalLabelPosition=bottom;verticalAlign=top;imageAspect=1;aspect=fixed;image=data:image/jpeg,/9j/4AAQSkZJRgABAQEASABIAAD/2wBDAAYEBAQFBAYFBQYJBgUGCQsIBgYICwwKCgsKCgwQDAwMDAwMEAwODxAPDgwTExQUExMcGxsbHCAgICAgICAgICD/2wBDAQcHBw0MDRgQEBgaFREVGiAgICAgICAgICAgICAgICAgICAgICAgICAgICAgICAgICAgICAgICAgICAgICAgICD/wAARCAKbA+gDAREAAhEBAxEB/8QAHAAAAgMBAQEBAAAAAAAAAAAABAUCAwYAAQcI/8QARBAAAQMDAgUCBAMGBQIFBAMBAQACAwQFERIhBhMiMUFRYRQjMnEHQoEVM1KRobEkYnLB0RZDNILh8PEXU2OSJTVEov/EABoBAAMBAQEBAAAAAAAAAAAAAAACAwEEBQb/xAAlEQEBAQEBAQEAAwEAAgMBAQAAAQIRAxIhBBMxQRQiBTJRYSP/2gAMAwEAAhEDEQA/AP0QroOQdBAcgrkMcgOWBNKdyAkgOQE0ByAmgOQHJTJICKCuQHJjOQHDugqSA49kBFAcgOQHICLvpQA73oCLKkB2CgC2va5uyA4kAboCOpp7IDkByA5AeFAeBARPdARK2BApgihlVuQVV6oCPlAeoDs4QHZygPWoD1ASagPVgSas4HqONcjjeuRwdcjg65HB1Eo4OvFrHLWOQEggO8paaJrGpDsgJjsgPUByA5ARPdAeIDkByAkOyAmOywJjssCTXIauD9kNcgJID1AcgIIDkBFMHiA5BXICKUOQHICSA5MEUBJAcgOQHIDkGcgOQHIDkFRQHJQ5AcO6YJID0d0GSQHo7oCSA5AeHsgIoDkByA9HdASQHo7rKHqwPQgPSgFaqm5BnIDkFQQxywOQHJTuQE0BJAeoCSA5ATQHJTJIDkFcgOTGcgOQVyA5AcgOQHIDiRhAQc5pGEArrHcvK0Ej7npl06s7rAaUlz7oAv41pblAUGuY1+UMG09U142Q0TjbKA8QHIDwoDwICDhlbAqLcFMEShlRWFVkZKAi5iA8xhaHYygOxhAeggd0BzpGBAR57AgO+JYtkDviWLeB3xTB5wjjLXfFMPnK3jOu+LiHdHGdRNyh9cI4OvP2lD/Ejg6k2uid5yjjepCqYeyWtiz4mPysa74mJAWMliIygPeZHqwEtNFmkeENSDFge6EBIDAQHh7oDxARPdAeIDkByAkOyA4d0oWtQFiGpDshqaA5AcgOQHICKA8TByAigrkByUOQHIDkByYOQHIDkByA5AcgySA5AcgOQVFAclDlocO60JID0d0GSQHIDkByA5AeHsgIoD0d0BJAejugJZwih6HZKUPUByAXpiuQEUByAggOQEEByAnrQHICaAkgPUBJATQEkGcgOQHIDtCA7QgO0oD3CA80oD1AcgPD2WgBUzhp32Cb5KDdcWA/VlZQrqKuORhB7FLaGPvOuI62/SuT00IGt98/Kdin8vU/yPnvUkceQ7IV/ocKX8VB04Dtip3aWstPZL61+2rPsnzoSNfSziVgTGXHsgIoDkByAhjJQEXs2QFbmLWIloHdbwdVHQjjKpfOwI+SoGpYmzkcUSXONnc4T/JbZA7rzANy9bME/sL63ianj/Mt/rJfbhf/ANYQHs5bMMn8gNU8Yxtb+8wt+GX1KZePI2n68lb8J/21NvGw0a3O2W/I/toKb8QJNxHk+mFsyy+tE0nHIc3Mri37reM/soOv4/e52mJ2oBHB9WhYOMq178HZqON/RMvGGjcSbjwso+qJoOMJXuGp2FOqTdOo+JHAZ1peHm144oyOk5R8t+kP+pZS4AppkfRhFfJC0FLZDy1f+3HAAlZ8m+hUPELNg44K35H0Mjv8AO7ktwPsdDeoZOxys/rH2LZVxvR8tn6tyD2U7lSPC3JS8Px5jCODiJ7rSvEByAkOyAmOywJNWBI90B6OyAmgOQHIDkB2pAcgIoDkByA5AQQHIDkByA5AcgOQE0ByA5AcmCSA5BnIDkByA5AcgOQHIDkB6O6A9PZARQx6hjxAcgOQHIDkCOzhBnoduihNqUJhAeoBemKigIIDkBBAcgIoCSA5ATQE2ICSA9QEkBNASQZyA9QEtCAnoSB2hAdoTh4WbICOhAcgOQEZt2rYGfvDnsye+Ea0Viau8ObM4E6ceFz31HEWX/8ALrR/eOJyVkVS3c5K5d+nfw+J+kdfRPhfzGdlD64v8qxX5j0OV8erLGWvdS+OXU043yCi7Z8mfCXFDZX6C75jTuujx1+o6j7DY7hzGDqzsukrSRu1ALQkVgRxlAdoQHhYgIOeGjdAUPrGhPkmqBqLmwdzhNwnSirvsbBs5NmF1ojm4pY1+C9P8p/aip4n0xF2c+ibMLrbNVfFc7ydKfiV7QZ4iqNPUcIgzkqrbrLMT8zC3rbgLFLI3qMpR0v9bwyl7t36srOqTzTMIbh2kfdLdKf1g558Hc5WfQ+ERUHT0oum/EV83Luo4WfTfiLxV00Y75Kz7HOPf2uxn5co+wHmu3P2A04TSsq6iqJNYDgS32S00kNHvqdPysgpeixdR1NTG75uT9kdZ8ntvq4ZHat2+MFb/o/xoIaqlaBqckuVJodHLTyN6TkLZ+N/1IwxEbd1v0zgaaIA41YKaUtyjC6WM7Sfom6X5HR3ieI7oZdcMKHiZjngOOCp2GnofwXenfjqU7FJ6DGVET+x2Wcb9rcjwlPK7TlDXaFgdoQx2FgTHZYHIakOyA9QHakByA7UgOQHICCA5AcgOQHIDkByA5AcgOQHIDkByAmgOTBJAcgzkByA5AcgOQHIDkByA5AcgOyhji7ZDECdkBHUgO1ID0P3QEtaBHB2SgySKHoOClCYegJasoBZqTFcgIoDxARQHJyoLGJpTuQEkBNATQEkBNKE0BJMZ6xATShJASQHqA5AcgPEBx7ICOlAVSdigEV1GWuCy38K+fX63a5HPZ4Xm+n+urLKzmaB5Cnabgu3VrtQSdHGhifFUMwe636NwquFsewl7EfQ4y98ozJFt3HdNNMuWIp6qW3V4ka7DdW4VJU7l9u4I4gZVQxu1Z9Qu/x2hqPqNsqg9i6LQY6cjKUO04QFL3Bu5TTKd0ElrmNzvhN8E++EtdfIYgcuTTBb6M5W8TZOGHKf5TtK33uZ7up2GrZkpZX3GWQYYdk7Kz09Y2KU63an+As6zrw1skzTq2aPC2VlKqy7RM6GDLvK36bIX/HPk8/osulJEmSEndTum8EySYiSfZpAX7RbG7qR/Y3ix96i0fZZddbIE+LZK7OcDymmm8TFRHnS05Rr0HypkL9WfCT7HF1HaamrkGThqOdHWkg4TgbFqkfnCaZZ9F9TR0VO4gbpmWraOpgb2ZkIYc0l0ow7HL3T5LajcJmfvGM2TM+krbUud+XA9UmjSmjo2yD95hLxqTZ3wbMfn3TQtHUlbPjLpFoGw18Or5kgOf1U9Q8o1k1ET9YPphZxvVckeo5acgp4W56rNI9u7e6Os+HgmrY8aTjCeVn9YpvEFbAe2Qj56XnB1Lxk4ENkbj3S3zb9nNLxXSvxlyz4UnqZwXejm7O3UNZ/T/cHxzRnAys+W8lW6QlM5HR8uWtcgOQHIDkoRQHiA5AcgOQHICKAkgOQHIDkByA5AcgOQHICaA5ASQHIM5AcmDkByA5AcgOQHIDkMceyGIoDw9kBAnZAR1oDtaA7WgO1oD0P3QEw5ASD0BLWsrY9D1jS7WmK7WgI60ByAggOTFcgOSmTQEkBNATQEkBNKE0BJMZY1ASShyAmgJIDkB4UBFAQdJpdhAdz2oAaeduCgEldMzdQ9NFIqmmbK1cOnXhlrxafqPlRtUZZwdBMVO1sh3bqo7YS/RuHkYE7N+6PpshNd7SN9s5TTRrHzXiS0GOZxxsq40T5W8FcQS2+r5TjiPK6sacnrH6C4Yu7ZYWOznIXo4vYhGxjqmmPKZoOpuMbO5wE2YTdI6+/RsBLTkq0yhayNw4nlc92HYVOJapBU3p8hI1ZSWiBTcGtGPJ7LM03A09xjiGuZ2wTWsJLlxHJLtB0Rqf02QqinfJKHOOfQLW/C6ur3NjxnB9FnWXJTEZJnZIwPVZ1si2WVsfSstUkewT52CndG4KneGxZ8pOtkZ6oMj3kha3gQzOa8ak0bwQapwiyEt01KhqTzQ47+yT/AE+Y0tPE+UaizHorZie101fJSN6dnBW/xOQGL1dqt+lry0dkl035HR0EhGZH/dbm9LYu5QHTEfuUzFU3SRvgp8ssSZLJjeTbHZMz5GwXRsbAFjOLzdpJW4acDyhgd1xrgcB4x4CytG0lTPP+9naweqGqKx3KfqFSR9lnAZ2ivDHB0r0cDTQXKknAbHJv/Ckp5RTZKlnUB0lY3oiL531NGSmb1KahgDcnY+iPtvyDdb9W7eyebH9YSe2VTtogduy36Tvmribc6N+svIx4WcJ/XTGj4sroJm6vmMW/Jf2NXQ8X074+t3f1Udef6aeh3T3qhmA0u7pfh0Z2NZNE/wClyTh+pf1WByA5AclDkBFAeIDkByA5AcgOQHICKAkgOQHIDkBNAcgOQEkByA9QZyA8TB6gPEB6gOQHiA5AceyAigqLvpQFaA8JwEBU56AjrQHa0B2taFjXoC3XssDg5ATDt0UR7rSmLdaZJyDuQHa0ByA5AcgOQE0BJATagJoCSAmlDkBNBktSAsagJICSA5AcgOQFcj9igpdU1WgoYXy3ZjT9SOs/C6qvzBka1l2OEk9/ZJLp1ZXB67UxkfBUMlYFzuqKqykZI3ON1LR4yF5tJy52lQqkJqaR9PJp8I6Zp7RUZAys62HM1GyaPOM7I6fjE8V2QOhfhu+E2f8AWWvmM1qqWVmG58ey9DE65PV9U4JutTDBHFLno7HK9Hww4tR9Fjv+iHOV2SIapFdeIJXuw07ZVIhaSVNziLSXyb+ibpfpl624c6Ysi7I+m96nGwNiyfChrZ5Gfud3kY8siOD6rLo8hdGyec8yV5Pqm+zcU1EsbToachLKOL6XOA5LdjiusmBduslHHsZY2PV/NZdGkJqyu+YQ3slmlJFtur2tfl6j6N4sul4id0xd/KlhnAMUwxl3c91eU8LauYGU4W2tv6JoKaoq3BjSszjpWutvDbaeESSDt3K6sZ4nvfBE9fBE3RB38lbSfXSqWQvdqkek+uGj2G5U8TsMSWtX/tl0n+kLc6HFU1+LPoTfbPkDLeZnbudj2R9j5WftpvLxr3R9j5Vi7PP5v1Wf2D5SjuTy4FryUf2j5OaeoaOqRy37ZxOWvidhsR6vVPNDi74qLAEjslUmiaWNMR35mFv0Xo+guNFSO1Synbsl6z6pnLx1KYwyJvSOyzo+6utfGeh5NRsFpbqjJeM6B2H87t47o4PqjqPiy2yaWtqBk+CkuDzTQU1zhIGl7SD5CPhWej2uEE8enbfuQifjfvpYyxaeqN+w8Kk2S46ErXcjLcdXhU+ojrzsB01wkglyZHtJ777LfmF/Y2FkvmzQ6f8Aqp3J5tp6S9QuwNeVO+as9TKOugf+bdSsUlX5B7dlOqSuQzrxDOuRw3XqODqC1jkByUOQHIDkByA5AcgOQE0GcgOQEkByA9QEkByA7SgOQHaUByA49kBFbA8Whx7ICKCq3ICKAregKz2QEVsDwnATBHVlAWA4QFzXbLAkHpQ91oD0PQC5aRyDOQHLGuQxyGpoDkBNASQE0BNASQHqUJICSDPWoC1r9kB2ooCYQEkByA9CGKKn6XIYzd1M2ToS6/wc6yFdWVMeR7rk16t/pZe6XOsy4brnvqfPj+k0N3mbLv3ypa06JlqrRfsuAPdEM08Na2WMe6TTYqqqaOTJXPpSMtdbVo6wlMrs9QWP0u7LZB1saaoBiAXRjzT16Fl6pRKDk4XX5+HXPr1Zb9hwmUuLA77r0ceKOvQyp6CKlwfpXZjP4hra2W7RRt3OQFSIarKXniJxkLYVtS4SuuNW/wDeO2KU3yKt74y8AHUT3cVL003OV12uXLj5MI2/M5cmvRWRm2ta9+/3ynzo8dVVHJZpZ5S/ZiYyOdJ37lWlHDEPeyFc+r+jhPNWu526fo4INW98QAP3S2mkL5onOdkfqszTwPNKY27d0VoNkr3vyksaPY2d7cMGVsJR9BwtW1LhqGzu6tjPSfbY0FghtzA54Gy6fniOtlN64h1OMEbtLRtgKd2MT6Jvi3Y6z9lK+h/lZE4Tfm2ClrbYoqXU8JJ1bppTA/2i36WHYo1o+Xkk7vCX6Px6Nb2ZWfQ4q5bso+hxMnS1b0cQp60xyZxsgcMI7jUSO9Gp4nqCxPjyqSsVTXIh/Scp/olygy4VcjvrwFv0z5FMle3qkeXey3o4kb46Lujo479uRybFH2yxNlzh+nKPpi6meXyamhwHgqko4d0N4qKPcPe70bnZb1Ow0ZxZVNHMnfoZ4Gd03yXprYONy+RwqZ2iPxkjKSxSbaKDiDh6WX507TtsMhHyf+wSJLPXDMBaWt84Q3/Vb6SlALg7SPGEfQ/rgUzvgIdFUH9VSaJfMzt3FtRT7TYk9Md1vzEu2HlNxxGca2loU7iHm6ZR8aURAzlL8H/tEs4ttfmTCz4H9oynv1sn+mcbpPk33Bongk+l6zjfqJJTuWN45KEUMeIa5AcgOQE0ByA5BkkByA5AeoCSA5AcgOQHIDkByA5Acey0IFaEUMeHshilyA8QFT0BBAeFbAitDkB6EBcDsgPWu3ShJAcgAE5HIDkByQJID1B0kByAmgJICaAmgOQE0oSQHICSA9QZLUgJtcgPTIgI85BU2zNwgKqiRuFuQR3CRvUpeuvxsZqopmSfzXn6q+SavtLXB3SoWrspcbK+NznMbsl6yAInT07/AEwj6UaC13x/S1xS29I0tPWa2glJ8tzp5WRslYc+VTPnaNejPPpxDNkdsrs8v4v65d+5xQVMm+T9iu7H8VG+q2sl1jLuy68+HEtepFNXxxvPn2VZhG7KrleJXH6sNTVO/pBU3g5LA7Pqk6JAoLXuyN/dZapIGqn47bJdehuLLbVDVpyuL1qnnP0VcQ3ll2crkn+q6jMSVxjJXZ89jnCVVc97MBZnCkV0Wzsv7q2p+KHPPiMeNikHCKtjHOyhsQ5hawrLGhjVnGFkgBvc6V2FWA0t9sbs53YrfnpdVprTBRR/VhUzmJWm0vEdHSdMYBPqt3qQnx0guvEVZVscGEtb7Jb6GnmSU9LLPJ5PuuP09j/4lcKeSBm/ZJ9dAOOqe5uhhIKfLOKqiGc4ySU3VZUoKYZystEX8v5gHhL08GwQ81wjbshtXV1DyIcj6ljCblSZyT3TQKXnQngWNrtBCeEqbrmT2Ws48bUDOT3TQvFYrna+lA4JZWHTl7kdZ8q3SiUYasPBFLa6mZ3TkBPMCmsVqZTN1TuyU8idyrkqpu1PnAT9L8vY57jIcaCfQo6OG1Dw5c63HNfyR5Lv/VHKz/1OIPw+tzt5bgCfOCkuaeXIlvCPDtA/muqTK9vYasppGXg8ceUFtp/hqOn3Hlbwv6Ps/GE13eI20oaPPhHGdaj4akMGJmhr8dsqdikpBWfs6km6svydsFPC2q/+qrJSu5YyZD3BWpWr5+MrdS0wlkgEkbvdb1v0qouKuHLjUNiOqNz9gMo4ndG09jx10U+D/qKb+w/xKp/bd8tsjWGV0mnxuU35U752HtF+I8gDeeHD12K2+cE9NQ8ofxDop5NIb32KlfJSfyq01Nc6KdmRK0H/AFBR/rq398EhzT2IP2Wf1031l7pCU/1HaEB3dL0drkdbyuTNcgOShJAcgPUBJAcgOQHIDkByA5AcgOQHhQEUB4eyAieyCqXLYHi0K3AoCJGyAiW7ICIQEkByA9HdATCA9QHIAFOR6gOQE0jXiAmgzkBNAcgJoCTUBNAcgJJQ9QEkByAmgzkBJAVyPQAU1SWlBQ37TDSepDFUt42O6zoJa+7ZyPVcnro0Cxz6+pceq6Mri1r29u6hVgNRbo352SshJW2OMknAQoS/sx8MuR2BV/Pz6lunVvmeDjwu/H8brm16cGz1DtC7PP8AjIa9el2jW/Ll2TzkS6k+sZTfbCYlKLpxH0Bg2W/SVZ6S6t1nLsn1SXTZCe43gElrSpfR/kthmfI77rOtkPIoxFBrJWVSEVdcQZCAuPemr7S7U8FTtV8za4vAh7qUn6rWOqDrkx7ruw5uCY6B4ZrxlLdGkBvcWOI2W/fVIga7l9zhBg8lVzHZygVJpLwmkY85LM7o0F1PRRueEQG0kPLiAbstqegfxBjG5wl6bOAUs7pH/Us6fnB4DWUur2RSWpWetiidqeMrj9M/qWg92uTKqUxsGybMPkDHByhnG57J7T6gpgDvr8o6TItlDE0a3bBZarRwpKF0Yc3Hus62JiGJmktWxtQfIHyHmbtWsA1NEJnfKHbyFvR0prKF4f6KkAR1LvudlSBOOGADJKGfick1OGaWDf1WxjyntdXOS2Np6vZNxjV2b8NbrVgOdtGmmE9baiLgC30TRzMOePCvnzSvoubY486WERhV+Sf2Dqfg621LeuXU/wBElyeegiDgGHOY2jT790TBbsW7gujbEcuDH+AE3wz7UScNMGn5jpP8o8pbGf6a2jhyklOh8DmnGx/9VOqTAz/6YtmkyWu0lSunRnzVj8J6cF7ZIdQP0Hyj7N8gZvwkmadVLVPp/wDSj6T+Rn/0yrJrd8HPWSiQjoqwTlJdGkYa+/g9x3RRSTUdw+NjaT0k4co31qv9cYKss/FkchEtLUCSI4eRk7hL/fS/0Kfh+KJgIxTVL/QYOE+fUt8Gi4X4J4zutXCxkJpotfzJJM5C6c7Svi+10HDtFZI2wVtxD6jAA1PAH9SqfJLZB4iZI3o5b87atit/qqd9p/8AoOt4YppnFxOc7DT2ysn0f6zSz/pB7cubIDjwMqk9Cf1SoSWKvhGWVOj7kpvsf+KnG3iilGqnqTj1Ds/3Wf2Rn9FH0t+45a/An5g/QpeZH9VNabjq+07tNdTNc31zhHzkd1D6h45ttQ3E8T4n/bI/oofCufU3p75aqjPLqG7d8kI+F57QUHNd9JB+yTg+49wQcEbrGuStchnUsoa5AeoDkBJAcgOQHIDkByA8PZARQHFAQPZDET2QxFaHh7LQiQcICOEB4WhAR0oDtKA7SgPQ3CA9QHID0IAAJyPUBPSEBLCU73SsCWkIDtKAnpCAnpQEtIQHIDkBNAclCSA5AeoCSDOQE0wVzt2RQQ3LmgnGynbwmmYrLhJFIQVyb9jZwVVV4IB3Klr2p55Er7y+SbcnZc2vWqZ8zaguDTjqUurcOaeryBuj6HRjHNcFWYZ0LUtjHdWx49pNenIUVTYnEjC9Tw8OOTfsFDmROAC7pnjku0aqtY1vdMXpYbnuRnA9UD6Ib5xBFG3Q12XeyLWf6yNRdJpOouOVO0881IrJNJJcl6fgF0znP3Ky1sgmCflkOUrW8MZLn8jAW3X42QjZTzTTk74K4br9P8n9HF8PFkjdJo+IAuFdLK/QD2T5bpVRUzXzN1eSm3rkTx/rR1LKaKkwB1YXP3qvpWQrad2HyfyXRjJIz9W+QvVDR5TOdkZWw1H08unum6xY55eelZQY28iM5es6SiKyvDmEBZdE+SRz5JH48LOr5q2OldqHlLaza6pe8RiNZ1Hi+2W58p/up7/1QHXUnw9XsnhoLpKfnkZUdl3rh3U2anFM135h6LJU87Ial5dIYg44CpFbRVK8QxkOd/NbxsV/GTO2AOECuZUHs7utZ1Z+14qWIjuStnmCaWqqKmQ6RgHsunGAPpOHKqfBedOr1Vfmlu40lq/DJ9WA4ybBPnxtSu4a1fAVutUHNc3myHs1Vn8dn9j2igoqduuo0x47NHdP88LabHi2JlPpp8BoGMo6nS79vc4Fzn7lHWcWUFZLPL6NHqt4xprfWQNPjbyqQfhmL9bom5dIC7zghaS1RNxdYmAufL28bLPqM6soPxb4Uo+9O2U+Djf9VO5zTf2an/Bc348cOx9qDI8YwFO4y3/y/Sf8Qb+PXDjz1Uz4z7brPjLf/L3/APgyk/GHhireOY57B2aSMI+Y3/ytf/h9Dxfw5VbMlDvOQ4Jfhae6Z4j4c1aJX4Pus/rb/fERxBwsMls4cR3zv/RLfIf3oDiXhyZ+I6qNrhtpc0BL/wCPDz+SsNZaCNXxdPt2xpHdZ/4zf/KDTXThmDq5rHSeeUM/2TfPC/2dZTiez8BXuZs76qenmx+Uu3PlZMUW4YS5Wp9vkkForJXsHYFzgf6qs3qI3x86VRXbjJuOupeGeG5IW33bf4sbPh/ibjuaEtNufUtxgZ2KnfU+f49SuH4l3Gz5pLlapKeokHyWStByPUIz6ynuNZg+2cc2atpna52RVIHyoT3z91S+crmz72VKn4oqNet9PyYf/v8AhJ8m+zV1yZc4DTyVzYS3qa4tAOfdHyrKVV5moKb4vmGcjwOzwj6N8LbdBb738wVktKNGoscepun2R9E/qObU2tiJ+CvLaaBnfmuc7P8ANZ9m+IewcXXmnnbTyMir2j/uQuC3hfo3puMLc7prGOon/wD5Acf0S/1iepxT1MFREJIXtePVpz/ZZ8VbOouU/lV2UF6lqWByA5BXZQHakByA5BnIDkxXFARSh4eyAigOPZARQHIDwjZAR0hbA7StHHaQgO0oDtKA7SgcdpWVscsaXtBVUk9KAnoQEsJTvcH0WBLSgJaQgO0hATQHICaA5ASQHJQ9QEkB2EB7pQZ6tD1aEZexQCmvYHd1PRWYuVJE6Red6T9dOOEFdag7OkKGqpCKotEjHktyufWlI9pKSoa7G63E6zbQUgcwN1Hsu3y8P1y60LNZob3wvQx/HQ16ltTcnud3XXjxc2vUK+qyM5XVmcT6TVly0P3OyW0tKam+NIcfRDCOsvrjnBwFnW8Z+WofPIXElJapnKWgBuXFTtWDveD0tSdaiyncQi0SPA17phGFHpuHtFZ3ysyewS+u/wANmHNFZYWR6iOy4Jf1X5Lrs7STp2HbCpaOM9I4REuedyq4JqApLvof0kZVNY6lDW33OScDmOzhTnmbai8VkZGhg/RXozCSWhfJ1dkvVJEoqLGEdaLFtldktC3rDW32RzmanjC2Um6vltOOynqiUBLSFodlTlUKZWvY/YJiGdGzpDnrKdcI45psY7LExvOjpIyR3SU1ZupqJampJ3KpGw5omGGHUdils6n6IXC9y8nQ0ppgmckkVYwy5ed0/wAq8Gvq4A3OcobEqe5wkFrW/qtmOl1VT4KueQ8prj9grZ8idGUXCNdO4GQuAPqrfEb9NNbuCIGDXK7ceE/4hv0X3KP4eMRwjGPJTTRZ+oW/iS40gwDsNgE/93GXKi68V19SdBP3SX+QbOWdrLpJ21uJU76KzKEdfIWEFx3T50zWRdPXRw4MjshN0vyMl4nk5ThTN0pb7cb/AFdDC93iVuzi1vnClf5NH9LqeC73F/Kpo5qh7u2gOyj+6mnlDul/Cjj+rZtbZQD+Z5/5UNeuh/XBP/0W/ECnH/8AWkZ3zsVn3pbOYR3Xgniq3PJrKORn+pp/+FO+tb/WXaKmmI+IpXtZ2MjWkpf7Kz4//i9jaSXeCcnzoO263++s+IsbV10EeGSbk+Mquf5VL/THst6vEQDzM4jx9k3/AJNb/wCPHRcT3CGUSCQl3fSU0/kVn9A4cbyuBMtMzWe7x/dUnqlfFU7i+q7Na3Hjcpv7R/S0dg/EBn7OkoJWMFTJsx/Yj+anfQ0yTXC71scx58hw36cf3TfVN8BI7xLlzmSHI3z3yt/R8xab9Xw6XsmGl/fKn9m151sODfxKvtJOIXllRDqAbHnGR91SbiXzqNZ+KRj4k4Kkqo6VjpKR4LH4w9h9M+Quf0nHV5fv+vgVJznxgmTTk4Jb3U8b0NeWY0cd5uUMBoo5zJB2GobjC6/7Er4tfwbfKG41MVLcGhsrPqLgetN1z6/H0602q13CqfSMLXQOa7pJ327YUv1eaEU9moKOhqG1EYL6Rjvm+S31ICxbP6+GcS3SSK6TOpcOp/UE/wBlL7NfOUmh4lu1PWNfDM9hO2knwl/vRv8AGaa18c3WlqfiJfms0Y0P6gnz/LZv+LxobH+JdKyoY8tNFMD1yNzoP6FdOfeVw6xuPqlg42pq6NrpNJjAwJ4j07/xJ7lTPu0rHtc0PYQ5h7OG4UNR1511YlO5DHIY5AcgOQHIM5DHJmPMoDkoceyAigOQHIDkBxGUBHStbHYWmdpQyuQVyGxyDOWUOWMLlVJNiAmgJpTpLAnpCA7SgO0pQmgOQEkB6gJIDkByA5MZJAcgPUB7qaD3Qzqmonbg+qB0juNYB+inv8L1nJ65jpu49153rV/OPC6N/wCq5+9dKiWkjO5CM+faW6CvgiacAL0PL+NHPv1Rd0d+y9Lz8Y49+pPcbnh2hu48rpnm5r6FE1x9Tsm4ToGovTY2u6twktbIzNwvjpPzdvCTqnCt9Y52wd3Ra2RW7fbv7qdqiEbN0lrUaubfSOyn1sQp4XOOcKd0YW5nLjydlt1+DvEKKDVIJDtuod4brdWcRcoAAb7LdTrc6/TCupnRwnGwK49/jpyyFzliaTqI2CznRWNvVaxx0s3+y7fKcJSZsEpOT/NX+mfIqOaob0xn7kJLpvwd2u2umOuU5yo70JOG1TQRMhwGpJoWl0VMM6nBU/1K6OaI0+OpuwTTNL9rJ59J+UNvZNfwm70HNWva06xhQtbmFkldl+PVHVXj4o5Gh2E0o6pqq+Jo5bcBN0IQ3WKJvcFyWwcBVd3dLnB/RZMmy8oKyNjtUgTfLKJqrgHnpdgeifOS8Lp6jLThB49oaKSodnBx6ps/o1R9NYpJZtOT7KufPqV0f0fDAg+ZLv4VpjiOtGr3U1ugaY2tMh9Vn3xnTaiulJHCySVnUe4CW+sCu8X+LlhtKMZ74Ub7xnwx1yuVwc5zSHZHZE9lc5kiVu57ojI/Or+Hyn/s6JIAuD5oyXEEZSLTIBhMh608b8rcM75z9k3R8iaVsc8ukg4Wa2PlqbFw3NcJOTBiKBn7+rk+hg90snWW8NZK7gSwgwwU7r9XM/7jumAH29VXHi5tehXWfipxgWuZQ08dBG36WU7cYH3wrd5+cT5b/wBJz+J3HofzDXysHkaso+5/+G/pv/60XCn423+iuLP2rUTSwu86istg/r1H2zh38S7PfIHRSQipjcN2SYJI/uufeI6celgl3DnBVwo6iChaykqZ/oDnZYH/AGU75rf2yvm/GP4Qzx0EdVWRxUFwiyPjoP8Aw8vo6Rvglc+sm7Hy+Sx8Q0lxdQ1TTzo+oD+Jp7OHqCkxCa5n9EVNuqotTKiJwI9QqVuffNJZdEby13r39PZMfqiZ8MkrRGcDsT4QSyiGW6Y9TTqDtxhba1bR0kc85p3TOhkHjukukN3gip4dri4P5moDp3Poln8lL+4KbdWxuDcO0knR91We7f7E3UVQ1nzHdii66rjQihdU000bmdDQcuPlUzo+svuElm4qvH4e08NlqYKikcwSzucRzObn6MJfSWjzsj5PHwJxNNWSj4Z0BY/E0o7ArPPNU3qUReLXS2owQsqNcobmU/5j3T6jJoLaHmnq21QeIXR+PVbn1S9MPq9qo73cqekuFtYWFpw+Rr+4+yrOpdlfSbraPjLRy6uUMqZoeTVFh8HypbtdOOPjFp/C6S4U1Zaqh5iu1snPV/HHJuw/Y+FO4bNMnxZwDeeH38ySmlIP5m7gLm3HVmdIaW50pmb8U10GnuR/woc4w+hpaN+HRy81z+zfKX+7jf6+i7fcKuyT64J3QMds8d24Xf4/zOvO9f4Uj6fwhxhO7lCgdzuZ+8pnnId/pK75fpw23NfSbbd6S4s+V0StOJIHbHI9Fljqx7jVJXnXi1r1AcgOQHiUOQHFARQHIDkByA9HdASQHh7IERQZyA5AcgOQHIDkByA5AAaFVJJoKAkgJpTprA5ASQHJQmgOQE0ByA7BQHYQEkByYzkB7goDt0MDTSYQQkuNw0Z3WfUjGUu1206jlcf8j1bnNIoaySWYuzsV5n1bXZj8NY6vDRvuunz8qXW0pbh0L0fL+O5d+pXUXZrSdxkLvz4uPfoT1l8kfnqw31XRnPHN2kdRcRqJ1Z91tp5C6ouTms/2UrpT5IK25SPeRlTppAOXPOSlU4pfLpdhFbIk2cqdPwY0O0ZU7WcCaHPm9WqdDSWyhj5OXDf0UKZRXU4c/Q0Z37Bb9iwxobBIYtQafsob3F84/DO3skhmawjsd1fN/wDVKf8A2PblJH8OXEjZq4N/tdeXx/iK7u+Iexp8rt8cJ7pNSU8kxMj/AOS6b+CD8RBmMKJhVLTQu3wkrOnNJpZhrR2SMtEVcoEf37KkylaXRMkLtwd03LCNPZ+HX1GD2Huj+1vwZXC0UNDGXuI1e6NevWfLKSU7a6UtYNlzXR8wtuNq+HkyewW9V4U11xEMelp3TwcZ976mpkyCU44sbRTZ68qkC0QAfTufKpxnY5urOADlb8ktXQU0skgYfKaQv0f0fDkGoGV2c+PZN8Ql2LrKijt7OVAwZ9VvzIXtqNqro45DNN2zsn/wtlNf2u+sOmMbeMKW/VkxU22eruLgzOkN9VwevsvnByLbBb4WCpeHl2wC5bu1S4iu5wW+Ck1sZ1d0vn21KxmoLwznt5sQ6j5Xp5x+JU9rWQsiaQwNDhlZE4zV7mpJIhHFgu/qqx1ZvCdsOlo9fRO36TZCwnbc+VT84b9avg/hWsu1Y2OKPON3nwB7pJnpbrjU8ZVtps9K23moYdA+ZRxdtXfqcPVdnn5fjj9fXt/Hy+r4piLtcMTWDwFW2E880JVcY1joRG3Q1vt3U7uOr+ksddZ3k6XbjfGETcZ/XWost2pqi3FlVCwzt2YXN3KnudPLYLZW1VonFZTy8mMEEFp6c+i4/TNik5W3tvFhrmsqDI57m4LtB+n3Ufui+b6fwpxgaik/Z1aRX0Mp0ObL9QDvT7J8/pLeCOPPwzp66wMqrGS6ut2XUYB/7fcxn1x4SXF6tmTUfN7BX0lfR1FNcpY21OgRyxSYD2lp3K685zY8b0zvG/8A+MXcLTZJ7lUUjZix0f0t8PHjBUfTD0/P2vHh/DbiOSTl0kMboSA7V/qU/PFW/uFxcC8SUEzKdsLXau8vfH2VL51z69p0s4l4Xu3D7xcpeuPPW7G2Sp3B82aQi4lr6vQRD0wYBBHc+i4tefDT+N0S1twulVznvbSxj6WAdsJf7ZHTn+GCulorKaoc+Ql0U28OPzeuFXz9JT/08UQRTkFha7V27K10Wz/8GUnEPEVpY+OhqJaaP8zI8tH9VT+1L+lTLfby9r3STznBy7U7z6lb/af+oG24SPLjK4vz2z3S61ayZTZW6m6MEFJJRpuOCuNK6ySt+mSM/wDbPYLox7Obflx9wsN4tt/oo9UmNHUIQfz+/suj/U80NxGK2g4vp7tDG/8AZtXTCGslb/23t2aT+i5/P/8Aq2ujqqkdcKWWhrXAzAZacg5HqEemIt5br8+8ecFvtlzfLS/MMv5Cey4tZdDPU9xdC8QztOYvLfK5r5j6q+pqZXse+JrnQOPb0RnHFudEWO+VFue5jJSx/eM+i9Dy9eOL1/jytnZfxHqGyMir3A6DmOpjGJAf83quvPp15mvG5fTrH+JFK4Rsr5NUbvoqG9v/ADK/zONz62NvTzQTwCWne2SN++oHP6KHHVNypo4bjzIWByBxFKHIDkByA5AcgOQHID0d0B6TsgR4O6DPUBx7ICKA5AcgOQHZCA5ABKqSSA9wUBJKdNYHICSA5KE0ByAlkID1ASyEB2UByA5MZ6gJIDw9igF9X9LlhWRvHM0uC5fYRlammllPV2Xn39dMD8kxnZdHj4dqe9cSLnYyTt5XqY8OOTfsWVtxydLc9PlduZxyXfSuoqgPO5T9Lwkrax4bjUs6OFpqHnOSktUkDzyucO+wU7T8K5G5cXZyl6aR2sNHdZapIFPW45S9asa3SstBnBtDg75XLus+hNBSB8oDVn2J+tIKKSNgA9PCjrSkysobTrqGuIULVZl9DobTTijGAM4UKtIR3G0Fs+powO5XRN/iP9f6V3kEUMgzvhJP9X7+Pi93i/xxJPld2fyIf9S+JbFFpHdba1XA9z+5x7LJAM+L5Y0g4VJ59Z1fDXu1jfP2W/0l0dUruZpI3z6o+eI0c8xR6c4J9EnpSw4g4gbR0wJGMLj1mrTTLXjil9ZORqOn0WTJooornLFl0TSSi5aAvV4qpR1DdP5YDNSSSPec7grpmG9WxTNZjAT/ACOiS6pmGGMIz5VJ5ltNaa0ltPrl+oppEqLpKOGmbrkaN/VH0xN9vnLOfEzDfVLdwtdT/EjfdZ9MFzW90kWp47+Vn6bNBU1EBPpa0v8AZZd03W2tFkkELS1gGv2XJ6dNK65V0lvfyI2/Mb9S5tKQolqauqnbzjgZy0LJ/jdQRd6hjafS84djyn84nZ+M4yn5+o+R2K6/tCf4ZRVcktKad3U+MbH2ST0JmEXw5bK6XBfhdOdrWpTPLDzHR9wMJhmr7Lbn1tY0R9z/ACHuU2c9q2tcjf37iml4V4cdaLWQKurANRVDvjzgr0PPy48/09evjtXVzVkr8ucQT1PJyR90b9P+H8/H/oOrnoIIho1TSefRctrpCwXO3/VWUYdHjAcw4d/6rL+iaNqa0UVTCa21zfFRQjMtE7aRoU/viuQst0kd0Nby2gZ0juMKmd9ZrCtt0q3wmmmcXQ92hy30vSTPDay11TTkSwO0Nd0u32XFuK9fT+AOJTFcooLll0D34eR39iq/x89cv8j8j7zR1klPoqKWR76R+8mNxghdfp5o+Hq+Bfic22U3E8tTR9L5Dq0kfVk7gLmznjr9M/ULLpcOH57ex9C0tqj0zhx6o3D8zfUFUtS88/8ADn8OeILw2qfbJMyRyFr2g+QB6+iXNb7TjZcRcYRcP02udrJZpf3FP6DwnunHPK181vPFF54jL6dzGtpXjPw4Gw98qGnd5Z+VFFSw0tHDTNmEdawnmRn6ZM9l5/q7PPSdU6upjy+nUB3b2wuT+nrs/sU09whnpzT187wzctkjGS1dvj4cc3p6dBtraaFmKKok/aTX9LpPpMR/3XTrzTxTg08lTaH3k4kioZGxzkH5jC7sXBZrzUzt5cIbJcqOPlTYlHU8t8pc4bqsbUxSxyHWCA3sqcR6nTGQx7jfvlZ1vBkNRKxw6u3dSsUsjQWXiK4Ukhko5JGPj8sOVTPv8pXwlfTuGvxlrWtbFdYo5fv9R/RX/ulc/wA6jXN474DuL45JXPpZ4z4G2n0K3sPNVC5cNcI32F5oLlEaggkOlx3KS4WnqwNb+EvE7Kp8kFPFUtHYxPYAf5qN8lP7VDeEb7TF0FdDBRsd31ys/wBlP/xq3+0tP4bcOOqHGs4np4s/kpwXkLZ/Go/8iCv+jPwrp2iOrv8AUVB/yjSP5rpnlxC+8o+Lh/8AC+lbH8HdKpxeQGtdN0/qMdlWXiV+afUfEdh4eq/8FcuSQc8t73OjO3dP9xL+rhs38aKLU0cttW0nHyw5pJ9srPqKfGmis34icPXR4gLzSVB7RTe/ujhZa02BgEdiMg+yXin28JWMRQHIDsoDkodkIDshAdkIDsoDkCOyEGeZQHakB7kIDwoDwID0oCKA9CAEwVVJJY1NAcsMmsDkBLIQHLAlkID3IWByAlkID1AcgJZCA5MZ6gIucUANLUae/ZDC6qrYd/VZfwpDdKqItOfRc2/0dIJZG6T7JceBr6FlTVRA7kL0fLz45PT0Jq25udlrew/ququbpPLVNyXDulEhfUVD3ZJ29EdUK6h2XblZ1sgUvycDcJLVJl4cEY7qdNwDUuaw6R3KU0gRxJ7LKZNkRO+EvWLNHWAsugbUUWoALj9a35OLTRyNqNfgeFGWmzONQGambpNVeQRSNYNwFOdNTuiq5cAZwFmmTQisMZgc4qP2owXElxDYntHbC7fH9TtfKLjNG6YuJ3Xd8lD6mObumzkOa7+FV+C6r0U8r8n+YS28IY2m11Usg0g6PVTvqONfSWeSJg1nC5fT1JYX3CTRPpHhRx6XpIHr6p74dDfOy6ZuCdK30JyM7OWReCqfMLfpz6osMBuNRzTpYzdGfwpSy3Tuec/yVssH0dje942KPv8AR03jZBG9sIb19l0/2SQlrRm2OFMx822OwXNfaMLZrbJVTaRkRhR16t4ZVGmGmbSR4L8bqc10lJYIp4qklw1AHYLpzphlU1FbJByzFoz2OE2vUL+H6KsiqNToter2XPfVrXA1rHNaWaBjZJr1bGZrKa4T10kj2nuo6z104qJikZK0ubh35UkxYbeo8ksdbWmSeqb8iIZVslv+M5K6eKoa2IYjyqVyyLWS1FNWFxHQ9qSRvyvoy6TLNGSVbJLQt7I1RsLPH1D2XRhuZT2hhZa7ZHVyfvZG7D+y7vLLPTX/ABgb5X1NZW6W51yP0799/T7KnpvhPPyJr3NEwtt1GdQi/fzeXSef0XPP1038DiN7y1rxlje+PdPYWOu7qMNjjb+rVkN8ruH6z4KvirqXLZoz+5H0vA8OU94H1xvb7aKWthprpaaEQU1aPmOP5Jvzg/yyo946vOyxn63hqOAB8kzdA+o58qsJ6QRbLfTuZNBDIHgDWCPCl7ZJlreGamjbcIYZR1REapPH2V/4XOuf/wCQn/p+P0Lw/VU1LDTNp5viKV40EDfC9D0z143h6c/18o/G/hyOi4jpqqmdrbVMOYj4I8rh3Hq49uvk0r5IKjUG75A0n/Zc9roy2HDLbdzqyatrzRubHrhlaerV4H6oyPT9IqyvrK2R8s7jMWHoknPbHt7rKpjP4AN9vDH6dbYmnvoG+EDWVVbxJO4B7GtkLdhK4b7LNecNn8eW2vnuTut/LlGcvxspzENdNTwjw3cLzPNbYKmCKo06udOdLSPZW4yUPW2Q2G5Fr6iOZ4+upzqb/wCVZyqyPJuIKyrpZbbbsPFW3TUEDS0uB2KzlZ2Qw4Y4SdSMFZUu5cLBlz3ju8egK6fPEc3p6GX/AE/w5VS/4+ue3W7ZzG6hhFzG50fy/gU2rqy2yXWGpZy+Zv0u+yjrzdGdQh4m/CPiWxxa5Ga4h3ICgfkZf4OWKnja04/+5Gxc/plvFcc8rJHFuAR6nsly25OuG23S6zfC0THTVD/3Q+kLqz51C6jdM4H44o9HKo3OlP1Y3Wd0yecDV9h/EHRqhp6prx9XUUfVU/rjEcQx8WRVeiro5XVB3Y9zgDj3CearP6eAaiiv9FStmq6KWmjlG0juxz6Fb3Q+IhZuY50ks02GRjDWd90k1a3+uNJYLZdq/S21Uhq5cnLtgAnmKX8fR+EeE5KSYT362NfKzeFmz8H3VviI7v8A+NVcrcaylLzBHBnaMCNo0e+Qt+IfHteFo4Zspp9UmDUD6n5x/VMW8aWwSVVCWwNqhW20jZhIMrD/AMLal8tNqh0aeY3B377hJ8t+oq103/3mbeNQR8t6l0O+kg/ZHGfUdyyPulH1ESClreoIZ12QhvXIDsoDtSBK7K07lgchjkNcgOyEB2QgOyEByAHVUnqU6SwOQEshAeoDkBLIQHZCA5KE8hAcgJZCA9QHICSYPcIAaoeWIoIrhXlp7qdrGfqbmdZyVC+nWyElfc3OcRlWx59Q1oprbmWMwDufC7vLyJrZLV1xa0lzu/hXuUNFUtW55wD3S9JIpklwMd8rOqSAqycNYTndLaeQllq+o7qdqsiQf05HdJdHSjJwSUn0AlSzW8YR9BYyhwzKOhZFBv7JKEZo2h4x3UtaYY244OfC5NVbLRUDmGTbsfKOsrSwQh0WR6Ln3pbEDxF4kxhE2e5aO2U+pg9Uuo2ZQvbxDTkjspfDdPknE9zbJI5jXDPovS/j5RtfP7iDzM5XdwgMyuxgFErRlHkjPdN9sNqVh1jI6fKhummW64a+BY0a8Lk2bgu7Xik5hhiIz7JJE9Rl6xhbmQ7k9k3zxL5FWm3Go63DAPqlg6X3WN7Kg/wtVh9B4ZDI4MI2PlHVhP7FZr1lHSyB5ImxzdCtnTKa2+aNsWZGge6Wz9Tq+12yGa4fFPPym7rPSlhndY55p2iI6YxuuRWwfw3TU9W4wSjMjcrWkdztro7jKWu6QVhLBVpgjkqWDTr8kq/U6c3iKOo0U7GtZ/mCndDJ7YaBtPoDgHJLTadxdX09uh+K5ewRMqRnqbiiOohMsNN3/NhNrXDyB4211VO2eQYga7fZQ/tNcmF0rGQ0csMDc80Y/VW8yd/GUc2ICNjmb53cn3/qWKhdKcmdkDcBrW63H2Ww2qDoK5zJdDR0nOl3qFTKEn6pEUlfeKenO+qQO2/hHdXx/rpa24MjMczOWHMjGGD7L0s/459TunzyaknNTU1Yg6ImaWgeHO8qe9OnLLRUDy5xdlryepzvKTJaJnga2MNa7Y/V7JugqqbS9zs6847LB0RRQTU0vyjk+iC2NvYrpXV3Cl7oDs2mdDVROH8bnctwH6Lm9f8AVPIirKaZ+kudkH8pzur8/Dav6qtkdTHWAMdpDvqHsl9C9aq0Z+JdkjSANbneq3wL7/sfdOCauRlrZTNGHY6Hf7Ar05fx8/rH/sy34u1orqpnw7uiji0OzuXSH0XlfyfXlej/ABsPkedEjpX9YzpH3XJNPR4lRU/xFa98rSY29mg91SaHDkuBjfHHFqj1dWPRN1QrvEtt5pZ+Y7R49kdBZFNA2V2I8SY2ae2UzOhxU1dLU6wQAd3RuW/I6YurKqoDRSag/OdYOnHt9kTNZ2GbbXT1IElc4ukH5ATpP6J5TdNoKiWKNooKdsenu/HUkuicC1l0uM5LqiodKfQ+P0Sf3G/rCG8yxzt5bs6Eeey3DZ8A/iddbVWNbGY3Nxg62ZP810/SNfbbPxL/ANU1D7VVlvwsjMidow7KhrzW8/R8n4t/D+509zrfg2tfTU78SSHtj2XNp1f6wU1uhpKnXW5knkdtTs3Ib6vAVMZJqvqP4ccMXWor466lt81JTt+meb5bXD2H1LtzZxzaxX2S58QWe1Ugiq52x6fzOdv/AMqH1DTrMVn4q8Mtb/hBJVTAeR0FJdZUjBcQfi1RmsdL+yKaSoaAGyvaC0eyTHpBbWF4v/FC9X6AUdQxjKdn7tkTcafsE19D4zQHCtDHc5cljWwNPzp3bforYzG66+oW3jGwWeP4OiMbeWM8xnfK6pziNxXWv8WblW3JlPSQ/wCDa7/ETvGfPlT+S/L6NHdYq6GOKItdM/6ntOkY8hZYwsucrDJ8G2Frox+p1fdTh/khk+JpZnujIpJ3fUW9iE4+QdRFcqkkGqkZ56Cck+6z6ZyBYrbJBC482Z0vcSueT/Rb9D5gT/qG/RyiJ08sODhjxnCtnUQ3g5o+N7pExolrTqb9Mrd/55RZlOz8aOL8Qamnpg+d7arIyBpw79EmvOVuDi1cfWOv7u+Hm8xv2CS+fIea/T5k0Eo1Rva7PoQpfKv1EiDjsj5Z+IZRwPVjflwIytCWQgOyEodkIEeFBniA5AcgPQgKFVJ6lOksDkB7goCSA5AcgOwUBJKHICaA5ATWhxQEDKB5WhE1iAHqKhrmoZ0guLWHJJU9RrN1kTSSQdvVTx5N1qM7cp2RZOey9Dzy4fSsxWXEuf7BdGaj+lc1Q+V+c7BZrTVfNwo9NIokq+pH0pIBne6UknsEtqkhY5pdJ2+ylTDYIiQMBStHRDKfxhT+m9QNOA/JCJpnV7mtADexTd4OvRT4YceVLfo3qqKie+T3XN9/oN2258MOSEmqtkRaKeWSYemUSivoVHQfIazyuT10v5r/ANkNA7YPqs8u9UoOpuEVBsXbDcuXT8p3TEcWcbCSDRCfVUzhK7fLp6+eWoLnHOV3+WSWh6mF8wVmRXBbM5yp2mH09vLe3ZSumUdFDKPpCT6bKLYa5rcNdhLeN+njI6gO5kj8lK0dA5k0jGy/SsrNHz6qlpYGsh7lI5tA6uGKoiG2XFU70klI20UkdUNiBlK68G8sZa1oJwtlbVM1tOGvxkuWy9TtXOpomMjjPk4XT/wlRueLcQ1hw04yufrJGgoI2VltDmuw8jypWOif4L4Xt5grCeaHE+iOJ9CcWWueN7jG/Go7pKNu4WjLWuAGvHdyp1LgoPa2d+v12yo7rc5rR0Z1RRHVpI3WSt3Cni+A3elNNGdh9WFTp86hfZ5KG3U/IljL2s9Fmp1aCqjiOjFPy6eDU53ZQmGb1+KC+SSgdJO3S/c6SuiJYZ6kkgDutuoyv6f0RC3P6XV9Q51zkbHuGjSVWF0GzluzdxsPb3VMm8oK4OhfUcUs/wDwtJJ9lfH+qaNOL62KCaSOJ2mTO4Xod/E4yRqzLb7gNZyxrH4b6Z3K56qyNRXuA6jt6rS8AGvg1YJOPJQziTrjA3dmSm6XlVz3qbT8tuPGUdUmTOxVtbR8P3SqMpZ8e+OlZ7ljtZwuP1v6t54eR3+rmy4yNzG7YHvsqzZtZTt17Bqj8Q35p3BHot6nqRuuEpKeqlEJcOZI4AD1VfNze35H6BsjrZb7LzajANOw7/ounWrI8uTtfG+JrvNV1Uj2DL5yXBno3wV4+73T1fDz4yNVLy7d8O0Zmc7mSyf5lSR0WIQXdkYLIxl3cuPZPIFVTd6uRhiiOkO+oNVPlnQ0VL2LgXyO2awb7o5B06ouCbxXRyu5Yjii+obas+i4v7f1H+yFNbBTwOy0aRD0v1dWSNl0402XoiguTQ4xtAA7lWum/IxsTZZxMJ3Bh/LlRth50RT3YUnPjlkMkJPQR5CQ3CusuDJ3ObACxh7Z7rfkfoOnliAAbu7wfVWmJB+i6erbTz5LtGn6fdLqkuX2L8Mbh+06tuuV9LA1vzJRtn7KtRtj6RxFdLLV2aWigq208I2BYcvd7kqOpHR56rFWu5cOWMPks9uZXVbj1V1ZudXsEm/5GYtPGq7x+I/FFQwl1UWR9g2Nobp+2Fxa/mLT+OyFZX11ZNzqubp/je7JIU76088S+pulHBG/EwwPpdlJ+039UK/2lZKjpfM0yu3PMOG/ounyyXWVVdaauVofb4A4P/Pq2I8rtnlC9fXPww/D6So4Xe+okijmlBDOZvjIVflH7ZG+8HRW2Ewy1TH1DXOErWd8ZTGR4Q4bv9zlfRWqneyCX95O7ZoHv6rfpLT7DZLRbuHqRkF1qufMNy4Dtjwj6Qq6fiK1Shwt7H+msN/3KWG/WYrbjTGUgsL5M93nA+ydn6FppL1VzBtPo3O0bNzhN8kN5aaup4Nenf8ANq9VPXGwio+MeGJa79l3HEb3nSJD2JWYn/4L/wD044h/DqWegNXa52wVGjWym05Y/wAjDvVS3q5WxjOmD4a42rqatfar9Sxc1hLWl22D6J8e5PTws/xppLlwfV0z21rJKasb9HK7FV++o8MbBeLWaUwR1mmMdtRw9vun4z5M5eJb7Z5YmxN+Po39ng6lvySxprVxXbrgGte001T+ZjvVT0yaOXdlFeaeBNGvchZW8dkLA7KwPUNcgOQ1yA5AVYKqk7BSnSWByAmgOQHYKA7BQEkByUPcFASQHuCgJJg8cgBJiQlBXV1ZblDCyS6NGd+yWUhTXXcu6Qe+yrIz6JbldmwU+53XR5+bm9fRhLrdpZnuwdlXieb0sc5xGVlqnFOojKnaOPAHOHZTtbIiIS92MbpOqRXPTaB90XShfyevZTumU5ordlg91x+noUb+z9DOyl9gHLT6ckhPmgLE0yzk+nZUu/xsOG0Xyc4ULVJl1DTHmZcp2nsP3UTZYgAOn1SiUZaLfFE4YCD/AOtEKumgb1OGFG+Xaaa4WXTiylgjcARsujHnwmvV814h4qdWPIacN8q8yX6ZKrqNarjI1A1PTgnLgurMIIcxngJdVsDTTCA5U7TCKKuEmHEbKOhGiZUUQpsnAdhIylTroNZAAws4noxj0Op9Z8rBNKo4JteWLPpXNEa8fvO4S0/4Pt9dTtOXfSET8JocYKepk5rRhg8rLpkRjgimqWsznCM1ull3ngp5GRt8Lo8IjaR1c7n1LPG+cKu6Mgr1LJUVLGE7Fc9h9H0vOt9laWPxkbobf8EcHtrtck5ecEbZ8lbpDqVxbX3CtLXOPSVKN+mg4Vt80DJDp6GbucU3C52Auxayd0/cn6WhJrCt29pK6oZiWdpLfytCn8qT9Jay/XCO4PZB0tnONJ8J8iefDF1uuRp2PkkBDu+PRLrXFVlMyEVDY4o9T291kvWXIi5OaGmOpcAT9A7KsiJJPB86H4XGGefutNatuVtbRh1RLGGucMlx7p4ldM18Q0k++cZVJFfMZwfXOorwZS3IkDo8+66PP8Zr/S7iyoD6ySV+2Tkrp+mcZKO+QQVpbp1RTgxO9MEf7FJarmM1dYJ6WoMEuSe7PdvcEfos+jWFxefAR9M47Wcd/wBE3RwRQ0NVWSaIx0D95MfpYPUlR1s8h7d66lkZDSUO1uo2aIQe73n65D9znCn1WUn5xib908LatoZptyNjL0b+g8rOl4+p8BWx8sTJGs/cHmaztl33XR5uH+VrrV8UcVP/AGVHZ2v/AMTMdUrmnsFvr7Obw8mYnmjhh1NyagjGT6eq4HqZ/wAIqhj5GOGrYHLnqsMq+HpSw6X9WFSEqqjpZMtwC5snc+mE3Syw4t12ioK3VJCHNLNGPzA+qS0m4ct4iqITMaV7gx/1OP1OGEn9eSf1MjWzc8tB2BcTp85908/FvPANjJdWHnqz4THGNNSHYYOnwzyR5S/AdLFOMF2d+zVvG9CS8+fsC54OlqODo+js1Q5zDKDHITg58/orfLGusXBNO6SN07XVDnbgnsk1ZG/LdGFlDH8NTNbT07W7tHc/yXPv+UbH8UPNVQxsEXgeT5XHv2rrn8fhTWcSxQSfD08euTV1Fct7VpGD4h4wuMlfLSwyBhb3DP4lXHkfoUzNip81c7ppXt23W/Kky7hKjm4kuD7fGw4H5l1efkjuvolV+DdHZ2R1VcDK4jU1rvp287K2cp/UoigjggY6CbqbN+7Y3YAfor5T1G24Ysd1maDb43tzgNL3EMaFeubUbei/DqyykVN0j+IqRu4eMqdLN8OnM+EgFLbxFSxDsAMf1SdZWfrKCgBcauUTSk5znZaRTptw2jljY3+FpCP0xVcOF6C4NLnvzjcaFl6CC38LvortzrXcnQVUbhpDz0n2RPRlytvs/EsMkrauUuEu/wDlP6j1S3/TTH4CoPw+sF8pBX0bZY7jF+/pn7gn7pvrn+Mn7/o+z8TXS31hs1c6QW4dEf8AGx3ss/8AtC8+dfjH/iRw0+S6C6Nl5hx0+CT6qNnHXnXWbFVpja57y9+N2tU/7mXxNrNcqJgZJ8Lqnc1zHlx2OexT/wDkMv8AHFUXFl5tzDTPPQ12W/8ACpP5Sd/jGtHxVLOedoGvydStn3jm9P41ayyfiVND8mYFzW/qr5udOe51G3tPFVquYYI5NEjvyOPdJvyv/FMesn+nHnH6qfzxf665Yx6O6A9ylD1AcgOQHICCqRyU73BWB2CgJYKA7BQEkB7goDsFAdgrAngoDxATQFmlaHmkIASpjWcDO3OGRrXLGMlWSyM1pvPKeqRVFcYXFznLrmXPqs5drk6UHqTSpc6Rl5c7fyktUzEZHDTgLLVHsMJdhTtbwdHSjHupXQicFHuSQk+j9U10MbNyso6XxxsdMD4yp0U5hnijaAub0yTqUlWHjDeySedHQNdKzx+q35rUrbTsedQCz9Z9G7po2x8vCWnmlfNjYdu6Q/R0NxYGYyjjOrf2ny2Z8J85UlZu+cRTud0E4XTnyT1ay1TW1tRk6insjYXvY/yd0QJx0Mkm+kkJ5R1M05j2Iwtvo1XNJpYcN3UvpvCqdrpXDIwi6aZU9FC2lyHbjdTrYrhttbUOyDsfBSfUFgx9hkhj1/zwmzYnciqKYGPkkpdNmWossMJZpkG/qo1usgL5RM5ny9k+aQBBREM+pV+R070uht2Qp2HhfT1csL9Z7peHA3GuMzjJq7Lq8vxyWfpnQUrZKVkzt3eVmr+rKrhFS85vUNfhbcs0ZVlDO+lhbK7MXf8ARQgqwXykp5mUsGA1rcEp659G9FTMBFaSSw7nCTJ+J3TiQOp/h6H5bP8AuuTNz51iXVNbNcmDWSAfp9U8U+W4piw0hknAbthv3UdszSq62mBhhm1ATHfSklW1tCevuEcDGas42RwudKKGS709S6oaRpeMHI3C2Th9Usv81XoM2vmFzgwEqkJIvL6qkFMwRlz+lzyPAS2j0/wVxrWVFXS07I/zjOR6Jo5M/tYszEZHlq6MR24htZwZYKkRH5zGiaP3I7hWJv8A1k+Kq6S6Sh0TDGxmBKfdbnRszrJyEODo/Gf7LarF8V0pXsFHeYedENo52bSxj/dIahpqG0Al0Fw2/K17OrCxnFUEFC2XcPqyOzWjA/VHa3g34mtljfTsaKSkxvAzbV/qPlKeQLU/Lw0dgsZQ5HMkZ6BPE62fDnC8t0ax0Y2Gc9tsLJm9JrfH0KouhtttNBBBuxga97fX1V/riE87plInTc7mVJL5pPqcfC57e1eSQZO8vhaX9z2am+TQkqJpar5NMMRM+p3qt41GKjdExoBBOf6JoWmNQ+SFjTFt0gYbhZajJ+gXEA6nAuJ8nukqyznvaW9J38ey3jaHkIe7X2ytZEoIhI5uDgnt74S/TTamuMNGWxNh5s5GM+6eaCqS4zGdjZItUhOcDx7KhWxt3DNdUM1xRMY52+pw2aT6LLqQ0lrSWngOGmLqitOtwGc+Qf1UN/yHTnxoisvFHQRvFM1sYzpcQuPXravPNn6ziqmeHMY3rKTivAD6x0wa8v1Afk8rDyUqvdZDQ0EkwGJicNyt50a/Hz2nrA+5A6DI7HUff9VfOUfowqi+omEZjDWt2GO/8+yzMXfc/wAIeEqa0W01jwHVUw1mQ+F6HnPxw+traXOhuV6qGCaQQ0zNsn+FL+ExqQ4svDPC9I3mhoqJR3e7sEdR9fS/8OpeI6Glg5dOzpZsNA/4WXRc1mLhx5coJXNipnuB7EBL9U1iBvV5uAZI9jmM8jsnLasFHb5qYuqqvlPzjcoKHFh4b+HdKK3VI3fv3VOm6HhvFvoYHsha957ZeelZ9AytfEPA9aW0dwYKabO1RnO/3CPksV8Tx2mnaTFcBVU4bqa3UDt6KOl/r8Yj/rh1HUF1ufym/nB8kJs6T+egOI+N4a97KzpbPH4b5Ky6/Vfn8KJ+Kaythl0s3czTK53j7KXppTyjO0stOG6dXTucecrk/wCurh7b4Xz07p4xpZEMscfK2qZz0CytMkpEzM+S5IrfP8F01TRu3B6fIGUdJ/UupZKRnzI3Oa4/l3yU+faxz6/jdOIbjPTMjkiZhx31A9YXZ5fz3H7f/HvpH4d8fuusMVFcRy592wyn8xHg+69D81nseXO41y/43pBz27bFQrpze/45ZWvR3ShJAcgOQHICGCqke4KU6WCsDsFATwUB2CgOwUBPBQHYKA7BQEsFAS0IMlpQEHOx3QVSagDygKpKoHcrS3RJdalnLcm+U7p8/vNxDC9U88uf+xj6urfJKSTt6KtJ0rqjkpbWyF0jiCk6pI6Ea3pbTw5pKfpzhTtOKLNwAFzb0V7K5sTCPJW5YR3CuaCcp2yAo5S45CD8E8047qOi/DmyOAOSmkHyXVlU/mgZWXLT21PLYfdTsL8I1lU/XgJfkJRNlkj37qVWxlOlp6gyb5wsbYaVEbmw4HkJpTWfjP1tDk6irT0TLnU7GZ9VoUw0rZahoxsVofRLRwpRmi5hb4Q0tq+FaWSX0GVHWjSAq7hmjib1LPo/GfrLfRtB0DJWfQ4Xw0znTBuMMytmmtAaaOCm1x41KdgeQSGcctwznujrK9nsUcbOY3ujokCitnphhA06SsfJHrejMRpVLcJm/T2C65CyHtHXST0QjeO/ZSsWim6zwxUwYw9Z7rZgtpE+KTl79jumpONVYpoW2h3M3cOyn/1tZC61MnxBmaTsdl1z9K1lNeddhHMb14UN45WszSyxvq3Peerwt4lY3AuXJsTW6tndio2Gn6QfHnQ6Pu8rZF5+C7WyJ0nJn6Zxuwpkbo2uM0rGsiY7LGb7KGj5hnYrfUVY+Imbqaf4vCTiv4ay2mlkMZ6QWHJws62cKL7NEH6c4b2Yxg6ijopfZLQbne4LfWM5NLIOY3I3OPKvm/jGu4ottjsdvY2PqqahwZl3p5CiTc/Hy6+1Tpa2VoyyKHAia3sArZQ888pBWPjOze43++VeV2QRw7cHUte0u/NsR7K+U/SAOPbTLQ1fxlP/AOCqep2OwJ7rdZ43z1+MRW0skWh4+iX6D6nypT0UUuhLxhzCceybppDK3WSKeB76g6Q3yAMrOt4PZBDRQyfD45TvqLh1FM0qdUNOUN6XTyDUQT3ScLab8OWkVk2txxHF9QKeRO19SsXLoWaI2hjCBsO+PKtPyJb/AF7Vv5lUWjaB31A91z+ml8TkKnUpfMdQx5H2S5HwDnqWyh8EHUyLOt49VWEuuFI5rHRthzscBvggeq1sHPY+Xq06fRw7ZQFr7XKIw+aYNedwB5SdHy74LVTNdK8Bp+kjus6UI+JsesB2W9gjp+OZTwPayPx/Ejo48DXQy6tWO4aEDgqHRTy8x37+RuR7e6BxruEeHwXCunHMJ+hvqqXXG/HX0imp20lP8XUZc78tOPpaVxenq6MY4QXbieoqJnQ0304y4HupddvGdmp3ztAcTpd3b7peDigUlFE3feTvqTcNEZWNi/vqW8UjA8aV7qm5Q0cWTHA3U/PlVxEPWFdsgZjmFxz20+63VHn5tZw5YrhcHgUsZle4jUPyhbmcNvXH3e0yizUEUNX1zAYLG/Tsuiejz/TXXlffauqOwwzwAo/Y+AbeJL7FGaePS2E+qPtnw8oOKq61yOfJola7u07p5U7BT/xQD+n4Ng99laZL1RUfiBI4dMex9MI6z5Iqq8S1RcXEhrvUo6PkoqbhVQzBsTiR38rLs0w6e7VD2aZZenH0hJ9qTBW6vaJiW7+6z+5SYjyrvU2nPN07dlO+h/6yVtbiYSOcXOcdws+jTyVVFwYH6aaIucfJ9U8N8n9O401rkjqP38/Zo8BJ6Q/lj9JKeMMqWtb1OdsB7lTmXT6Z/D6932O221tFF1VBHzGt7NT/AAbzyVW6v1nJO2nssuHQPjuDRJ1MDHhv0BT+BYbW6YTu7aXDdqXWPxPg+5VVM3kPjfuc5c3fBHsofNP/AF/i62XRtupmNmiIjfLzua36mn2Xp/xvb/jxf5v8Lv6+q8FcaR1sn7Kq5dVQOunlJ+pp8H3XpXMseH9Xz1xs9QXPXXXoIykallAeoDkCPQEGRVEnqw6SwPcFASQHuCgOwUBJAdgoDsFASQE0GcgKZtkEKqyfR5Ws6Sz3ctdjOybOahaz95vPQ7C6ZhG7fPrpc3SPdv5TQkhbzNRKnqqyK5ICRlJaaQL8ISclTtOLoaDrG3lJdshuI9DcAKetG6okmaM+q5uUvSm41Z3wVbLYz0jpZZt+ybp4Pp4HaOyXW4a38GxUhdse65rpL6Fz0YEeAPCbO2fZF8CZKoNPqtuz5vWlpqTlQn7bKWtL8COt0kr8+p2RPRCz9aK22trYRrG47qP1+r/5HV0lNTnDQPdOl9FMl1jkeW9mjsU3ybpZcLk3Ohu+U2cF+ntHbHVTdvPldNzyGOrbwt1B5/L3U+jjYg/DUeknxsEuq2MjVXR7JyMZ3XJrSsiFRTVVZDraVnT8JRYZzJ8zsjpV1RZGti1x7EJpWEUlRNHKYyCq9AmgqIxONSlyg4qpmuGG9lhoXtgifINXqmwzcVXBkQHLj8d1WOehKa2Rkan/AKBW+m5hpHTxsgOPCjem1WZuhe+TAO+eyrnqHTllskktgeBjZYsUtZXRxlmTjKr/AOqSmSkw7Lk7TCWQto+WBjbspb3OsLKWm5k7S717eqb/AINHlz57qZjDlkQ7KFb45LJHmExyA9TfKpnKnpDazTNraoS1H7zss3OJcaqJ1rhbL8QRqH0grmqyll9lazRDPiMjZo2T45P9c+pqoRubJUMaKlxe76mApdSL+cMrbbQ2va7VznOOz3+GqFVsHV83wPFVC+P5kbWY/mnzv8Zxd+INpluVPS1kB+aw5wlg/wCPnd7ttXQtcWyCpEsep+PBV81FhhFVZD3uXX5xfN/BDHujIlznT3KcX9aajrIbjT/AXAB1POMAnx6Kv1LEOWMbfeGKy0VbJAOfQscSwHcNBUP61sUJQ32na0wzQtMbnY9x+qyrdCTsiEpfHM4Q6voysb17UthD9XO+U0fSU8LSKqqdTtMQxlaxfaaCSpqNJYXOz39FpK+mWGzxRw/J0yTN2dt2TyEMHTNpHtbKRJUP6du2Fm9RucqIncybT38ly5LXTxXeK9ohMNKNUsnSSPDQq5SuyukgaxjJI2lrGHA9z/mVELqU5NOJ4WEMAcGjJaPX3Wxn0lUU1NR0JYBrc87O/wB0G/Q1FTRvJiny8Ob8l/ofT9FC1ToCupZ4hyTl0Qy5n3Qacqmmbqb8zqc4bNWydO7nljw2Nmcj+SwLJoonR6pG4dHuCmjbONBwfwnU8QSySOjdHRtA1TnyR4Cy0SdfVLfYKe3R807ADDGfZc+/V0YwCr52yvEgLgP4Fz9X+SCqFPCTLjQcb4WxUEJWVDg5h7HGyrGrI6EPcyIsHfqk9lpf8GVfD4mpHuD9GndrfX2T/FNNPmcnAl8q7s5/Ja3JzzNX9EZlPeNbwz+ELmtFXeKhrIWuzoHlU45t+sjfUtfbrPTfDWeBsTB/3cdX81l3HNu2lFZd6qcl2fmKfSTKcHFAYxsckWkt7vVeDleV9058QkgeCPZN8ltLd5OuV+PZU+Ueh5afW/LN1vTzKbYJy3r0xtCX6NFFTURQ/n1LLpSYLLheQYst2wpXq39ZHPcpC7d2PRLJTzzRZcGcsv17o1mq/wBRbJc4y92SXLJim+IofdhqGhuVXOE9GNiqJZa1pO7Tu0DuV0TKN02l4oY4qanf9csjcuZ5DVH0i/gRwV8Nojnr5mantGmna7+WcKeYvrXazcVc6rqTLJ1zT5JKotkRDqjidIzLQzpz6nKB0bBVTTva54z41I4LppqCq+GoHzSHqbs1HyUrprpGa8PmBdDn6Gn8x7Iz5xW38a63yxTUr5piXUzGlrGuHk9v6pb5/v4hr/P0Y63Pt+irhcYrjTgTRb9/ICv4ev7yvE/nfxPqdj7dwrfmX6wUtxG0pGmoZ5Eg75C6vXLy/Df/AC/6bjuocdUTHdYEkNehAj1BkcFMk7BQdPBQEkB2UBNAcgOQE0ByDJ4CA7BQE8BAC1IOMokFjM3Z+M7qkiNrH11Q5r9yrSOa1l7vWO0O6lbqVjHTTF0jjnypWmkF0Y5jcqdqsg7kjQp2nWw0senJU7Q8y2JynQGmqznvt5SMVBj35cOylrRS+6Q6Qmmml9PBmQbJbpvTqmp9uyTrLVhGg7eE3CLy8SMwssZRVutDJHatO6nav5wXPTaSGgbeVO1fqVJSsMn9lhaIuVbHSxP0nxstuS3X4xFwumo9b+/dNmFhBV3VrTpYVfhtf48pp3TEOPdPPxP5bKz14gpwSOy3W/w9PLdfx1dwD5KhaviCf2q2Vxa7f0UtU3yFkoaeSYOA7lJzpocM+HpoQCAt1DW8KK2vpHP0R4yskQtUvmHJIxuU2jwrdYmyAzvH3RAy90h5dR8o7AqmWVR+05o2YJ29VtyJXsF3BJzuUTBdbEwyte8yOK3hJDGm5crXOadgg9JrhdXtn5DTsrZynVEbA+Vmd90u6Xh7WXc0MehjcgN7Jcjpfarg2qlc14GO6vcsLblNmqAads4VP+NF1B5cTf4sdlH+sPbdb5qmYyMOlsXUVm7xshqfiq/TEezNlyz9PL8vKXh5jqwGYZg8lVm+M+j6opbTbmDlNBld9JSem+lpN8DUVtbmQ9Gex9FLg+jqLh62vc1uvlkfUnn63Jvb7bQ0L520sYmLm/XjJ/RGobNFUr65hGqnEFKOkSOG591z7/xY2qqamikpKsM1nt/Pyp4prBtzMdRb3wtGhukhhHfKaaSua+NVl2q6WolpZYS6UamhpHcBdnml/VSCokLn6JodDsfRjsumXhp+AniAfkwnVleazFh8btTPHsUuo3nTyiu0NRTcmocHucMYd2/VE9Cc4SXbgekmkbPSkROzqfH+V32W29NKxdbaK2nnc0B2Gk4CDwJHRV08mgxuctMc0XCc4Oqdp0ndq1jV2S2xjSx8ekeA36v1Txlh3PcYqEGKMBrnflZ3H3Ky6JmFXVO50jt3u/oFG0/+LC6Us5NINz9Tjt/dNMsvoGbBPkYGR3z5908iOr09tcMV2MNJTw8sjOSe5Le5U96STjgZDJNRRPc2aNx1td/F6JsU8gQOYIpWSjU9uNHun1TSoyVAjeNsMHU1nuufhk4JI7jU6YvliPuxw2LvJS38Pl1+om0U0Dw3DZBqefun8tHAaIATK3Ax9R+63/oOeEuG5uI6483po43Ayv8A8o/KPXKNfg1rr7vS0dutttjgpIxHCzGmMD+64PX2V8oUV07pNTsb+fZc01XXCW4QMig1yHqd59FbMUhG6j5pEr2kRjcNd5VpG9KLtLU00+qlo/8ADuHywwdnKsg6dWnIp2GQd/rB8qkyzV60sAp5MkNGk9laJ94hWfDW+mErg1zj+VLpC+rIV17uNweIidELezQoXRFElVLH5wG7aVkyOqJK4wnmd/ZUmR0XPHT1dNzi7Tn0VJE/sujd8NtDkqnCrooy9+uZp+yzrM4GzXuhooOjGv0R10Zwy1z4jlqXnQdLfRSXniR1F30u6jqz3CFpgDLcXTSFsf0eVvFOKKp/W3U7pOy3jeJy0/LgaR+bcJuMtDGJ3L5g+ko4nartNG6oqdABOsrUNXrcW6go7VEHl+q46vlxY7Jvs2fM7rrjTQUDJpv/ABD27nvpKlf104zx85r556ysdJO4vjaekdgEcH/QrGy5Lojpwen7LVOiOdVPiDXP6M5A9ChvR9vEjAzU/wA9kNH1FVPy8H6M9kRsDs0SuZHH0hu7seoTNtbfhaVtyqKa0zuxTuk1PDe59lsQ9L+NBxKwRgVzdem39TGZ9dgHeuyh6/8ArSTH1+H34QXyqjvUsMx+RdRrjb2aHD28L0vHf3h8x/N8v6/X/wDj7KRg+w7FT1+L/wDHAhIIlkLDPQQgRLIQZydJ6sMkgOQHhk091o6g6p090NefFj1WM64VYPlDUxVZQOJ/EtR0zvilnS/SXxQ9QtH09549Vregq6uAbsU8ie9sVfrs3Dmg7qkjj1tiq+vOTkqrGarqtzgW+UtpikxuLv1U7TQ0pGBjMqdqkFEg4SVvEzN07KbAFTL1rKFMDdcv6qOtF+jSna3IAC5bpgK40pe/YfYLZs0imht+k5Le6y7Pw0io89hslmi1CroNtlT7T4HgpTzWhH03Oetra6ONlMCRukq/+El3nbHMQO6nWS/qiCbS3mHv6K3ni09rIcU3/DnNBXT/AFVzyXrDVl3fIMA4KaeasyCZLLI/OSVTkPxpLSJNAy1Q3VsyGktdIxukLn6LkytNezl9Z3Q2LHXUNn6ThZ8sHsvwjLTqyfRPxsq+qutVWR9HlT5WemvwLR0VQDrOSfKb5Qhi6XQBq/Kk1pcJU3Sd7Sxm32RAQVVFM7L3rfoFkzI+UWnv4VM1Ogqej3JVS8eDmfE8sHp8rOqGMVS+BvKB7qmM9QUQU8U1aS45cq65w0ET6YJwOwC5Y2h7jXRyxkZ6k0ylwLaZWRFzyujENanUQulmEkbOkHJKLeM+hVS7UBgaj4S3UHWmslqqY6B0pBDZhsuTXpKzV4prGVFHK3S7A/Mq+eC/tavhs0zrTNPLHzBjdJ6443rP36MsnilYzTEDktKn55636NOGn09wmaDFoaOxPlW1jkLGrqrJazSiWGImZx0kBc3/AH8Vaa3WW32u3xvEe+Opzl0yMl4jxLGJaGN+kcjGe2FxfyY6cajL1lSwQAB2IQAAPOpcuasdWUQVlK+InSIhrDim4SVnaiy0FbxW18rGugZHu5oz1eFTOrBqsb+Ilup6OubV08fqJh6nwT6Lq899Qsr5/UibQOgkSDW0D3XXmjpRIalh7aAfVP8AXT5ryFwLxh2Cl1hXhwysqI8fO1afDlmYT5QnrKGoaRIzEnrlMYNEaeJwdHsfutMKdccndgPp7LWRWLjWuY74Z427lvcBL9HuXQFmT0mSd/r3W9LId2yz3mt0iNgbSD6ngf7qWtRP000FwordS0lMyIf4lu0xSfbl/SCqhkNyNHE7An0hv6rozfw8NafFuudM1+Y3xBwmcNs+/wCqj6i57/i+vfDPxA6cs5bpS3B/icVvmpJ+A7j8PFUyzAdQ2/8ARVqdATaaqZ0kreXhvQEkqmY9sXwxM4q5fh2SaeTL/mCl6zv+K/6v4jroJqox07xJBFG2PJ8vb32SeUsaF4ZsFbf7gKeJn+Gjw6Z2OnHnfsrh9vs9po7VSBlHGGta3oYPJHclcvv7KeeEvjJqvSyIEOHceFwf/Z2ZxxJ8TYm8s9Uh+orrmI0quMIlOJN2HY+y0xZVtPJ5UZ2Dcb7qspehmnTCdfd2MYVJQrEbuaevJHYDsn6JTqlozDF8TUP5bB9DCs7Ut0hvN1ZI8hx1t8JepcJJqhkGHDz2R8gvlqnue45yT2CpC8omhtLqtuZJCHeirIzh3T2mOMaZX4YiMzlTU1dspnaY8OcE3V8+bNXTiCYvdpIDRsVJeebLVl1fzSSdYQtJFL6qEOEmdiN1nGvBRsmpnzB+D4COMUCB0DMt31d07A0kMmrOe/ZNxnRYdJO74ZnU7GG4Ws6ax02ulZTPbyxEDqd5KzpaY8GWGd1fzYfqhGqZx7MaPLlPWm+eOrLhxVFFPUOgha/L/lTOHUcbFLyu6SSM5UXKqrpMy5Iz2zgJsFphHSW9lG5zg58khGkegHqFtSqqC0h7yWu6PAQPmpGla+XlxjSwfUcIbIOiipYGlrG5azcuPn7LDltZUSzP0NBAPgBaBMFPMxoijGnSNUjvut6ymVnuLbddaaoB+bCdTWg9/uiVKxqqqvlMUEMjzLNVkzviHYZ2AKn6/ps/hvI2Szwcymd/iYNEuW9h5LQVT+F6zOv15f8A8l4ffn3/AK+8Wm4suVrpK5naoia8/wCrG67PfPHk/wAb0msiworSJZWGehAe5Q3qaqmjzgkCJqcICuWtDfKpwAZ7jjuUvQXz3gDYuS3cap/bGVO7jflbHc2HyEn9xuLRcwPzI/uHHhurx+YJ/uMsUvvZ/iR9wnE4L1H5O6JpvF/7ZB/MrQvSq53XbAVIjayFyncdRce/ZUiNjL3KpcPK20SFPW45KnapxbDDvkqdrZB7YukKdqsiboRpS3QtRdF0/wBlP6J0BUsa3c9wl1pnUqeFxGW+Vzb0zhzS0mkDP1LnVmRDqNh3PdCnyiKMgHCC0dR0PT1BamnUUbNOQOyY3C6OlAkxjugT8OjUcmlx7LKXWmNr5uZVlxPZJmW00D1lzigpXO1eOy9Lxw2vll9uRqJ3EFdAzCRmXSd0mlGpsVG14BIXP6b/ABrU8uCOHYLm+1IDkgEm6xoZ+qB2kFPGKSZSc5TUGlut8z8PcdkobW0UkLY2l3haTZqzl79ISa0zMI7tTvMmWdlGKgooTD8x26swNWTc9jyzZTZWf5HzDtv5VssUVU5hOho3Vg9pYsHnPHdZIy11QI3Evadz4XTPxNdboWRO5x7qOtB09TTT1OD3S8ZVktjojE6dztOB5KtmMJqBjZqh1PGM77J9Xg41NPbpqam0SAa3eFDV6jobbLREZImvb06uope/hcX9ajiO5Q0NE2ClH0t2AC4rP1T1Zm32a4XiQyTbMx9l3eNJnT6NHbKK3WOKjZjBxrKX29YexleKa6GQfC0kPxEjdukZS+fpCQdwXwxWPMTqkljB1Fo7/ZdG9TisbqkrBTMmpvhxrZ2f3XH9yN4Fgnr7jWYlcY6TPU5307LZ6kuaY8qnurnUhkPwtLsXA90vrOr+P+M/xFQ2m1FjWOaQX5L3u7DyvO1HWRU17rq6I2uytDIC4ior3dPSfunz/hGnho7daqAwU8vNqtnSSk5OfYpwyPE9DFcfmcsz5cPiI2egCJrlHHzq8Vz6PMU9Hzo49o3sGktYOzT9l3ee+ksZeSeGumEbARknDT3XXiF7wNXWZ9G7mbnPYKlh5oFLLW6QDu0+iWQfSUDqWMAygiTyCjiueGNJW0jyWNYMt84RwXQg0dRVxkxjoaQOkds+qXpejX8PXW1V0lHNFk6A97o99nechJay+rVcNcNWyGklrJRzqx30SE9LAfVR1tv0urLx8FC6ippAabGkzt7F/wDsp96XWeluZqiqiZKD1lhLx1DHYnKfMJcmNZZIqCvnnc/U5oBif6EJpr9KUXSfnFs4kEsseRN9z7KtNhL4uSoa57iObDjS30A7JM09imoEtRTxktLgXZe/0VbSWDaaiidpZNM0vG+BuNJ7bqTLQNyoaFjmxA6nAnJP0+wCD4pa+hqrhWwW22AOlcfmvG+MndZFX3Lhjh2j4esTKKFpdO5uZ5u2SR2Wb0b5Wtlruc2mhHVJ0OI/KCvM3+uvM4cUlqp6Fh3LpM77+VXyya0umGQ+od28KzSWsrC6N/o5DShxdhzm7t+kE/wqkjeBjSVNQ9uHER504/sqSF6dCioaGPnSH6ezPVMjaS3a7y1gLS7DfAQn1nJJAHfxIkatjtz6qPG+odk8gOLZwxIBrmxj3Cr8lXT1lBQZGxWmmWSvfE8rp9AdiP1U+uqeTL1lxkD3Oa4lxR1WZKpayoe8tJ+pDALue2bS7s7sgPX08mrl5OBuSmKPZzYWNAzyyO6A5lU8uLT9COmoykpn1UgjY3OfPhL/AGJfp/bLFHTP5kkoZIf5pL6qTAq0cHXStrXtY93w7jvMR2CT+098/wAfTbhwJWDhM2jhdmiSX5twncRzZz/AFHe1fKcfI5uFrvFJyZqCdskbi0Rlh7+qfHorbKYW78PuI6lwMVrndnt0bJ/7Wf8AqcTcCMtbuZxJM6CQN1Nt8TdUun1OPCTXulZB7fw/kraYVNJTPjodsSN6nuB7HZR/8hXAKl4It05kbBdmtMZ0zRu+oFV/u/FPhXduC6ei5UJrQ7mDVHtgu8pZs39TKyRiOR5hd1MdpP6KvWf1h23CVofFq1Sdx+qbpLhK3wwa5Z6p+ZCOj/hNCfDSWG4wR1Ekkx1zydLHd9LR2WUf1tw7lzRuEXUw4dg99+6nPy9T9fLuW9/CO4SOt1XZ5HanUUmqLP8AA9exq/eXx+M/1+ty3gOVyuu/69CGpZQHoQA01SG+VRPoCe4hvhY0M67D+JL9DoWe5tKy+saWVd0C5tezeM9X3lxfhq4b/IdGfGhBdK0Kd9155rY7zUN7hT/uH9S1nEEn5gUf3D+pN/EO2U//AJBf6gEt8qJP3YT59LSf0pQ3Gs1ZycL0vP8AUNzhxBVzEZK7s5cmqlNKX9ym4mT3N+2E3WstWHW/HhT+myKxGQEtp10TOynabg4AYCS1vU+nCjUvpVO8YwFK6KCfEZXafVTvoaZpjSQNjYAVK1TgwTNDR6+UvWzqUcjn/ZBzGONulp/mgtGdLGLYnS2rqsEhb0v0GilydSD5Qrq7o74anxOs3lir1c4YS5wduuvPkWdfPb5xFJK8xsccecLoz+KSEBmkf3TdUhjb6fUQSFD00ZqqExQxd8Lk3Oi/i8XAHYHJSzBpoVDOC3futsPaqlDNeo9+yIx7FBG54T8Jdw+gljgjASD+yG0VxDKbW1NwW9RpbtJM7SuXamcr6mYAdZRG6AyS5iJ8KvWcBU+dL9tikLaS1Er2iQ6d87K+YXpaxpe/XInb9Lbhco4IAxoyVbzylQdHLzN3bZVfW/jRdVXcmnLGfUey4/m9Yp4es1RW14lcfcjKvbwtphxOzksdBkgNT41GdUcGUcjqxtQY+lu+fVHpqFtOrpcHy1Re46A3bARiJ/R/bKxlXQR0zGhsw31+yh6/62K62SjbM1slSHY2d53RjzNu9aq305p6BtRE4Pjd3+y301MsxjoW4S1FVA5jNXVtqHgLj3n6rrskjreY7TDyGRh08g3kduV0+fjxydlPbTxDyQyNo1OcMEf7qu/P8NKLqq6Gmg5jsuqDvpHbdcf9XP8AW/ZRxhxv8FQxUVvY1srxkh2xye6afLLao4MPE90bIJvlQu3dINtkmqt438Pabgqx1FRI+5OfVyH923UfCj/Va6uqLvamQtfTW+kfBThuiTwDnzn2S7z8lCULLbR2p8MeaisiYRHM49nn+4SfRvlmKO3361vFVNJzKmok6Y898/0wi6idasQ8NXOLTJGx9wk2lids4Eeybz9U9V84v3DcVhvTpYqD4uWWMySBg6WDwV6/8fXYh9sqbTxHeqjFNCWMdjx7K2tQ39nBUP4bXQOEzmcyF3d57ZGxWTUZPWV1m4Jq66sllfSZooHCN0v5QTtgepRNw39nH0Sf8NLbbrO2m5DHSaw50gG/XvunpJ6drNfB26jqPhoY9UAfzXyN8hhGoKG4fW30C4WmmrK+oqKJvyZKdjua4dvGFya0l9Fdqs9HGK+1T/ua2Lm08g8kbHH6pHT5/rD3HhI0YdyXOaGEl5k7fyRLxaSnXCFvqK611M2kRxDMet3kN3JCtUNa5SetqjVM+HwQwynq/iHjHqshudBQUwMTY+T1SdUpb3wjWjZXQsoKVs8zDq7xuB3OpGKqX0b6ltI8u+k9m+iraSovMtNDzeY0OkHTn2WF/wBI6yvnuMrGRjmSZ0sA7Z9SslVzh9b/AA04WjtVP8TUY+OkwXH0z6LOmzG8fK6NrnP+jHSfVcvp6OmZeWxoiLqhzuW+bePP5gFOQ/LUKqolAEwO8hxj9UymZz/QVfWFg0AdvPj+SfreEMgbPNoBy70am+Srae21DS50rMl3YflaryMujEwwUtOJHDAjGAnc+rWL4guz55On6fRYoz/NkkOCTlbwvDa3WHmuD3+U/CdaWnhoaKIFxGT2TnmSe88ThmzNh7FZdrZ8mFrbtzNT3HVlJ1eYZm5VT3Shpf8AqsMp69OTuPVbwplZuG7jcKxjKdhlJ9Fn3G/JhVcKXWe7NtcFKfisb6th+pR9wfLQUX4VRwyxm6XCKNmMzHvpP8Kj/dFfhZL+Hlpnk+XcpJ4gelsbRn7Jp6dZcGVi4L4Dp5o47hQVVVKD1nVpx+iXWiZyeVXA3C0k2bcJ6ZnmPOVy73x0Z84Mh4MtMel5YXOxtrUf7Vvjh1RtFM1sWkNYDuG+iPqltjYWxlO2NphacHznddHn+uD21wxjjJfzNuZ6loK65mOD+3XRBZjpft7jYf0Wa82a9K8ktlDODNPCyWR7OTzCA53LP5clQ15cN57vVDaRlPC2GnYIooxoYwD8q871l/49Hz2zEf4ecMQR1/KpCJbg7XUPzvnv0nwpf2WR159P1jeJuBW1XwoqahxbS9MZbsdH8JW4966ZesvxNwt+yZmUtth+JtlS3W95+tjxucldmPc8yxlyoOQNbQMDYBu5XVj0jLgnLyHfxb/Sun/SfA2hqI4ZOZr63flG6wfL6Bw/X6hz3yfSAAFP0v4TWW24IuZt3GtKHO0w1kfKf7k9l6X8HX1nn/Xx3/zHlcb+o+xnA29Ngs5wsveOylM9CAllAZWpuHfq7LLtPhJW3Qj8y59e5pktfcpPRc2vdfPmHkuk57NUb/IPPINJPO9RvopPJS1m+XblStWGRhvkKdoW8iJZ06iehYeyOgM+k3+nZZGVZDRt9F3+OUNaFRU2PC9jxy4fXQtuGtwF2uZB7vKy1nCW5vJKnaOEro+rdS6dLljSEdDzbVgJLTWpOlxt5Cnanajzyp6pHrS5xC59VsFRRtGXefCku7JedvCxomnp3vwlaYU1KGndaBOoRDf9FpLXusyDutidpZVMImwe6XQkdynthc7HhN/xSMfxBdXRNcM9vC6fDLevmd7u09S7SzOnyu9khPFTnfOS4rDj4aEHGQgGdOzS3t2XNs0q3rJxnCmerIIyHe6eQhrBFIBlS1DRGoDnN2Ww1q6zUdRI8Bvqmt4lzp7XWyWPGTk+i57S2OhgkbBjP8091+NzR1up8HIChY6c0bNRNmb1HCyF0or6cimAYM6dkzPoFE6WOicSzBQWkclQJNTsdC6sRhZVzx6OhVxlhbJAZ5W5OxXR/g4OpqOR8wijbkHZc3rsK6+iqY5+U5u/hELT6x/E0WHFuk4S2o7oK5F9TX65d2u8KuJ+Ny1dvpY47X8oaXY22XNrX6fUIqex3CuqXAtcItW7j6J56cT+WkqLE21Q84S4Aaufe+0+s8Z+kp5q+Z4ggeSdy4juurz0Tj6Dw9T3Seijo3tLW+T2UvemzeNFO6ko6Q0ugB7u7/dc89eK611kX2qa4V7jHVhkXk+QE+vW2/iWcn8Udntmgs+Zy+8rvJXf5S1PS6qur6oFsMLdGztQ3Uf5U43zrN8RUQurIapzGtkjdu4LjwveGLuMhQWmO10LXNfjHMxu7Pp6piTTVWi5fs7h9s9wwK2UbE+G+q3qs0uivUV4skk2OqLLS4dnYWbnYpNPnt+v1NRSRwwt5bjs4+3quP5X68ud55EFPW1VQOREAWs/M4Y2S5hZqF9tvE1zvENfSxilhhZqknPnH5ffKv8ACPrpqLrcIammdUSt5bnRcvSPqd7fYrp8N8cFpBTXSmoeTUTv0QjVE2JncFzenK6bst/Wnhg18LNp5pfh3SN+Y7+HO+Uu9smKrsNZw9Q0k7jNpoaJvyY3f92YbmQjzuq+M/6b5pbd75dKqknu1PkRu0nf6T47Lp/4t45LuF+H3VNiuVzrB82Jj/hoh6fUT/MFcfrpu5+tHRPuD47OC1zYK6lL8fl75AwuZvwnLQ1Itz3uAZX0h1xho2A/hQv5lFzzLw6XVMBjqHPOouSX/XRE+G5qMcAjMrI5HSvzk6cNb4x5VtOXef0grJqW5VQMDWxNa0GM/SOnuUrYVRwktEkcuRK2Rxjb9XT3WLZjJGpeyNpxnBc6T332V8wcTlvop4S17dnDI9cotN8FTJK+6yjWC2Mdv1UPp0Z8W14L4bpIp2zPaXNb5x5VsCx9SoKMwxNl7uf/AECj6aGMDXH4uWGmY3Xvk+P5rkv6vTKrponwYP1RjDP8qpDZZ6oqXMnijeflRtJDvdUjdKR/jYy/Xpid2eE0yX6E0VnhjkwxuHD6pF0ZyndPbndqShi5bGdfoTkrUvpi7tcLlcHkMJbGfy+EHhIaCp5ulwyf5ppGnVt4d0YklbuVSQCLld6S1wHSRqHZPpucMPWcST1cpdnA8Bc906M4KamtMjdTuxSSqyFcutpLRvnsqyqcMbfwVc7hS/HnDYs7ZSa1wfJv/wBGx072PmqWzMPdjVy69zTyN7aGW6cS0eWOHYBc/wDe6P6jP40c411VOWy+T+b7I/vH9ZPeL6a53Kjb8r/7f8R9Sk/ar+FsTqlkmYXuhxvlp7FUl4ORr7c+5OpmmWYuz+Y9/wBVzb9r0vxGktIljkDic+qTWqb8aOB8cww4Alc/p6cb8vXxRt/7YTefrS6x+D6Gs5bmtAwB4Xq+Gnme+WjhlY4Mcu+PO1lfIXaQdOr2WpiKZo5RaR9x3WWdHeLHREflyFzb8Vs+oatoyd/pHqFxevl+Onz9P1jb/SVAYXR/V6Lg1OPV8dsVU0lZJrcZXNJ+uLxj2VM7dmP9Ye/xCF744Y9Ln/TkfzXX5bVZusss/KEowD+Znld+NluS+KnkY3VJhrM4I8qnUrDe0V7WTMic7MeoYwk0nY+h1Fc1kFHWMGqaB7Xh3oGldX8HfzXz/wD8z4dw++UlUyrpYalhBZMxrxj3C7PWPC/j67leFF0PUB6EB8ynuAwV52t03xQJc17skLnu3VMLGxsKha35e8ph8KJnopGlb08qv4UHwltam2nI8KXQlylrXPaGjK2RqsY8hdGMl3Xg2OAvY/j+Lg3sQ1i78/jk0lywqfRYBq5MDAS1pPVyalKguekDs9KzoUF+DlS1plqILiclJ0iWCpXTF0ZwFC0+YLha5zfZKvwZBTNG6BwypgzT23WcbwU50fL28d0FpVX1HoVqOqnSynRutZmdQmINQktW+RFUQ2jfn0VsRtn4+VcStdLM5jdyuzGpkuYSR8NPdHrI+63+39PS2ot4hkzn9FaVnVmWtZn0R0V0dQ3t5XPoRZFqlfgBIaj6emqHPDWtT/UGT9lHNHCC4fzXPvXVvyPG0gyMpJ1LWmnsNHTx9WyNU+Vtyw6pAb52U+jUeOtsYA1O7pvmubvFtLoY/QBsmdGdqqqtZzuWCp/JljCAA5/ZNxEpvtzh5Lo49vRblWz8ZOR7TA4A9RXTNcKCgpHaS5/b3XRgL6anaXh4HQl9NNaK3iCnbzNta4b3oJa+qc64OeT3I2C6M6/CWH0+plG15HjZEiXFFkpvi6sc2PLV028jGvrrWKSJpY7De+hcWcXvSa08gqMNdqj6iMMA2/ml9KpmUvv8s3Lj+IB5Oclv2SzKlvWm4JMMtNoZFpcexx4W/ZRVTc5IpX0scgZj8zVTGOz9S2RXi63ZrW6GF3g5Hf3XNrCuMUPSCSggM9RKHS1Owhb3/VNj8b6QS2yXS9zgzV7KWA7NYOwXX/bxLhkbO6yuZbqKoNTqGZJj/b7KW9XR5nhhabVQ03Nl53xE1Tu6HuGbf+iX+q5b9ZNqgW39mtq6qOLmUW9OA0anHwMJWfj57doeLr06WrqpPh6FpJbCO/tsksUle2K7XuktdRRU8bNBO0spxunk/wDVSZ/6Wjg26Xas+O1857+meftEz0A+ynMm+zuDgWnMb2yl1fUwt+W3u3bwp3BOq5uH7hTM5ToDE1zWyfC9unysnTclIbvLJPJUjnHWwjlHOAGj/hW865fTP6d8P2OO4RU1XUFsVvgIcdW5llb4A8j3R6aLmGfFFzF2lFFZz8uJn+Jx/F7o8u3X/wDFdagCk4YmqXQU8j2mnYMzP9c+ML1fn/8AEp6Q+vFbY7dZxbBK1zpGjTAN+x7/AGWX/wDB396wdRxZUW34qKMOIq2GFp8AHbsue4dmMdfQ7e6a4Wi1TxuYDRCNjPUYG+Vx+l5RrIu+XN9JNLI3W/ms0tYMFpPqpzbMxguMLlPHbpoqjVziWHPgZ759NlXP+q4CUr4v+j48gRvc5z4M75b5VdF1/pVI+oGiIv0Pecg42wqTlZeLYRS0VFLI2UOqiwtB9NXcJ/g2Zaxk0bi7Sx3QPzf3Ut+kdOMKqC1msn1YPQcOPuueatdUxGtitrYTHTsGXnGshXnlUdejecNWhhgGnYM8epWarMtbHy2Q4fsQP6rk3rq0iNjB+GlqCBrc8syPQHCTAsddKjlMcA77K0bn8Zuha+ac1FQ3IZlrac/mBVp50ap/SUWpg0NDGj6cDZq6M4Qqu83IUVMaen66mTuVX/ErWTdQOdUl07i+Z38gpUfURlAh+UxmXu7rZOs6LoLPy/nT91Xi0pRxXfYaaIxRHcdsFH1FJivmlwu88rnGXryk66c5LvmT4c06GlL2LzI2itE9TJpcS1nq7YJdajJloqChoKPBLBM//Mue7UmR7Zn6dLSWs8tBwP5KO9qZy80ahkbHwFya0vniuQCMZJ/kpdMoEPMlGp3R333WfTeK20hFRrY3pB2VvPVJ8nVi4flqpvmA6dQKz19eMjbR2fS1o0bAYC4s+vVLwdSUpgkGtuGeqe76l2I3OKaEc2nP2IS3ivevKO+ZxFUDf1Vs4R1oZFXR80Yx+i7PC8c/rjrQ26ta/DMr1M6jzfXz4fU0mRp7n3TuTguJrmuc8I6UbEWkY8lbZ0T8DyCRxcHHZcfrhfGiK5U7XDv2Xl+2Hqfx9sRebe8SF7HYd4AXH/j0ZWNu1tc0B87c93Nd6H0VvL1i+espUwyv1S77nGML0fP0UJam2xtJLpS9r+/3XXmp2BqeIQ1selmN9gqX/E7H0S1u5ts5T2ZdJ0nG6TzvNPO/mY+s2Ps34bVT6rhSBrxiSmc6Ij2C9n0/f18Z/Hxc6srUBQ46+PVgehAfJDTOPdeHdu6ZSbBhStMm1oU7QmwLAJYAgJNb7JKZPT7KbUDGAkumqJGgtwreZfpVgL0/Lyc29qxu7K9jxzyOLdFR9sqib2ZwHZAIq2bCbVBTPLkrn1Qoc4E4SXQWxxFw2U/piuSAqO9FV8sgJPoPQ0438qdrZFrINsqfVJDKmjAj38plOr5amOJmkHuhloNlzxNoBQWUxZXfLOViWtA8Nlkz3Qz/AETySyPKyqZgdjvmlx/RSjpmQV8ujooDg7Lr809shTSMmnc92+/lUtZgwqZIWU5AA7JZWbYa7Bz5DpC6s6LCt0U3nYIujo0zHOlDfdJa2RrLZSBjNTh9XZS3T8OoX0kBDn4yEsSz/qNbeKeX913CTn63eg7KrWcFah09tM4dtnt3S6dOEbpcsVIa1GcjWg8t0qtIx2z5VkpOmtoqTJGS7uUvG38BRUplubnOOwWfDc7F19U6LUGjoASKyMJdq+V8zsKucm0otsb3El3ZUkIvbKaiYQMHQDuui3kYLrp4qWLkxjPuo6rVNFHUOBcXd+wUdRnTOhtTJJw5w1O7pemG3Ss5TOTIOnt9lbzqGoa8IRMa8zv/AHQGQVX00nQ1+v09VcMN/dtPb7Iz/hZDOoqmm2GqzpcwdP3XNZ+r9ZmCvrK6YfFOLmZ+n2V5n8JK+j01W202wOYA18jdLcehUpmdLaybqyV1ZEG5fmXU4j1XXJOFmm2kpnVpbM9hjjA32Xn7/wBdM9WZvlZaIZXNz8zs1/6qmMdLd9O7Fa7fWW74ySf5UQ23xut9Mp9K57xBHWNhoy6SOL97n/Yrp8PL8/TWt1w9Lbqi3/HSQBpd0Bv+6j/JqmclV8q6GR2iFplw7SzT4d4ChjztZ6f6PoOHqyen0VtQDOXB8sLfyt91W+TIE4t4bljdrt1KA1wA5hHYHyVOedV++RTW1zaGzRUdNE3XNhjo2bkn+Mroz5xD6PawssFhpn08Ijqnx66l/f6uxWbzFJWYuUtEGRVNPPNUXGYaX/m2d4aPK4tVSVlDwzTmtEE79OvEtSXbdP8AAB4K3/jNcNKamv8ALdxb7SOY5wLIyf3dJDjGfcnujx8ruoaWScPTWqI07ZNDgczTM31+SXL2PP8AizMc+reqK+4XvJgtMrJGiE86Vu//ALK3XIrjyZSlZbKSWSS6vM1U/BGHbk/wn0ChrTp/qXV9NLeJhVMgZDTMGhjGertm5XPvbqk5H1G2U0Vr4Ro6OVpbKADLIO7sk/bZcmp1z30/SCQ1MMklVJUB1I52mPPf7D3S/CmdEPH9dHUWV0dMz/ubvd9TmhvlXxhsl6SUlWKex0zJ/wAvToPoVe+aeu9L7jcIvjGNg+hvV6o/IrnzKpnvqp3OzjJy4Duc+y5vT2dvn5cFU9nfIS520I2Pv6KP+q3PGjiooqCjFTURhsr9qaPt/NdXn5pa2PsNA7aSUZmkOcH3VdVFtrfqp4TkYdnwuTel8xC6V73OZA0dTu65f+qGVPJHSUTWk41dvuqzLSisqqiWp+jOdgujOSWmtutBkcHndy68ZRu13EF0htNN8LHvUu7NCb/CdZIzvY7mv65ndz6Ker1nEXPlLi/GXPRwshlarRuKqoPV4CpmcUkBcUXqKGJ8MTgHeFuqvjD5PcarmVDmyHVvjCha7MYQtdjdXSnmjlxDyVn0v8rpLbR0lQGtcJGjwp3Rl8lVq0twAGdgFPWmSJwZ+659aVkMombZ8KG9qTKbsBcmtqzKDYA/vuEhuCqS0yTdMbdTjtsi3hetRa+B5NIkmG39VzX+W3/Wnt1lbTtw0Jfu6S1eNBQWrWMubsr5wlr1W3ChgdC6MtxthbWYvWU+bQvNPUDMMn7slLpX6A19tiJy3sdwqefob56zk9XU26vbnU+J5xtvhd/jUNNfZ7k1+mQO7d13Y24fXPW2oasSNBafG66Zp5+8m0ExkZo8+FXn45/+i4GHP27psi0RK3DekZ+6l65UxSy4wh8RdpwV5nrl6HhpjrhCRL1eey8z0y9XOvxmuKKOP4R+dnAZb91zed/9nXivnVVVyfDGNre/1EL1/NXpKKF8zC/JDWLrzotLJnPa/oyPTPqr9TrfcDXEFr45wCWYx90v/XD6x9R/DK4ablc7cXZa4NmjH916/nruXx/8qfHs+gD++6yq/wDHJCvQgPl2v2Xz9dz3Xt2UrTI7JQ9Bwt4zqYfhYOiIzlLTiA3KTjVcmAl+TUI+PC7fHLl3+BJSXnAXteHm47pzRhdyNFRfQlHFNQ7CBxnK+Xf7JbWFk0wzhQoRgdlyjWdM6c7KV0Oue1pKjrXWBZQM7dkrflzW5wsPINjYMAJeGSqZ+WzCaE6ST3HVIWrWx7AyR0ufBWVQXWVPIp+62Ob1VWq5apMA9zvlHB5RoJ6lrmNaO/lJrS8n6uo7e6oGSPskzOuzEZ7i61zMZpIXVPxzetY2KndG/ZHejOVVwqC2Pc7I4XQKijbU5z/NVyWQNdKZkLsJ5+nU2KnZJUjPgpdHjS3HRSwtDfqSc626Z6oqppXEZ2VZOICbfCdH/KTTPn9E6Jc9Kkb4aOwwy8kk9yk0tIrraNwm5h8KuNRDcDPkMgxjsn/0jR8PUUssfbZabnTKG1O+K+n7lJ/YaYsKeI3wUsvJP3U+LyshWUtPM7pG7lX6LXjo/haQsb3Oy3EpeqaGFkfVnq7lPq9aNloBWuA7edSQPPhpopWxxHIGwWVO/rQWynko4+ZU7Pd2CjVJQdVTMuFX1nDPVNj8FOpiyms5p6U9R21LeXSNsLqO3RUlOamrOslU/wAjOwbJFHXUsdPGdMZ/RLnFparp7RHQVZdJlwx0BPvfG4M7iampY1rf3TBkkePYLmmj/K+1Wmai5NROwaHvBb6pte7Z4juLeJmtkNNDnDW50M8qOdfrLIwU1Fca1/xFURDFI4cth74XoeepwnG/s9vfa7SKesm008gySN+/8lv1LScByyUE9S2gtsWszuA5oHVgdwn9PWT/AA8jXSSQUNLT24AhjM6v4s+i4brtPaz9Q+4PqpRQ0vL5e4d6v9Vf+2c/CyWtlwdQT0dAZ7u7Nwq/mTPLvyjsEmfU8i/ii9mS3yNt7XvbINLY2Nyc9lXXrGs9wrw3X26sfdr5n4XGImu3wjO+skayWklulO+sr2CC1xgktPd7fGPZNbLG2MWK67Xa5up+FraKeGN3L+Ke3ZrT3I7qGPPtZ9cSuvBNosdU+rmuLZZHxh07JNyX+cH7rr/8ZO6t/wAVf9YQUrmwW2KOmYW5nlJ63k/z29FXO8YE87SLibi6mitc0AzPPV41TN8bdlmv5UWx/GrCQVVVGxrYdULc5LWn6h7rnvp11TzVTUwL+ZVN6s5BPc+ijvquctDa4n05Z14D+vQfbslz/wD0289jV3W/fF0UcfMJqGR41N7e2VvP3rln8asoaqaltzRXS8xzC50cXufKTVjpx4svc73WzStJOqMZAh8Yd3yoz1sdMxOKHPnnIaxpzjb2Kp/fU/6f1fDapQx0kwIH5nnyfZS1uujOYY22wc8xmJuXud1O8aPUoxOm23dp4ZgMJqKscqkp+o6ts47E/ddefPjl16s5V1Qu11dPEMUkZxEPB/zJrpNp7XSjQ2XTk/7KG9nkM6yYRxnDh2XJra2Si0VgrLqXO6jG0tA9/CM5Pw4kme4Bszcyj6WePuuvEL0xtFodJ8x2znfxLqzhHej2sqILRbpJPzY2XTmOTX6+azyTVdW+tqDl73dH2XNunyq1Ev23SyLcNqOl3a8+FbEZ8qL1xEynhdE04eOybeotnyr5ldrrPUVOhvW53YhRu3ZnAugobZa/8fcS18gG0XfdRtdE1CS4cQS1VS7k/JiP5WpKT7Csftk7uU6zlXQSFzsqenRDanAXLrSsgtr8nbsuW666JkTFTukx7rm2do7Jws+qcC7LWlc+/wCSzb6FYuGqOhjB0Au9Vy6/kWuPeh9VoPS3bCzyz1uNJ26kMr8lex4eFc3ttqKaiDYh/Vej/Q8/XoGrLXqOoBS1/Gq3n7s7xFa2Pt0rHDqGeW7yFy+mOOnz19MHS1+nXS1RGth6SpXzdc1wjvcUrwHh2wK7PDXCekGWSoDiMHGnuPVdkrnsamlrZIiHMfhvouvzrl9MNRbLgZRGdXUF3YebucaimfrcJQ7J/MFvEKZdLmYKNZ/D5KqpgaC0nK872y7vFj7w/wDxAGNwvN1l6vnSmto2VUT2zbnC8/eeadmNPml6ofhpJA0dDSu3x110SEXNe9p/I1dmaKT3GnDzqBxhWxpOmXDNa6C4xRgbSkDKtqIeuOvq3B0zaTjuHV0iojLPuvQ/iXs4+P8A/mMc39Prv5iPRVqeb/6vUoehYHzANXzlrue6EhnvLQHchHWceGNwU7RxON2nus6dc2Q4yjrXocCqZyz6VTuIGV6Xh5OP10FLenPlev55c1D6t8KtTEsdhuFPpgNbPgE+iOhm62XMgx+qlal0pqJwHndTtHXtG9zpMBR1WHUT9Ld1z2hRNUdWyQ0TZk490Hi2MboaIY7BWAqu1YcHf2VMRLVJbbqlrSDvumsNmtrRULdIdjwoaWI+InhuGhPlzbBWXL3nbbK3SnnGpo4BJNjPZc9XzP1vrRQRCnAxvhdPll02lfFdtjkhedIy0bK+suH0fI7kY4JvTcqfyWehPXQiVmU0NC2mrG07iGq/z+GDV87qh26pjLV9ipZWSF6juLQfdKkPww90sToWkoeY/J7LLWcM2xsaQ1JaJFukk4aP5KdqkjS2amMcOXnG3lTtNxRd6hkYx6pspahPTufK8ADyq9R42llqnQQhrW79ijWlMw1dVFjHPOxXNL+rcfNeKK59XciB28LpyOK6Wkdra4+AsZVV1aXOw1WiRS4v149Oyw5p+1DQ0O/c/wA08jahwxPNV3dhJzvnCX0jm1W34knpqYB79zjZqhwv0DslqbcjzslrM9k+pxs2KustDT1DaGM9S6cz/wBU+pxWuOY/4iX5DOpy4823R0KOlo62uLKWXETB49l2/wCQgyajo6ePn1VV9H7pp7lcvz9KPLZr1PdSTcwY1EHthTueEzq9N6upkngJIEbD06nHH6hT+euv6/Adlpqd7nPyyoEZw553Jyrf1IWtC4W50sTHUjRp7Pd6+y59d/40N+yqi4yyOqdQph9LQcA4P/CJNHkPKS20NOx0tDTiGfADJXd8+SqxvCq810DpWQwFsldEcyzA56lX+tOqIKqoravQJPmM3kbH/ul/qEqy4180sjPjXmGmpvyZ3P3W58a3o9t2jqo2Vdvlc5kIDRDF7+ytfH8HTygmuNXBGJX/ADBuIZN8fcbrc4/B0XVjEfMrXvkb9Jh7Ae+ETI+mN4m44qrbS8qncKeE/S2NuHFo/wB1eZkN89YuuvNVd6d0jnl2tpw13fup+nurnyCwUcEcQ5x5k7/paT2C5fvq0wHuDiyRmnqx9RI2b+iaKwmfIGPIBc6Rx8NVJGmlttBmjZLU53OWPf6j/ZFjYamH4eF8riHvzjfwFKxSAKg8hoeJOh+Tt7JenjNVE1TVzPG507tznspWKSPaWz1MzdZYQM9Oe5S/APaW2NoWfTrqAev0BSAyisdZd6qOSQcunb3j7A+4WydH1xtrJw3S07WtYPkN+oHu4ru8vJzenqR/iRfeRELDSP8AnzYNYW+B/CPdU0iS2e3sOiFvSG4y1c+lI1EOina4gdPY7rl9KvIS11wlmndDE3LFCRWQTw/ayyqe8u1Px9A8Lvxhl01NFapDMx7upx759F05w59aapvKpoy/Iw1uf5K7n3WJu1ZPdJpJpHYpI+wHZSvoTMZKvuY5hjjP2UnZM8GWNhkdqk7eqeEq3iK/x0LOVEd/ZP3i3lhgK6snrHiTV9z4SW9dszwpmuEdM48sDmeHJLG9JamtnqjmV5d7FJYOvIBg+6SsyMY/fCnV8jqdi5N6WzDOljJXHvTozDOCnBdpUerNNYrU2WVoPZcfr6B9Et9KyCFrW+F5etJ7o51ToZgLcRz3KNNTmeTJXqfx/JP11xpLfRtYAAPuvoP4/m8n19jzlARBej/U4/t46M6UXyb9kXFFBzKBzmbOAJXnfyvH8d38X0/Xxa50cUlZIc4e3+683f49n/SmeukgHJnGW/lct86NQNT1zY5C6Jd+b+OfUaK23aF+nU7f0XVi/iWsNJbLppOBhdnjt5/r5NbZ7jJkBpyT4V7XFrBxVXJzMNB38ri9fdbz8wctY9/3XJrfXf54JTSvmrNTvClx2T8SuFpJaSzbK5PXzNn0fMeKaF0b5GuWeV/Xf56YeVo0kHbdduT0rqJS7WAM4VpEtOtsZ5jXl2gjv/6Lot/CdfSqesfQ1NruAPMe1zOr27Ls/ha/9nzn/wAv5f8Aq+8RvbJGyQdnjV/NdW48bzv/AKpJFOvQFjXzVrF81XfxMMyl6biwRApfocT5SX6ai+JKFEkfosNxSXODseFsYsYSu3yy59XiDiST6Be14Ycm70NUP/KF3RLoaI9WSk1WcWzyhoJ9FMxDXVuxakui2k0k2okqX0iU1GXPSWgda2nmZKha01cHY2Ua3ivk9soaufhuPYLD9QiqCX4R1q/Wsb8ktbG5znBbmo6wusNDpqeY79E303OWsdIIoP0U9Va6Y+7F00uPdPmoX/RNppzEPZNpbEH0tdyqofdQrozP19Ctd1BhHV4VvPRto1spqInZ7FdUrm3Hyniq2H4wkbBLqpTBBUsIgc1oyUnVu8hGyhc+Q6hjKvNdZHstGWOCab4zQ2nnELMN7qWr0TSv4d0sutwSNz/prFT6WADCy6W+TKhs/NHMd4U+hdDbyJ3ae3hLTwTI+VruXvhIYLVURncM9k+UdUfR26KGnLsdSe1P5ajhW3MlgMsg2SaWzhK9wxR0kp7Y7KPn/pq+XhrZq8uJ2BXXG8MKqQRsyOy3hNFbJjPLsP5qkqIO4Uz4qoeq2G6lNbZq2aOMnSO6yj6a7hmyU9r1VMvU4DZT1SXzJeILqa2pw71w1GKnctRwnTVFNbS6Q4B3Cb13C/PWd5FVWX8uDC4B+NS3y0T440nFFbFarYWOAMsgwD/yqfP63rN8DfGTSvqBkUwzrWemj/IHiu/mvuQYD8tjtLQ32W4nBhtOAqSektUs1S0gPOWavI8qPqpIR8WXWeatADiyne4hrdwAt8JKzZz+H9JUmUwsbiD6nuOe6t6VKNnxBUUtLA2rDw10fS374SeWY3RZwldqy71DwJOoEhrfB90+8w2NNFd2zQUb9UoiY1mC/Pv4XH/lUtYGPhZ007q2srHw0Tj8prHYkf8A5iu3NnCVveGbJbqSncyk+mYZkm+pxH3QzgO88N2m4VbJ62rdHTsy1sbe7z4CM0cNbHS0tot0lHTRiLmbyPP1AeF0/wDAb22op7ZbZJWt5lS8/Me7tp8EfdLwcJ6usFPTyXasn0tkBMFPJ3Pp0rfjkLJ+vmldK++VpD+mnOSwY9Vwevs7fLKIpBQOEUbhLUfkHgBR5auCrq5gaRHh0jjiZ38CfOGApapsewGp3bV/FldEy2VZaaZvxOt5D9i57ySB7Dsn4bo2prX6Hxhup7/y52aEtNE4amGRo5hxjGWH2ScUj2vjp5XMDGgZGQ0Jfloiks4MRdMAwDq1Y8ei35N1e2n7GHqmO2vw1qlv8OOtlggn3Gcat3eSfVQ+fot22NuscbY9Zd0t8Lt8fFy+no8vd3prJaKitPaIERg+XnsB7ro1+J4/Xxmi+Jraya41eXTSu1OJ9Xb4UbTtfbafREJcfMd3XPqqSLbrUiKlI/MuLV/XTkJaIOfHrds5xGCmzlVsrPagw5xg9y/yu/Ecu600DWt3Iwr/AOOe1meML80H9nwu05+sj08qd2f+tkrtdHfDfCUx6B3x5UrVc+ZVRWp8sut/ZUmW6g24XmK2wctmM+yc3nll5Kr9qzZecRj6pEmtdduc8Z3iG8RRyupKQjQ3u4LIT02zpeXb53T1nXMAU63iyEnVlTsbkbTHJyVHToyaU65dunJtSkBcWq6MnVBpdv5UNnbnh+BrWtcvN9Q0vNDGd1zfPUrl5E/muXT5+aemltVKAwL2v4/k8z3306hZpxhe74Y/HmbGmXoAXR1Dq5pa5uFvB0FcWN+FeHehXJ/In46fHX6+C8TMENzlc3YOcvG9nveWmduz2SRb77d1z41yr1nmVckbnNx0+CvQw59OgraiOXUHdyumf4zrZ2O9RnSHHcqmNcc/pnr6Fw9WxOqjyyey6/r8cWvJqBy3dXdzvVcG9frc5Qe5oP0/qkti8VANbNrCzP8Ap7pY57pMs2yl3OsmmP4uoIXxF7h1N7rh/wA09L+PXyO9UulzuWNh5XZ5V1Wk8lOWxczSfddP0UCahjXanZwO+FRGtxZZWV1g0sPzIM9/bceq6/415Xlfz/P6xX3bg6vFbw5RTA5+WGn7juvT9Xyf8fX+5Ogud0xPCDPmzAvmLXoLGMOUtMta0hTakdkBB5QAskhCWm6qyHv2V/PKdq9rMDK9Py83N61BwAaXHyvV8o47Supdh6raRUxwU+ngWvqMNIz3S6pbWarJnF/dc+qnaFDsnCh9sRdBqflH0B1NHyyp1shiGhzQkp5FrmN0obwvnk6i3ysHHlA0vmx7pWwyMAbv6IP/AML5KfVNlCF0b0NNHHHnstUjy5SHl4HbCXTKQOYObqPhNExcVQyNuPJS2nzoPvztSR0402FjlLmAHsVXCtnWiPLZH7Fdcc22J4kgbJMfKlutxGbkoGb5R1tyWuoI+b0lPNN+QF45UfbuFTP6joro3tdLl3ZNrLZD1roy0aVDVUkMqGiMrQ49lK1aD6meSmhLY9vZJ1OoWWt0kuqO6Y0oxrWVFWXMHSUuj9X1VOI3DA2WSo6eyauVhvZP1jW2l8cVn6D14S2rZrD8SXaqc80u/Usxln+szDQysfnyrw7qvmPcI85HkKkStTewULRhuXFanVdHTPq6n5g6j2WdKaOtDqWTUCdfolujSJ181dEG68hrvCndGpbRUUTqrVONydgqecR02tNK19M+GMEiNpUt/tZis7HX3GOoJp4g1o8p8fgpfxDUyV8kUdVnX/CunLJk/tNXFS210NNCANBBcVHVahw3+GcVTWMudW7XFq5mnws/sH+PoFXTQUlO1jGBwzpY37pedb1nJOFRca1hrDy6VjtRix3wreWOJ7v61ba602u2yimiaWRjc7Z7dvul9dq5y+f1c1ZxA6QU0Ln0rDnldt1zY9L1mo1nCFgbZKaarqCGzCPpjz28q29UmYmTJdY/2i5phpXEhrXHIOPOBndGfP6/Vatfw9U1UcUj8Q05Gz3j8pXXJwrQCehtdoZQUzhpjHXUDu53oEd6AlksLJppJ7g6V7pXa6dmBsf+E8yGiuMVrFK+TS1lTH0ux2JHqm6y1i+IeKYqaFrIz8RVD6GDaNp8aii+sjJm1ia59ffKsVdVOWObsd8taPRoXD7e9tdWPLkeXK4R2+jYynwXAf8Asn7pMZ6f/Ct1fJMxvK6HPblzvIKtcngChttS50r3k8ju4Hu5NIYfRUdM97n4PQOgeMqkHDBgjh0xYGPqLff3WnkJZJnPnkl/dMB6c+VHVUkQY10ul7sgDuVnVJD6wQubUGd4Ehb2afRL9N40jaYT/NncI4gc6T/ZZ9DiyGibUv5zxyYxtE1vd3uls6y6P6K2BkmpnS3HZX8vJz60ZOfoIhZkR+pXXM8c1/a+XfiLen11yitYINLTfMlx5f4UPWrY/AluhAijjO4+tx91Dpzj4wNDRkA5UNVfMB3aSN+huoEuO64v+r5jScP0NKyBg7nOcFd3nlm61tK1uPv2C7Mxx7ry81rbdb5Kl5/0pd0mY+XT1T6mokqH7vf2+y5+umA3jq0j6h3T8Ui+a5fCUh8PCp1knWKrKyS41WhhLvVHXXjHCS8318DPgabpx9RCTjLog1b5duT3VJEq9Y9LTReJMKdUgiIpNVuYLjHoufVdGYZU4XPpfJhTkrm1l0RoLUMkD1UdxvW7tzw2FpHhcW/MdGCZ8nc7JJ4k1o5tkILgrZw5d6a+haGxhez4ZeX6UwjXq+P+ODdTfnZPEVzCAPsqAHfJhHQyO9AuP+TXV4Pg/E03OfO4eCV4Ppf17fl+RkpZA9hGd+wXPb+uiUqed3B4/ku3y9CaiTIXlupoyArf2oV7R1k0M2CPK6caK+h8JcQQsma178Odsuj6/Caj6BJX8uRmk5ad8+Fwb1+tnmaxyNljHv5TRlykado7eVTMTqpzJY5+nfKWqSEnEdBUz0sgA33K5fbDr8Nvm10onxx9ceDjBR56ehn9ZW4bDbYdsLrwyxn69scYAxnI3XRlHUPuCboIqt1L+WRukD/MujNcfvnuX238Ja8yW6toHbGklJYP8pXqy/WXxesfHo3gKgutHZa180blfK16PF7CgdEAtKXg68exYZQ9L9ADNlGf1leRHqyvQ8sI2jBu3C9fzw5t66premJdM/HMSzO+ZgotHA75wAfZJa36Jq+qy7CnraP0WSNy7K59aY9ZCdWVBT5Fcod8IHytYxHTcEtPQlMqkq8AjPZHB0sNXqlKODpjaS3nFZxkN6rSIdvRKN6/CUz6ZPsm+XJ00papskCX/HVi/iFc/EePZJqtsI559ILlXKWoW/tIl5GRsnuCR7Pc9OndT+F8a/Wo4auJMOSUZ/Hfn/D2tvOI8ZwcLql/HJufpC+sNRId8qOlcpfBcxhOEsvG8JrhSfDZc3uUS9GtMbdeZJI5d/jHN/0NRwSSO6VvorIdU1PLrDVxaPxq6WKSOm8KNppXtDTOrpzrGzUZhLF1xtDY3YGycSGvD1swwZGXeqno5ldLe3GQMrISxdQ2Ivoy+Ru2E7LGTq71JbqqSDV0Dwj+s2S6mf8AH1ZqCNh5Ka/h8vZGP5kjjjSE2dN1okpXA1ZJ9dleRA0bFHVVOJB0hZWLLLFJJdntjbkR7BJb1ny2NJaqYH4mp3f/AAqLfvgSrpGV1U90rNMcX8krZ+sxXcQWuG4BvKDgw6V2ef8AiOq0UFU2O1zSAaTKMjPooy/qVhTZoxDbKmuqHdGrpyr3jGetdyfcOKCA3VERjsryfi2bxpKitEd2bbW6TFjrPuubXnWSn10uxtfDUbI3OBe/G3fSufP+8PszsdzmqrHHWSjVys4z5I7L0ceKVquy3ipr4ambkh8mcbeEe2eRmastvBlTXiWWqmc0FxLGBcOPK6dX1+I1NDDY3tp3ycpp+nwSunP8f5qHTePl3SiLYWao8aXu33J90evl03+POfZrMYKJ4zyf3EPcZ7lx8Kvjnkb9daLlftLEj366bGstH0/phU3GONup2j4oUxlEbSGxOwG/6io5BdVcTGhtj5qqARMhHy5GHdxPoFXXrI1hqi/VNSx3zSyB+XvjzlzifK49+6mfPpPzhPH8LjDZXEyHyVG21eTiuaupaI8in6pwOo+GJ84b1TRWs1j3vmkGgO1BzvzH2VI0NXyy1Evw0ETYYIXdTvzH+LGE3TcQrptMUQhceUO/uqRvE2zsNK8s6Qz+pTNgR9c7kvcTkeXeUvVIHgeJGnJy0npyoav6pB1HTySy4ds1nYDz90nTtLb+RR7v7u+kKV1+m4aUFHJVyc6pzyh9LB2/VNC2tDQ0WljS7D9P0+i6vLyc+9GHxLYxpHdd2c8cutAL7dobXaZq2pfpJBEQ85KN7hcf6+M0fOrquStqT9bi4ri1+ui1obbKeY7oOkjIPhQ1+KZV1Q5kjSHedly726cwNI6oqq6FkQ6WHc/ZZFpW3sr/AJ4aQdtl0YQ9K2lHENOqTbTvld/+Rx1iOMblLX13w0OeTGd9PYrl9NK4jMVjnQuDW9ypzKkSLIoIDNKcPKvFpGVulY6pkLM7Hssq+Mk1XUfsmmkbjM03YnuFsnTarJODnyGRx6ym45kS4BH0Z7HuktNBHJ91O1SCYWAjKlpXMGx7Ln06JB0DsKZ4Z0oyp1aaayxwfS4+Fy0NNE7A27JPkto6lOy35S1WjtrwC1bPNzbrU0b+kD1XqeMed6GFPkrvxOOHYhwyq/KaXhMCHjOp5dskwvO/la47v42XxyqAnZLkAZJXgemv162YyzqdrXn/AFKO6vn8LKhvLn3b37K3jTWiqUYyD+noq/8AS8Uz0ruZqA/Veh47/E95/DG1jlTsfjfOy7c/sctj7BY3RXC3tadpGgLj9sHz6GET5Kb5blHO1LOncDeZFqHf0Xdidcews8dQ480tLdK59flUn+I1BD2g+yNzsZi8rAcX0YDXEdiuaf69Xx2+V3LmRvLSN/AXbm/i5PXvJYOjV9lXNJp1illivUErW9BKs5/Sfj7d+GlQIeJaiDsKuIPH3Hdep/C13PHx3/yk+fTr6rp3S/PKxMID5oxfK16a1pwk6zixpWdHEi/KzoUSSALONCSHKt55JanExep5Zc+qNYwYyvSw5qXXCUKlTpJUSgfdLay0qqqj6sKdqdpNNK5z1HVLItY3fdc+qeQUWjOyn1ReWDSjoehuAtAWefSDv7IBa6V7nkJgH0nmZQymtsmxIEtGafTO/wAPn2Sk3WcqH/OPoqRLhnbWEwqOnTiC6qMGP9FOtrPXGNwYWjsVbKVZY9NQfuun/iaFZLu3dEx+Hx/ra8K9UAChXo4ptcKSSUA+ifNS3P0HTU7o35dsEVsNhUs5eGhTpyu5Rul8bDuiE1GQuNG7W4AfquvG0eKqGDkjJbus3s8H0GuSpxjyoVRrYoncnGPZQoaLhixdDpSNzuq5ZXXK2ukqcadgillX02ilZp7OU6pAz6x0tW2Mb5KI3hvcLm+npOWNsBbWWPj3E8VTLX6vD1TNEh7a4o6W3AE9TglqgW5TtbT9J+pNiJaKGQEYkxhdn/Ej3kaqXVE0lxHhR00RwfRfCMqa+XIfvhpSRlC093rK+/Rxh50a8Fo7KmMOetNfa9lLRVWNgB4UdZV86+WWW3Vl0rnPLNMLXatZ7FU86XUbSZ0lQ1lE3DB9BKnZ+sy84qgm/Z8FnoGagPrf7p6wPwvw5LaLdNXzHEmvAB7+VT+3kbpdwtZqu63J9zla50TXHS89ifC3Pp0jTVfCVZf61gqJPh4Wf9sdtlPGe0310RW0leww2eywuxEcPkd2x5Xb98ZxorXYaKzUJqKh4idIRzz6u9lTvYOcMqarbDOKZjuibJilHj2XLc8WjybhikrKk1d3ILY+pnn+afNT4rvFSyhspitgbFQ//wCiUDc+w90T1PxlKbg28XSsZXPl5VtA6A7u5p9VT76WPokFPHQ01PTUf0RAAt/3T1pRxlxJR2ugmjknL3ybENUb+M4+Wm+SVbs1cpfBgiNn9hj2XN6adOMgPjY3OLYy3o/eeyjMrc4EqKojAiON8x+CSVWZYsprPUhvxdY4fV0xD6n+yeZYYzsmhbyC1mpwDpWNzlgPb9VvDwqdNyqnETMh3nuU8yePJqZ8svNdswNO3jKZpW+r5L3syO2PYlZa2QBDqqJNM5LN8lg8hTtUkO4YY2OaNvmbALOKNDRU+xEI6vJd/st+QLt9FMKkcxvM9PZT/r/R9NbTwBkWpx/T/hWz5I60Lkqmxw6iceI4/P6rqxlC6Uuma35k5w876QqaqVj5pxxf33K6mnZvT0o7eHLm1o2YDt8b9DP/AMp6gfRSV/06lqI2Q8tmGuAwQub0q2Syrl5FNrPgZz91yf66Mo8Ic6aSWrOeV6n1KtIbr6JYoWB4fjJPlX84h6U5v1y+BodLTmSXZdF0hIwtVdOWNm9Zzkrn0vmAYIzPN8TPtp7ei2HkI+JKt87+XFnCpF8wrmhZbrcaqf627sysdF/GFrrlPXzmaU7eAnn45N66HlcPC2lgYklTqkWxNcsPIMjznBU6pwbD0txhc90pF7FOuiC4A4qbYf2uAvcB6qdUjX22PQ3C5+C02gBKOJ2mNPstkT1TmheS9uPCpI5t1s7e3pb9l6HjHn7pzE0Bnuu6Rx6qxrcqpEZGnOyytjK/iDltrd/VeT/Mr0P475G+doGn3Xz/AKV6uCSpAEpJ7Fbz8VCVUbHAE/on8wCiLxkO8LpzOg0pi2RmMK8oWiPDxhdvjtD0jX8OXaSne3BxhdNx1w6/H0ikbR3GPWHDVgZC57/HPPYwjimpozpGof1VcZ4nq/QqkqI6qHS4YPYhU/r6jZYXXGmDBhmwHZQ9MredZK/QB9K/LerC4NZ/Xq+FfI7vTBs3bKvm/jt6S8sFzxp8f0Vc0lBxu0VMbmfSDufddEqO/wDH0zhSpkh4iss73YH7t/uCu/8Ag6/XzH/y/l/190Hf/wB+VfX+vPzfxJKd810lq+TunppDdTM8L8ICPPCSM+Q08mPKvIxS2XfC6vPKGqMg3Xpecc+qvkk0sXdJxG0guFRvjKLU7SWeYukOOwU7U/osqHnf3UbsgQN+bgqN2eCXEZ2UbVIIj2GTulNwWSNGUDgWepA6cpujhJPUEyuGVvAut8fMecrWQTNTNYwvws+maDU0mJEJSnvOzSfol4y0nDddRg+qdmb1pbbEyOPT7KWnVn/EqwtGwScLazN4c5rlSJVmqiEmXUujOiFdxa/mNHhWmvxsbPhGp0NG+y59u/yreQM5jAe6zOW7BV1N3wMLS/QOkHVhyWxXIyopxyunsVNmiCot79Zy3I8FP9JfJNWtDX6QPPZZ9t4bWG3l7taLTNfb6LXL1N6fRIGkdWRUUAYzufATwui6ouGljnnco0SQpjfPVv5nj1U+q5dbKacVrnnwdimkVMqkGaRxf4RZ0WMPdaZk9y6fpaU0YquLxlkDT27rZG2gKiOMva0uzhWxlLVeVsmHxQt7FX1fxHrV2yFrYmxjGotUNVn0CvNT8DSuY84Ls7BSsUkLeDLNWTVD7ljDB9P/ACq43xLUaGp4fqLnHII5cZ7/AHSUZ/WcudBU2aLlyP0AbYCfyz0u9r7BapKyrjnlLuW0ZPoU0n6jKbTWutqZHvpgRoPQFvpGwxr6FjYqe3VMvzpcax/qSaz1U6nu9h4bpILMzHPd9I/zFdPl5yC1LTKIop5Xcs1Lhhvr6JphI+ttaynuBicGyHR2Pj9VP0XkL+KIxe6intsLu7geU0++f6Iz0uv0xra6i4fp2mdmuRgwxvfZo3KuZXY7u6+0ckkDMfMLcejfdZq9EgmsgpaSlzOzLc6WsPYn1wkngevWaqoCNzunYsj+loHoE2vypShOJOInW2neyJ+J2jpHp9091yGzOvm15uzqyLmSbTSnMnsuT031058mfqZIodMUI1zydio5OphoqplUaUgSSuGv+fjKvwdMKWg5lW10uJIonaGP9XeQPstZ1dz+UJKucfObkQxHsB4/VPGK6uaWjpu+KuobzJWu3LQ7sEcPEKGB7GMqC/S7+e3qqT/D9Lrxed3RUzg4n6v+UtMQRteXlztz3Uqpkyhp9TWuf+8PbCmrw8pbPHSx/FzanSH6W/8ACaQNJQwx1EjIqfPbqd2ATfLOntFF8OTHp1PXRjzQ36LjzY3lukmV2+HdmBXmHPrap8srnZ+pzu8n5QnmSdKr9dG2ejfUOfrrZG6YYz4B/Mo+t4ePnNFBNLK6Q7uldqP2K5pDfX/Ghp4xlxH0sGGlS9KrgHXTzGYFo1M9QuL006JkLW/4oNp8nD0vlOqRq7HazTW+CnaNmkZXTxjc2qmDI3SO2ACv5xzemmWv1wdUV7hqzGzYfopXX63LPHXPU4zshaJ3SqFPTCMH2K2LZwQx5e90rv3bBkkprri3OPn/ABdxHPcK3kh2II+zU2YnrRMyUYwnpIkHZWDiWPZLwwiMYS1aLoup6lpSD425XHw8yua0o6tDCkhLlPrWrs8QaBjwl4b6aGnISfDKZ0wR8EowvDRlL/hLDS0zdYGO6pn9cvpH0C0t6GZ9F6fll5m9G/cbLq65qkNgnjHmfULKGY/EGPXaXrx/5049H+K+JVrTg6fdfP8ApHrZKZ58HD/0T4p+h5Jdt/0T5yOhtfnsfLV15/B0xoThmU/00by3HBBVs7T1kyo5cPx5XZ5+7n9PP8bjh65OjeB2Xdn9efuN9S1POhDvbdbrKE1+oPjxCZ4dns8f3UnRNh3z8+lLvzKFVzGYu8mY3hw7BcfpHpeD5JeZNVW/AxgrJXoTJHMSM4/mq5LqEpcTUlh6OrI9F0ZSr6JbJGilpJe8kL2EELq/i3mnif8AyWe4foCkcJKSCT+JgP8AML0N54+e8r+Luyms+dvLfRfIV6ah7wFhgkk7ggBJKxucZwnmR1U6Yn3V85TtWQg5z3XZjLm1TOHp7r0fPKGqFrqkgYyulC1laqpJf3U6napa/wCWT6rn1ogeoaO657oAZDiXIS1WRaw5GVOqSLhKA1DVU1cRtlALp6s61sAESn4jdPBT21YB1FFLkRcpAKclIzRJBOC8pkDxk2ab7BEAN0rY5gf1T2DMM2XLSW4PhTsdEqXxLpDudlNlK7o4PGT+i2JlXK1DOO6p0cL7lS9tls2JE7dVSUw27BFq+dPpnC9cJaZurumlXEXOeNhcCVqRFFU66rDTsl0vg/jYHAByk2o1McbYj7rKRjrlADUhw8lEDR8M07nJw1QYYs6RufKygFy5Jqka9wllZR1bQRCL7p9iRRZmwgmLHlHjG2NDJb6eOAuaMbZyragjEVtXI3nAHsuWX9PGZpXudVOLzsqtA3ST/Eks+y2ALTxuknyVfKOjR9n588Lz0tBVN/4kb2qASXnliToib/MqFNMjLzw0ysp+fI7radmjyp072trxbrL8LTN0THsB33S9JYZUH+A4fbJLvUSDUjrJOMbU2+TiG5jU7cHdifF4jY1UVKy2QShxDeXHsAsx6frLkVYXCHh19wqv3w1OYD5Hhdv3GEbZXX2pZURgsnY4Ofn0HZN6zvONlLrpZblcuM6Zz2OfCxzS5P5tbzjWibLamUtK9zJKRnM1t/iauiSEo/gagzaILhXuMj8Evee+FD3i3DK00tHT1FRd9Gouc4QP9GrMZ/GQO+3Nv1Y2qqyaeHdoGFuJ1rQRCjtFC79mQsc8dXJHd/uUmv8AWwnvja+41EFROzl0z8Bzf4cJvtvWX4w4tdFybba8PqY8+wjA8k+Sp/XWfDJsuUziZ62T4iSTZzv4j/6KXr6OnzwX11FUPYZT/wBw/ux3C58/qtr2CkdG1oLR8Vtyo/OFWYTtOay3QW+2CXP+Lm3c/wABzvATF6zjWzQ6Yp8xMpyZAB6nyT7q2YeLqSJsx/aU8gNPG4FkZ7vx3Cat4FNRLV1MtwnB+Y/oid4HgIPICud1ZCyR4Ol78taB4R03GephUOcXvP19nFJapIaRwsjAPcf7+iSmh1YqCQSGqqmbD6Wf2RnI1ptbdaZKxoqHHpd+7b4AG3+y6JhD+w3jpY4nmGL8o63YwFSYJfQXTU1PSh0z3ZLzj/4VsxO6R5E84kc88mPPb8zm/dVkTtBXW50Fvt7qt+0LCWt8cx47Majd5Bl8rvNynulxaZ365JDlzB+UeGrz9666f8OaSDlDmPGNtOlL/hP+mdK2KGgkkDMt91y7111YhBUVG73tHQewXLqOgTwrZHVcstRJ+7Z1A+6r554G2ttKTKB4bjPuqyfpN00vte2joRDEfmv2OFW3iMnWGryQC0fW7uudSQNTuEA6vqTxWQuuU8k0oZjVg/3WddeYzXFt/it9D8JE7EzgQ/CfnS7r5iZMv1k5cVZFJrneqALY5KZbHLvgoArv2S6VgimYS7KhpWGkTFzVaC4odRwFOqHlJSaRlHAcURDAjgNaWUFHGWm0D8LOEtEvfluFLUBtZP3jU2I5fV9FtZ6GfZer5vJ9DZpVkEsquWJOADcpaCDjGLmWuVq8n/5F6P8ADfDarpeWY8lfO+j1iC4MD3kZ3R5wwB8D/J+lehjISZAXEOP1eVX+tkMqRhGBlFxxSGkbM4CWUWJR5EvorY1+pbz+NJaZwHNy5ep47cPrh9BtFb09+ldNcG8HFM7qOPocEthcldzinpnaof3bu4XJuPQ8qz9S4yB4euTb0fJ8z4ipWR1bsHukjv8ANnKmI4IarZbqM7VUtRJM3PSQ7uuiIWN1a5tFr0EbjB/krfxr/wC7y/5/n/6P0Fw5LzbJRSfxRNP9F6vpXy3nDIqSr5w8r5L5epwBWSkJGlEtam4AUr9btjhXzC0TA70XTnCGtGlLH6rt88ufWhckrWx+6785RrNXas3wCnsRpA+U477qWk6Kb+7A9V5+tMC1T8DClTTIJ4J6lvXR8r4/3aUyiomDRjKGcJ56sibHhA4iXnVlAqL3gdSrlO6MaOv+TkHGE1w2Laur1UhUuMpZTE8z7rUeHAlLYu6fOWAquQ80Kusmi6CQmUBQ0eQ4fGWxNd6qHT2AJ45H4bjyjqRlTWjXA0Y3W2j6AXO0tBA8pZ/rZoufbuk42wqWtabhnLI8Z7Js6dOb+O4kq9LtvIVWcZq2XSSKr/VZqfima3kFc6WIEbHClw66dpfB7rLClAtbpOo+EMO7Kz4c6fVNKDmqnaxmT/JLqt4DjrYmnXlSn+t+Un3AzdjkBPrfWyBqSR7Zy5gyjGm07fcpXUhZnfHZNr0DL1MeiGR0vd26hNcrSH5TWu0nc+V05/W8USQwvhdJ5AT5id0Hom5OoeF0SJapsySSpbyIwdfhZrRJOo8PUlbDWyyvyO/dStWhhFcKk3qngDi5jz1MU7+k0cXWntn7VaZdnADpKXjYC4jvTKWDQMFh2W5rdZJ4bVVS2/8AaVtdifOSqVDi1sddcuXE9/Xkc4nz6hLnzbunHGFRJFaooaQjlANjwPVV6jYb8D8N1dLbxV1gGuX6SfAXfj/BnLTR2unfWRzxHPL2f+qQ3F9ZYqWrqdPO0Qk5mA/MPRPO1vDVtPExgpKBgdTgYd9ltz1WV0sFNPy6WnGmKDqcB4cP+U3PwulT7Q97WOL8yv35fYNCbH5CdU1MTgXR0jf8SWfWezPVcm7+m4xPENZcKW3u11TsPdoAB/sob9FceNY25QtYw8pxmnlcAX+5758qU26JgfbLPJTxvZVRb6el3jJ7JfrrbQd8jqKOniqajDHE6aZgOS/H9l0+eUbS61Copa/42ow4z/Tr7j2AXSXr28XL4i4QhkmqjjPyYj2dJ5Kz5bIVyVks8zo86QDqqA/t+iOK5VwuM3+J2+DDtEcQ2wfVB1t0ngY3rk6GO2Pr7JTxma2c1FXqcPlg9I9UlplzY+YW77MyTj+yS08PbHbo53mabOlu8bfdNM9F03lrsumH4iUZbnsfP2VsY45/TZ2HtYGtg2k/Kz2VEfpzpQ3PN+nO7QnlYIpqZrHCpqzoYB8uMquKXX48dUCuqMtPLpIwXSE+A3yV0c4jNdfLOKuKW3m6y1MRDbNaxijj8SSju5ef7evfx1+WS7hahdVVj66UZLzqx6ZSeWS+umiubjGG6vznspe+v1Xzx+AK24Thnwsf0eQuHrsxC97wx4j/AIvCWf6o3XCksQtnw4Ba/PUCF0yF601th0t5mdmjUSnzOI6vWfvFfrqHuO+nOlJ6a63E4SauZIHuGSVNWBa8s15OxTdVkKayqhoaaSrlPYHCyZ66e8j43fLrJcLg6YnLd8Lpxnjm3voMMBTF6tbssHVsbsrOGWNO+UcNwbAfVJTymtJj0UbFZR0YIXNYvDq3RAHLhlTsUMw7AwthPofTNygfRrRwe6bjOmjNkpeLNalo/DuyP+e3ZNhy+sfSLaRym/Zen5x4/oZR5KtxKJ+U2azi36hhNYXpTxNGZKGTT6LyP58/Ho/xLx8CvLnR1T2kdnFfPV7E/wAJ3Rcx5fjsmzTSdUSsIBXXhtylAwEgKn3WTI9lOGtyO6W7VmTSnp3FgPcpPrjbHVFO5u+FXOup2LqKTGD2wvQ8d8Q9MNlZK7X0A/ovQzrrzvXPG0p5RoaMqtjjq6oe17HtPpsuT0i/j/rK14Zg4+pcW8vX8a+fcRUQExe7fKjHp+emQq3CN2QFfKlZ8zzCd5kIIP0j0V5HPY13DZZUUMhccuAOyp5f+unF/LnccfdeAKgy8L0ufyjT/Jet/wDadfH381xokvDPmEs7Qvk3qlNZVau6XgJaiVmcBUkCEQc52V0ZynumtLGSuzGXJumsJDRldnnlC1RXTYYuhO1lLg4k5WXSVoCNue4XPrSfRYdgAei46pIHqG6lOqSKS35eULBp5zEMZygElTXfM9k3ACLi6TOUcBgxvy8Z3RYXQGpk7jPZWxEKqo6l3UM7JtKG1M4PiLTvlQoq2KNsbx908iNSqp8YwnkIX1dQ4vBWa0eGtpOuZgK59aVy2baPmU7MDOVM+gslDy5fYIc9MYHsYAMfSgpZcC0zHP6IBW4jUdkxumdmaWvx4Wx1Yq692qSp2DdlWVXhXFwoI5WuP3TWiNLRQQsaB2wkMnU1DYjg9vRYyrqMte3pCVgtkIbvjdACXOV7vKWmhXqcQG584SwxyGRU9GT+YreM6JtLMUzpXDKB0LcavlROkG3sjjWZq7x8Uws1b+iPhoKnY50rYz5TS8MOuFH8PT4HYq+EAdta1uNR7roLY1XDtNzrix2AGDypVmTW7Wk0z5n07dTSDnCnTlnDVtbr+Nqh8xhwzK3zT2dXy1QVsYqiOofmCT0Nll79RsmDI3DEbfqK5/8AqplZyaK1ucWf4XPSuqOP0qqkipbzFM6CB0dXFk9JwD6FdUn4n0ws9n+JbGaqPWyM6jq/iTefk1ro5J6lrKUs5UIONXsuvOTQzFsZD+6cWxgd/VFy0SWwNbE2OEOd/wBx/oFkYnb6mll58EAIkZsfC08dOIre0bdJBM+O6XdNSi33OtuNVLLE1wgb8qInbON8pZr8T4quNyZQRzN5uHkEyEb7fdcetOjGXyisuVVXVXxkzgyGEkwwE92g/UfVSrr/ADgqwxOkqm3Lla+YeiM+nrhZIl1sL3XMbQ87ILn4DYtsqk8yWsm62Qy14jrPmO0a++0Xf+qvgpLf+WZGvLiOWNEB+3n+qrBwjqC+GmiwAS/pidnf3ctp8xS6Wnczkx5fNJ9ZPssUkFVMnw8DKdoGvGo+wKG1mrvU8yQRsJI/NnfcqdNHkdJNpjGME/T/AMqVUOqK0OcWs0ku+qZ3j7Jpkl021no2DDIGdPoVfOU7tpqVjzKA/tGMBp7DKrIjRjKdsTXSE4/M8+QPZb8sX/DwiHnyDLu8Y9vdUmSXQWSKark89+kLqzmSI611lPxFu7qdrOGLXJ/jbgNVeW7aIh/bK5vb1W8sPnFe6CWaG2U2G0cONWPLguH/AGulv7NRspbQ+cNwPB7Kv+If7SycTVtbgHpAy1cfrXZkFLFJ8Xv+XY/dcjpytoKAVVxjDhnG5+6rjItfRKCzxtj5riQcABqtUrRNdK6moyxgxkbLOs4x1RqfJuPO6hqqSKamRkG2Nz5TRSQoqDJNUAd8rXRmMJ+JV+HL/Z8R6hgPT4HpXzxoAXQ4+rmLDpoDsoPBEaFYOhClRDSkKnVIb04ao2LSmkD8eVOxTomGXfCMwpzR7jKzUB5SBNQM0KYS0FR0ocWY/OCfDl9X0a2u+Wz7L0vOvJ9cm0Lla1zLM7rOtetkaD3R/YPlGojbNER3Cl74+sr+euV8P/EOhZT3AljMZO6+d9ccr2fLfYyu5jOnZQ+XTgvqJNJw5dWG17TnG/fKKIbR4LQcpFIY2+fY+o7Ja2ijUxPdod9SplKqDGYpMnZpXX56JTyyVTWSg5wCvQ89uL2w3VFURyNBHldk08/WBsm4z6qO4bJBWM/xWn+Jcm49Pzv4zHE1IOXqK5ufr0vG/j5xcGRSE+MKuXSylXERNsd84XRlDTU8GhzQ5p91vXJ7z8fcvwvmbJYiwO+h5yPRet5//V8f7Z//ANGwWsfGaqpIXyfHrcJqmr33OFkHAeoOf6q0hemdDCuzzwj6U4hiXbnDi1pY/Zi6M1Kl1fKS3Ca1K6JZmalz3Sah0WlQtL8og5BI8KK8USyDOEvFpActV/8ACON6SXWrwVvB0imqsHOVTjU4KgHuU3wwyhqWuGnOFmoTWi+pcdbmp8JLaGEGXHghGz9N2R8puc4Cg1Q+tDXd84VM1FCafmFuPKe1nyLjtzpI9S56aQ6s9uLZWkqPDyt/b4WimAK3h/8ASa/SNibnP3KOJahRR3Jj5i3X32TfBBVc1pOoeiU3yVgEyY90dZ8NFaaR3Nbtsti3nr9aKoga1mT6Kjq6z1bWBrsAf1WtVQVYPdAGtojWYcsBlRULodlnCrZieYGhbxjqmhD4s+fVJYaUnZRnnJc/620yFunqHtafpVOFP5bbyqDRGN8Isbljb0Hwt0O/N3U/o7C1lSI63Ddl0c/GnnDrHz1AkeNguet6YcR1UZYW/wAPhX802cp5wNHpnuuqEumwtVWI7a6YOxj8ynoRqLPUsuNtMjXZLO6m0uv93igYKeFvzHDYN9VOX9JuLpG1DbDCyUO58rtm/dFrJQnEdNFDSwROka2okAAYe5JT48uje0GU9ZT2U01XgSPHQfRPrzrnp/wpZ46aGOOB2uaVvWurywDSuo3x1Yhj2b+bHqr/AFwDp6aRtPGxjTreQ0b+Vv8AYbJ2I3MbFC0DmY0yZ3Wm4jUUjLdTyNgJknlGSM/0CIyl9mp6ukY+eoOZpnF2k9wPARNNlGXOE1Ye2M45g3z6ecJPWHmiaprn0gbSUbN2sIcXflXJ/b/wTLD1dRG2llhlmGX5bK/vgEqeotlhqi5QmpfDHHzzEeWxoHceVsybrRUdw5TmPmaW0+nHTsWgdk8yV7V3OVlSZHYleG6oPLQD/F7p+sV0lNUSxa3TNLndRd2z7LctyS3Km1VBkfJvGfp/K0D/AJVJT8Z+4VbZS9+nuNEIHgeq3p5kVY6Qwztmkw6L8ue/803ycsvNxa2WWbODISGjvj0CnaOAKKnMj9bhrPd4St40tDTGUiZzcRs2H/CT5N1rrdazysFoBk6nHz/JWzEN05ZE2DAph8z8/sqxGjIJC7AG8jvrA9B5VIzo+leXP6yHtaMY9U8F0M5Bl0lwxGOyq59ULf7xRcN2OoulQR0A8pg+ov8ADVPfqfzw+Fy19S19ReK52bjXnVIfLGH6Wj9F5+9ddk8xfBdm+MrPiJ26ow7Wf+E/nCb/ABvOI5YWUjaWLpa0dgm9aTyn6z1tiOt8pduuPTu4pdMwyyeu65+KSmXCFNI+vMh+gHGV1Yz+FtfTIoMxt9B3Ca5StIb7NmYsHZvhR1+KTRYyna+J0uMBu+FBaM9XOZNNgeqrlSBbi6OgoJKs92NwFtdOY+G36tkr7hJUP/MeyfKW/wBLVbrm/rTYUGWakG+XZQ1fG8BBui4JQUlyaGlIVO5UhvFJpUrDiYKjJwp2G6YQPJOcLIdordsxFB5THCLAYRKdgWYUrDSi7c/TKszeI+kfQrNNmJi7/LTzfY+hOy6HBYsc7AUt74pjHXRR6jnwszn6bq8EhrcY7K9n5wnXy78Ubdkc4DscLwv5PnyvW/ja/HzSlGo6TtqXJp340HrqJmd90Y9FuAY+h+B4VuCZHROfpKn/ANPDa3Ramf5kum2JyU7zUghp+62aS1GhZamz0wOOsDZWxopVI2Wklx9OCu7y9E9461livDXxtbnqXoedef6Yaqnm5rAcp9Oe/hfcIXioD8bLm3l2eeyXiGm10hOM7Erj3+PS8NvkF0wyV7R33VPN3xkZpSyocJPBV5EtZbHg0w87GfdZqccnq+v/AIXuERrYR2LtX816v8e9y+S/lTm27L+oqqL4fXyr5N65FPIHP3KeZLauoo8yDyCujOE7WnoqbAyu7yy5fTY7SuyZcyqbAZ3TcLornaSp2ufQeSIAZXLawvlGxPopWgpqKvlRnB7pVMlUlwzJjUheAnVRMyACuZLt0AjqPqx6K8hkGS4eB2VJGDopevZLqJVfMx3dbmJ0bQ6cgpPQdNKrqp9vRRh+s3UPcJS1UzEza0wGUDUOyXVbGzttM3S1uFC1ThtDStjIIU+jhm2oLYw0I6pmM5xHI/QQt6TcY2jq5W1haT5VOpyNm1zpadpx3Clb+qSIUlPiXU/tla2xoqKeOOVudgthcz9HXKtbydvRP10xjKiqEsuB4KOnXHZmeyOg/wCFKzmOLT+VbKGxkp2lmoeiYtBfDR/We6wpfcq0RtwtMUSTyRMEp8lZ8g9t9zYaYPH1ei0HVHXiSAl+yXVbGK4mGurdg9Kidg62hc6uyN1W7/Gxs+HaHRSF/YhZJ0UnvceZn58lVyQCaYCMNZ3curKOjKZjqO0aNWdXdR9TQ0/Dq41XxD6J37shRyZoaeyR1nEjXP2ji8eqXzndA84lmjo5IXHcDBA9FfWU9MfdLWy7X+kuBcXxwHPLG6v9ItRXWiSvjY940N7BvZVHGn4fsvwdFzJsNP5SO6t3sPmGNLQU0mZZBn+6Sw3E6qCHEb8/Sdvv4WRi9rAwB/1u9VeMRlaxvz2nr85U9jjG/F3B3EwjDsUzgX1GrxjsAub7HBlxvtNSxTObJ8zGO+dAWa9DZjJ1d1khbJWP1OlqOiGHPfb6lFWRk4KOruNZoecwF2ueJvoE1M1TeGrX8PHO1gp3tO2n6v1TwALhJTsd8KyLm4O5H8PplMOEF1rI6dsbRHpDpQxwHomkHAVfPMGQ6RhshJbpVPkFNcJnwvLj095ceiOKQtpacTvE4JELXaWA+nkp8w8HzVOikmkPSyMFkbRtuexW6rWXEDpX6n9v4T6qJo0Nrt78tDN3P3k+yOBqaCmblrw3EUX0j+I+SmkLa0lIx7hzSdJk2GypIhqroIJi58UJ3z1yHwq5ylaKwwgUtOet372UKkyS03tcWS4AAMi2JVZCU1aARkj5fj9Fm9EmXxL8Q+I/2/xP8NG7/wDibL1yb4a+X/dcHrt2+eWLlM9wrAwdpX5I79PouZ0dfUOH7XyaaKOnb4611Sfjl1e1G/tZHIWuOXNG6597X8sF8UkMdKT3JHZc+q6iWY6cOH1PdsEuYH0bguha2kBcMZwT911QlayeQRU8ju22y1OsSXyy1bi7cb5KjuGyjV1IihewHAIUZHRkhYwElwG5P90zoxHz/wDEziGohe2gY7DT3R/q1/HzZztiqxKqHbKkTr1jlpFjd0KJaUBAlyAtgkcDhFPD2klGMqVUhjHJlJYcdTAa1OxpzSjKTijQW93SjgOaUooNICpVgoAYypVuVlMw81IzTd2M/Lb7Lu8nne0aSA7LqcFi7TqCnrPTZ/FsfTsE+PwulmfZUTrMcbUIqLe7I37heX/Lw9D+Lp8RnhdDVafuvL1HqYV1MTiMjdRk5XVALaVwlyV05rRfJ22Wc/Wm1rZgJNQWnkdOD4z7rJE9U4omFoGVXKfS7iO2g05qGDfGV0ZvB0gs9zMT+W7YeCvQ8do6830OwVPNA32C63ne35TWt6m4Utw3lSW4dVM8afGFxekej46/Xx7i+3cmUu7at1mK9LGmBrnNJw7+a68m00/BAD6hxHZvlLv/ABx+kfWPw3qn/tasiPbA3Xp/xf8A6Pl/52f/AHfRTL/VWrjfEK6Qbr5R65O5mp66MxPR5Z6TOM+F1Zy59aaWGMaV3YxxyarpCGDK6YTpdPLlyXVT1tUufSNoSodpYue5YR1lSQx26jTcZSvre+/bwt4bJXFMTKjjpzEyTzkvWceVbmlqaAjqZGiRdEo6Fmfh4I8Kko6PpHamg+VlhdZMC/LQslQqyCTScKexw/hbzqZRMT1tIOcBjfKf7JaeWiDEQ23UdVua0VHJvso2r9NGucQFPphMbs4z4R1spPxA3P07rYXTGNoZfjNWO5VCcbq3QH4RmfRLYbqFTG9p27I63oIVcxn3PZHTZz+tDGDNTD7KsivCR1C2OpOTsUcMLqIW/DEtRxnVnDPyJC5x8pucZ9PpdDirpho9E2f1pdeWOpmafIWa/CsPda90coc49JWytD1vENP8KIWbn0TWgRZqictBfs30RchqOZ/hhg4Ud/4bLP12t73ElS/w/CtlJ80OIyVnetaWKJ9PbzIRhq6MFtZO61LXyn075VM/6yl4qxr+3ZdEqNhqzNXRiNwLsHISejctZwVBDSF01VHyzjYqUpmpqqmhpqT4+Igb5J9kn+UulrbfT8R24VYdmNwwF0zz6n15Q0FFbwKeINy3u8quS/Qh8srnNkEesA40D+66f9HTek578/E9DNtDU8nBKMig+aXNPThH+tS5bpXgf9tn+6nwOllDC4ZxgZH6J+gFLcXT0hla3PL7DtlJ3pozd6q2My2FmXyM1yv/ANsrj9KaTrD8R3Kpt1ra2KMOq6wOJ1fl09j7pPn6PjJDYaqsiqP2ndajmGT5bGeAfGB4W2cU40dAKe3Mlm16ef8AU4dW58LRXvxFe+lM/OaI3HTH5P8AJPIzgW4OprdRPaXB0haC1rvqJ+63jWYqZRPUExYMY6vbUR6quWl5rJI5sOk2ZkAj+L0VGcL6ueSqf8GHFrPqne3znwifpjFumKBg0Ya3EQH38qn+HhRxBcv8Q2gg62N/eHt1FQ1rpuPbdQl5BLdenYn/ADLJ+G409JTvjiwG6ZHHDfUeq2MaCx0skkjj3ii2fnx/yqcQ3poGw82Vv8P0tb6BPIjrS34XlsEEO8pJzv4z3V8pdX8rkRthaBzpT474T9Kb01PpYIgNIHf3WNIPxK4oFg4bl0H/ABdX8mlaO+o9yub20t5x8QbS8uFlO92ZZDz6lx31OPYLi0vP9NeEbXNU3Y9OfzavCbyx1nprj61SQtpqXHbl7k+vsuj0/JxDH7Xz681rp66UnbK83endj8BRy5dp3Psp/Socyia5QwAfSVXDOvrFgBbQDwcBdMJa8vtbJHTiHPU7yl1rhZOkEZlb0g7nuo3Z5Cq7maWYMZ+qTq+Ys0cmjL8ZeGrd11+T4vxnBPU3V8z+wykxs/phl3RnGFaaS+VDwrRKotWlWscg3Vg3WdPx5gI6OJZ3yg3BtI84wl4Y6pn4S0/TSneM5U6Y4o358JD9aG3jt7oHTqEJbGmEBwp2AwjGQpWNginb8xSZY2NkkAYAuvx04fXLT0/05XZ15+hLVnSpsOXfZPIyr9lXidL7zEJaSRuPylcX8nHY6f494+F8RU/Kr3tx2yvE1HtedCQNboyVDf8ArryHcwayq4puPWNwqgfS7DZLqFaC2ybbpeE1kzaHZGOyaRP5FOj51M9jhsWkYTXTZHzGvaaa5PaNg04C6/DZ/luODbi4t0OPdeph5P8AJy2r8Fuco2hjXCurDAx4d2XJ6Z/Hf5bfNuN4hLFqDcbLmn+vU8a+M3LW2ZzffYrvx/i+mo/D+okL5NfnZJuOT0/H1rgN4/adTIBjZq9D+NeZfNf/ACH+t2+YYxnsr9ed18brmd8L5aPYC09OS9deIjutRbYQ0ArsxHHumXZi7I57QdS7DVSJ2lkji6TH9VLVTq3UFz6pKX1Z6VPVEZq5asEZ7rntOyNVnmnPlUGVVNE5s3fKHXkQ9zer2SyN4V1NT1qkg4SVcvzO6tIXioSa1Tg4YUMmwCymsNNWQpp3zWw55gS6T+GptLenB8qFHyJqbcwnWltZrKdKGsOElrc5OqKEdLgPup00PG07cDZIoiYnA4Aym4UPU0Jm+oIkAeKxRtdqxunKbQQsiaGuWVqbqWF4SHkIa+nhp5Nx3QpIZW+oj5ejK6MHVXSkdjmMW0Ess87YyM9/CIWrLdPNoOBunLX0Hgi9jTypnYI8KeL+qQy4nAmaXs9E+yPml3hlI+nyljWefTSMmD3dgVQN7w/AKyna1qYGVwhkp9MfgeVz7NkvEPOl0qNVET2kRs1ox/rKcCn+Jtgh0+F15iPXzviWhNK9wxjCbMOzcOQ9pd2VoSxt+EZ6QS6ZBqARsljUt4msbpJKGRuJXDSzOykwuvU7YrE+mbl0rjpaPYqXpWxveEKOWh4epICNJLBldvj/AIyx7W8O86vbK1zmju4BVmScMquCRrqeKlAABHN23wqQcEXF51tjDdRz/RbdALXSyx4DD3w0Ae6l9g4hiawxgA5cB3/qrT/Az96qnOqTR0QJqJMtPoue6/QrkDKKkbHO/eFruaB5JCtKOsdcbpqozq6G4z1egXF7/wCreTKmKov9TFzQRR0gOHed+2pN5ZUn4aU5tMkhZTxxnlf+IDhkDA8LfSN+jK30shj+JqomNhbvBF32IxkokZ9BLy9lMzRExsesfLAGd1SQdZWvJlo5ZqkYmb/F6puNZyKWMh8bXdup/junkDypETaQux9XTStHfP8AEVpolTQQRxRgnVIf3gx+b7p5Gvaq4xRse6R2WxN7f5vCXemxl6aKSomdI0ap5DkH+6lFY11uoejOTy4x2Hk+qpYLTy2xSSyA/U47MB8e6zESta2GnEccdONg06nPH5j6FW4jo0o6PLnSO3J3+3snkSoiKmbEXzO+vwfQKkLx7S0rQ58xOqof9GfA/wDhA4aRAhrf4jgfqis5+vjP4jXJt34uMOv/AAlnjOsHsZe+f64XD6adOMst8ypOrG8m32XOd9I4KsBjpXOxguC6PKJelaW6kRWyQkYdjCPXTPKPlNwlBq9iuCx3SKRVNid0jUSp8/VDLhuljqK/nPb1Aq+YSvp1CGspR7BVlTpJfZuZKMd/Cl6VuFdNGWU0k8g8bKSsjPQTvqK5+e2+EOjMG1jmRQFh36Vye23b45fMOKYAXuIGPKjj0W3lhaqIavRejmuewBI3C6M1z6isDCozj1oQOLg3CUztKA7Sg6+lODhANIJMJKaGlNJlTqkaCgdlI1prfI3pQDmAgrKYdEVMDYH5S6hh0B3yoagaSzSHYJ/GuT1jX0OeUu7rzNwS6TS1JdNzl7G/z6qudDWV+rIVs6R1lGbDozn0UvWfh8PjXHNNpr3kDuvC9f8AXt+P+MwwnSQFz7js81WXh2CP1TZV495mCNlccHUsrSEtLw1pJwzfKVljQUtQx7AB3TJ8XTzvjGAl02R894g//sSceV0+FV+fw14ZrAyceF6/lXl/yMPpEMhdCHeoTacHyBrmgt3Ozlz7dXlWW4qo4H0JHt3XHf8AXqeNfC73RAVBwOxXXi/jptP+BKQRvfkbg/3Ruub2fU+DmcueeTH1Y/ou3wv4+Z/n/wCtRLOc91frzXzmeMFfO5y9i15SQ9XZdmIj6U+p2YauzEcGtiX7MXV8pWFlU85wjpLAT+lRqfVZmwp3BQtRKHDC5tiEVyGBlS501rI3HAkyrzIzQsM380XLrxTGjonzk7d1syq8q+G5fq0Kkyb5Zi52GRhzhVF8yoQyR9wt6XgiCUNwlo4awTtf2U6bhjAG7O/oktZ8HtvqcFqlYXh4ZdcSnYnYBe/S/ZT4Vo7RKHQjyjjP8aOEhzAceFnyPpfyRj3WjoeVwY3LkDoX4trs4OCFjANZWvAPr4S/R5FtNXP5e6xv0FrPnOGrdNxXKprXxzN0dirYM0WnXS/oqXH4GddCwvcx2xzspdZwRTxtjIaAN0/1+MsDG4uoKouaS3dTn+j6bC0cS09xhbCX5J2Vv9ERuFqLgXadh2RwMTc43NlLdO2UdY2HBfy6cZGETRpF/ElXiUb4XP67/TyA7S4vdn+qldHFT1ErpWscdvRN5FrQuDoLcJGjsF6Mx+OfT5fxBUzVdQ/bykh8aZycxsbod9QVJTGlsuNXbYDUsj1scUa/R8j44ZbrVxVcbdJJyoWM4+l0djEracStBIxkd0f1fTG6ipQ2nYO2kYC7vPPzCWrY86vc7YV4SV1KwMqX84dWNv1W8M5swbNiVvVjb9UtyxluKI54quKePURrAa1vbfyVy3P6ONJUy6aePRJl4aCfcrot4wnIlBNUcB/r5BR/Uwuucc5r26ziIN1yyHsR5Uqyx894zukU8roaZzcPdpAbvhpKTU66fHL2aKSz0LaCD97UhuvfJ+6rknpf15RUppYOVFHrc2bmTP8AVn/yl2M560NNU1VRA9z49UeNGBtpHcHHlZKazhLc+ZTQZrJQ53eDG528EKkbxkuKnVYAkc7InA0Abf0TGySUrQ3m8whr+5d7D/lb0/E4+qUS46pv3LT4YPKP+hdVuZBCJAMSeT7qtp+M7cS8vZGN9XVK0b7lQt7W/J9bbY6GIOwOdJ9H2KfOTHExFPT8rbXsNvKLr9ZWgsMEcFOZJv3zhiNp2wP4lTOUq01vp8xtJOQd8p0dHNHGXdu3n/ZN0j2dhdL1D5TO491v0HscbXO5mN/C1nULxXQ2yzVddM7QIGEt/wBXjf3KN/4M/wCvz9cJnkHmfvqtxqKlx7gOOzV5m67Ia8KWp1dWMiDSMnPrgLMwuq+yUkdHb4dJ7NbhdM/HP1lOK71GKZwb2d9LVD0rp8sPnEb9dSXP7KPHRKMGju1vZSUaXheNpeS1u/qrZTrYatEB3T8Izs7i+t75GVDZswXcZmimEGcZS8XzCWOBsOqXtsTlK6c5Zaq4nElaWathsuH267fLhHxBUxzNLgufFX1GIrWguOPC9HGnLqFszfC7MubSnQq9KmxqOhMDKwOwUBF7tKBdLad2+UCaHROSLcNqRL8mOqKo0jsk4ZpLZPqx7JQ0FN2zlZW9MInKY6LgdhFpxsM26jqN409kzkH9UnneVzerZ0Tjy912debufryefLsBQ1v9UzlbG7pC6Ml0vZlXz+I6WEZad02v8JP9fMOP6Y84nC8T+Tnlez/H31gYX6Xu+65bfx34TnIAz6rMOgG966ZArjqy12Am/rKJ/bLIwW6uoJL5muPw7sl+Dsb6lnE/k9fXCRwwk02ZZHiFrhWa++VTyvFKFt1Q6OUH1K9fx28/2x19RsVw51MGnuAuj/Xm7gmuAIAClcqecKL9Rh1ET/lXD6f69Dwr4dxFC5tW/bYZVPOu6xfwdNI2rc13Y43VNZcvs+s8N7CUrs8Z+Pmf5/8AppK85yrvMtZDl5dheJiPV1RMMIC7cZc3pofGMDK7MZcac0mG4VOltLJnajlTtTtCTnCQhfJJgZQAnMHquXcGSK9VmGKcg0xlxrQSTnsunMNiLLHBJO/J3RqOzEfVeF+Hy+MdPfytkdMy0dTw1By+2SqSKTLH3zhdmlxDBsg3ywV0sRjzhvZa3+plKyIxE7dltid81FJWaZVOxPjQ0tWC0KdjbDWmmORhTsTsamgy+AeVGlsSlpCTnCROw6sdO7ABCE61lPEGxhYRz5RkDssMCr+qEYH6oBAXObKR2S0QVPCDDnuVNR7AGiPCaFA18vLOfAVFsJW+pbO4BWxDtZSBujSdwun5/AVXO2OFRrb9K5tZC6jtgdAXH6husjKzN+Zre8M/UJ5CM1ZLvUUF0aHuOhruyfhsvuNrrILhb2lrsnGQsorL3amgjqjzBupsNLU+GGJuD47Ih4HvTRUTsx5K5vX/AE8XUlvlhjJ8FLqGSpqaaasyW4HhX/jZ/Sbp5fqttLbtGerGMfovR3eRzvmM9Wxsji7fK5rVZGcq8T3DPZqfLT+38udvwp+j0VNZDX2KwiPQ2I437KUhbW9jDaaNocfngbBdOOJ2mkNZMKfmSDLlu2DomkhlQ76fRW828c6sc6N02AdLsY+yp0BaO801wfI0fvGHDgPCy0PLjR89pzs1v5ip/ACuDppY4mf+HAADx3903C0HLWwy1UlJHGcxbnVt2Rdhi/xA4gqoeFp6iPOC8R6B3PgbrntbI+XWOpiimqHXLX3aXZ8HvgJXV5T8fQLWyqu0lNUN6qdhcdR+r2BSa1wms/p4ymp6ZsgizJJKcSD/AIStkA3S5Poo2UzO8h0ua3v+qpguv9Zi41bI6mV1R3a3DMn+qtFOM/UzyVVQySXODsB3Gnx/VPIIW1UQZUGLGZJG5wNwADsCt4Y3pqAcg1T3dTANJO2B6BPP8BTVyTVlQ8jamgBdKT6+AFPVPFVltsk8vMyCDl73Hx6BZnJmkpYhBC+oOMjpiBPc+ypQ9s8ArrlrxmOMgNJ/OfP8kuZ0tbWOmc/ETAOaenJG4wrp0+pYdJEX9kvUqcRRiKLb/wBlZ1nFThzCG92juEdHFhLWjOnYdlSUlj57+KF4E3ItHanj/wARWj/T2Cj6+h8R8kkmmrKp8rhs92Nv4fyj+S5f9X6+ucCW5lDQ/Fyt+Y5vQrYwjrR7VCR0fMccDGcJ9FzHzziSaSWp32Z4XH6V2eTMw6+aR4z3U7fw8/09oS34d7MZcOynFa0PDUr2Zaex7K+U6dXCp5NL6lypSBLbbxK3nHcndQ0pA90iIlHlK6sxm+LLq23WeQ5xI7IH6qddOY+KsutS2pc9zs5JW6zLC9sGPuhkZguUP6Vs+oWR4cc+qpMstBytycq+aSxVoVOp8ehuEdHEw3Ccce6QgcUyxILqPYY8eUDMHx7JFzKkegGEbyFljOtHZ5M7JON61lIcsWWHHxOU+AXAQfKyw8F07uvdTsO2FicCGlc//XNtqmSBsSrrbkuf0MyQvm3UZrtP8mUR2Hsu6OXYhhVZUqubjCfpGM4xojM0uxsvI/lvW/iPldbAIZT91xx60yV11W3ZvYp8ZULJrgG53XXnICsrdT+lWjOo1UFTzdXgpNL5N7FIadhLip3Lfk5F8dGc/UPRJcD5LLjfY6uXS3Ic3ujOWXKqhmcZxvsF6Hk4vXLf2G46QGA5cV2R5nrhrWtBgLj/ADUtJ4v6V3CZvL0uOQRsuTcd/n+Pm/FFic7U8N91Oa47ZrpBZaZ8VdjC6JpD2fWbPoFE1w2J7rv8v8fM/wA//V0hyVV5dJeR1ZXlYw9DWl8ceF35y5N6XHpZ6royj0PM7IU7U7QTwp2ktDVIwVn0CaskwMJgWPmLRlc+xGZvdRsR6IzlvOsjOdTiPVWv4tjLdcEWoPxlvdJ9ddeMvt3DtuZFSA4xhO6YJqmMGfZb9KRnLrECCMI6tMsRd6Jhz090dVkfO+IKBwL8BP1PeGPkaYnk+iVyaybW2qy0ApKXrQ0Emp+lRpW74cZrboK5tVLR6yj3xhKjdHFtpAwg+FpKOq5hGzpWUhLPVu5g9FP6MYscJKbCZvCitp/mjA/VLa3gjTmDGOyQyiKJ2SPVMzhbd6d+l2U8qmaDsuqKYZ9V1YUbOmqWN7rqhejKp7Xw6x4XJ60xH+3NLHRjYqPQQS8x9S552a5PkljLXqB0Nblo79lYRqeDeJaij6JieX4WUzQ3e5U9diVh++FO1vwDhuEj5WMj7dlP643jTxCJ/LDx14U/9phtwrYaSJurp2RTBaS+00krWxuy7C6fCcQ9NCKyllryS89ICtv9SjH3KCmjmcx2Gnsp/wBa2b0hmt0bXmXVsqYMjYqhnxJLvB2XRb+FfRrdN0RStJ6XLj16frPlo7hWl08MkeTkDKpm9JrDSUTnOgbq6tgcLus/CwzqJDLQjl9Iam5+NtLm/No3iE5cSceiQvXWG1w2xskshBmkOXOTNLONrlWRWOqkpdi1pJkOyNa4y0k/D+trjwnFXV5wdZcAe+PVLdsn6KuXEFNQ0sk1aPn1RxHp+r2XNdHmXy7jSsuc9HGIJMQSPBkjcOx8YS4p5llqWMiubT1Due6pdrH+YtTddGfyPpFkqIoo5omVDYMNxo/zYS86W0Va6mqdC+LV1Akuk8n3CbhehKmR8dPLKW5e7Zrz3/VPBxiqsiSt5JBlj/7kp7A+ipFOg6qolp5A2QgBmwaPQ9lSViFDTl9Tpa4P1n5pG/vpTQVdxFcOTBHRxnudLh5ys2MfoJtpqIqGlgmcQ6Yl8p84Pb+yWRQxt1EH1PIgBjpIBqqpf4seFUXS26VjDNp0/I+ilZ5yfzKWq2VqOG7UKSnGW/X2z3Hq5U8/yM01dFGcuqSA535fsntTNoGdGQOrvn790hbFksukgasgd1g4nAgtRr6mOmpZqiQ6Y4W6nn/Tv/VN3hZOvgnE12nqRUVsx+bcHnDfSLsP6Lj9Nfq+cKuFLLJUzRO7sz9P2OE3nGej7G2mEFvaMYxhdcjnC3aqdHC0Dq1NUvTRsf6+dcSy6RnO7uwXDr9d2cklO52nP5u6TSky01uopzA3T9bv7JMmsPLLSvFSdX6roySwXcC2apbCPB3VEqbwMFPSkdtlKxTP6ztfK505Hp2KlXZ5vmfHdbLcK/4OLdsXdT9Lx1YjIV9hlazWAo+ft1vpggLJInEOXZK55FjHlLw6z6lrevAzK3rfl7ykdb8uIx4T/ZeI4KbpevdIR0WO5aOiRewFYcXSnBwgG7G9GpNSmloqNL8FTobW3P1sS9N9DnPDUphFLMDhFPKMbL8xS0dsbFJmNuPHlceqncNGZC9gAUtbRuUouk5ym82Uwif2Xb9uPeBbXdvdVzUbFVVcaekj1SvDVuvSQ2PC6fPuKvxBtUbHxMfrf7Lzvb/2ev8AxvD5fK7jf5K2oJYdIykx4PQ+i6sFS5urVlWnlxn0zte6pa/fOFbMHRdmbI+Rrj2C6JCajXBsT4CXd8LNebcev6XRTDmOAcpXzdc0Ppwc9fYrn3+KSKa630zPnxjDz3U5o2gMMz2Pz7rt8q4PRorHdWsqQSd11zTj9MPp1qrmVEGnPcLNRwTPNA67Q2oAIy3wufWXbkovsHxFM7T6Lm1lfGuENqtMTHF7h1FU8yem21tlPppQPRer5/4+b/m67Vr4FR53ClrAVx4y6N6WiMBdfEKpmdgYR1OgZpEtTCGXPlTpKqqZBoRI1m7hLhU4CSsqvl7HdQ3GM/XuMgJ9VKVSF0VKHvGfKbWnTiPp/AlOWBmy3DrzH1undy6NuPKvxeQuq6xu/ujikhLVS6vKVaM5c4tXhB4w96ps6kzdxgrvSaXEj1WuPcL6Z5if6o1HO1llJdIw+q59Rj6XYo8MY9ceyah9NNoZlLELF1LdBoWdZYsqqkSs2KzpOAHsd3RIaraeZ42J/RU4ldjeU6QB3dZcp/S6Kne3bTnKT5b9CmUTRvhbw3QNytuoE+FvGysbcJjSVOPp3XTh14p5b6p08Ywc/wDouk3Got0Ynp/7hR3kMxfbY6krQ8DpedwuSthnT2uGppNQG4HZNKLGOvdtcysbqbjB7qk0TgympYNIacdeyLTQfQ2hzJCHdj2+ynacT8C6GoywY90lYd07ZtAe47hLGhOKZ/8ADtz9RCeGK7VBojbM3dy685Q0+h2WI1FB26yN1eZTr51xtSGGtOMh2VHRvJmQZuS5upLmq0Vw1bSWPc/6s7Lov+My29kqskQtb9B7rh1/p+NvTxNqGtIxqA3XR5p+hzFO2NjOWNsDUV3pB+IL0+moZTRnMrW7N9ytZRNuNXU2uneW8uSVoLwNt1nChJuJKSC6Ms0R51Sd5POAtlHVfE9Hz6L4MyYExGuMbksUfagrfz3xiGNnw1FCGxtHg4UTT8KLvQU0tTBJOdTmHo9A7wo7Vmivja0UbLczUOU8dRPqt8418mdMaa6085cXQyktz/B6kFXkWay1uY6bD35dJgs37g9iU3E62tskjY0wT7SBuWPAwEcYVX27sY0BwOXA4Y3ufG62QEz6amNI3RqETTqqP9R7KsgIbsaiR5lZuT8unBH/AP1/VPMmhjQULbbSOlkIE4bq/mq3PB3rOU0UtbdOY8F7XOyfbHlQ/wBUzOH1S587ppD9RAZE3+EBPIYRA99PSGKU4jx8z/Ms1Wf9DWaEXe9NkLNMEX0j0wpw1/H0COnewNjyS+Tb/wAqsl3p3TwaA1o+keP+UNGNfK89PTGwYKSjirU3GobtHdZ0cGwv6cBu/j9U8LqMR+Jl8dCyK0sfh0g11OPDRvpP3U/TTMR8mq3Oq6rmDcO6ImeAub/Va+p/h9aI2UxlkZlwwCfddHlENaau46PhSx2QfVWpJGWvUzjBiPvjC5vWqYn6+f3Zkr5Wtf47Lld0QDWxxPI3O2MpdnjU2jnCjiP5hukhqeB4ggMn5yujKdU0MMsknxTvpz3VE7DKqq+jCSq+cZfiC4Mo6Cerd4BDVDTtx+PklsrzV3GSd5yXuP8ALK4/5MvHT43taqqpIpab6QvMxqyvQ1mVhL1RMbIQB5K9bx9OuD08yXl4K6Oo8TjBJR0cEMiR1XiwMyjo4i+NEpbFDm4VJU7EE7FgOfCAtBwgy+EhpygG9O7W3SmpU4nmOZTobOxVpLGj1RwQ1qZdso4o6lqwFljJV/7SAk753UtRSVq7NeGtaG5XBrC7T0t4j0BQuS3z6KZcA8jCMSk/rN6SqaR1Lrxpyevm65XqCjpi8nsE3p6E8f411XyPiri2atleBKWxA4GCuTtter5+UjA1VS10p3yfBK6c+al5FMMjdRJO47K/OJ9QmraiJ2o7tHZHR1U+rZUEa24WytlMKAwRsOO6rG2jpJXMgcfVPSyEsMzucfuksdGabfHBseSdwuTeXRK8fcTMwRqHycJBJpnId2XT5uP0ibZ+VWZachdMqGsvpfC1za6FrtW+E/XFrH6d1b2vGfKlpfzhTcHOEHf6lz6VkD26LJA8hU8o5vWtrRU2KUL1cR81/J1+pGBPxysyxylnA3Vskg0hVL0DM/KnU7Syrk3wEcJ0IX4WfDFVRJli3gZu7SbJgQzZIyoejZkvcwOBHouZSZVQgNma1bM9Xxp9I4SmDNKvnLtw+iyVWmjZgq/HRxnqysIdhHFMwIyoc9TsU4pq2dOUpmQu8AJITN1WHvdLsSPVahrLKyxlrifQpv8AXLccarht2otzsufbOPpFoqMQgLi0Si56lzwd8YSI3Kqjnk1Fudis+S2G8DyGFKnUgXOO26tmIWm9HbNXUUzJ5mjKVjGgJfo/9aw6APfwlrfhRUVLGN37pfo1gJ9UJdgUfQznrE8W0bs87xnC6MVfP4hw5Uu2bnsuiaUbi11D2P0+HLQLvFC6qpzgZe3GFz78/wDpfoBa/iIflOXPVZ+h79Z5arD2jsnkJYSy2irhdHJpPutYbPrGR8rUcO7ELON6fQQNmha8DO2QlsaoZUNEjmHYAdkuY1juMLw1lU0Zy1o7KuY3q7hq6x1RDAdgV2ydS1nr6lYaiIQcth6lf/ifGd4woGzB0jxhxycrj9Vcx8uMojmfE712KTMMvFzkomFzey6LRmNrwk4TwCsadTSNx7rmuTtnw9W/EB/TjGcJ8VPc6fiZrImRuH5c/qu/zqFBxWyeqkc4t0s/KfVNqMpvPUzR07YWMOWDf/0WlJaSCjpLvPc+Vmpc3SFGjgioqRA+OsnOpr86vbHhLf1sRmZTXOkjpYX8s1Qc5kmPIR/wX9Z/iFsFJNQUbRz5gWiV7fB9SuXe+n+C7jk8+n5EjgHOGGuHjCtm8hsPjtyleZuW9nQ1xAHj/wBlP10NLY7U2NkVXUOyA0aWDvj/ANE0Ta21zF8ri9uqAAkE7EY7JmFklkrK+aSpMukA5ETv4R6FbDZL/gqsQvdMPkHLGsHnf/ZNKevPgGxPg6dWkfm8f+qv5o3RPf6p7o20jX7vcdRHdP6X8VzkdYrJDTW59VMdMh/KD48Lnyot+Gp2u1x/905kJVABuTy5nIaPmyHt6NHlT1+1uf8AWh4Ot3JaZj2zg/YeU+cD0rY0rdcolx37ey2oycNKdgDXavXfPlL1sV1dY2Jj4QME/wDvZS1V5hbTwiOJucanDJwlZxdWV8NBb5a+c6I4G6yPX0Cb74lXwHiC8S1tRUVcrszVTtv9PbH8gpa19GzlXYLbNW3KOKD8mC5xSyf8ZuvuFhpY4KVkLPpZu8+pXVj8c9iq914leIR0hu33W02WVuYcGED7hcvo6MYYmqmM1W5x/Jthc3eLvY4TJgM3LjuFlp429uh5dOzUOwARmC0yp6E1UgB+kFdEiOtG09KyKm5bRgei3pmZuEuh2gHKS10eWXzb8Ur/AMihFGz6ndwpcVr5ha7g6CQZ+6X0x1Tx1xr6biIOp8at159/jPQnsTXOqEztWVXGPkut9LF0ObqUeNWEGHxR5S7vF5haISBlTz6dbfNRIzCrKlch3tCrErA5GFUj1ibherRusOsZlANaB2NinKtlcl+Qf8PyO1DPhbIzp9V1OGosb9Aviy1uVljOqmVZ1d91Ow00e0FxkaW9ShcrTTT0FfIWt6tlL+tWbOYroIgHOfhLrBvoSOJ2sad1Gj+uWs1xHf6qqboa7DFn9fVuSMJcZZCDvsunHmW0hnqOojt7q8ideU9R69x2WfIFscHjr3atL1aaVmMsG61vXtPrY/BCDdOKaSJzdMvZN1vQNXStil6ezkWq4ByZzudlz6dK2F4a7OFLUPFsLQZHOVPKI+kDzHTP37qyFavh6tcGNxtj0VeIbz1qDWySGMM7nup0svHTMldK0OOzVL5U+hVtaTUbDyqeM/XF/K1yN3TxgQtHsvVzOPmfX9r0sGVqTFDZTZpW93fPhalaXzypKS0vkky9MwM9pQFFS/DEnQzt0dlHQWtjyMLn9KeKn0xbnbYrn6oWvjIqWp80+G44bBww9l0Zrv8ANvJZSaZrfC6HTSCseS9CmEqPON0lVW1RHLUwy9xj1anJhWSulOHAj3QnWOuEOlz00c2x9hqRHK0KPoSN9bqrpAC5LE6ZQPLip8To+ig1PWUlOIaU6VOp0wttG3V1KmajY0TYmMjyPRbqq5hbcKoxtyO6TreBoqp0izosVVTXOYT5Sl1/ga2sdryR5Wxvn/gfiGCN8Rb+qf6VhTYrcGvJ911+Z2wp42tlb7KpbWkpjEWjIG6XUJ0vuEMcMpeBsVybytmup545CG7Lcs1V9XRw8skraXr5xfMi5Na36QUkojW2a4RMYyJx38IqkCXiB8M75RsxyWGr57fjHU1JGfZdnl5lMOEY4YagajjJXWK+12OKlZRGVgGfVCLKcW1Uu7WDPuuX0iuXyy5gx1muQYCWNVvmhkPWdLE3+tje/h7F8NTOa+TEbt2gpLkza2LXHVHTtFnLim8p+l01bJKaeQ6d8Dz4XfmualVRxc+gro6UtHw5fh71v2yn1NXUjri1jXB4lOWrbSsxx9xJR2GlFS0bl2C71x4/qpfTKHfJ8Zw9HcoXY1x80Md2Hqo6rBtrrIYrRT1Je3mBpA8bn0S5qmIXw290NO+8XF5awPz0t1HC3Xn+G6zd7rGXGeVrmOjY3DosjHSllPlkzZY5nvkecxZ+Wff0VIuY04qGW+VlNCZHYxy/T9UxIdcP2eedhnrswOa1rGQnvtus63jWTU9PFRRt0hoxntuUdDKSsb8JNNjoa/5bD4JVsN0TVAiipZJJMun7kn09VefieckEIhrKszvjMULPpld2cfRLdddHDO5sZO+BtMeW0jD8ecb5/XK2RkVCLltdLKMMbvj38YQ1XDa6iaUav/EVe+f4IgqZx0m9caeENp2x0sX0jpef91S5Rxrp3RTtzucMZ2XNqur5/DF1XEyn6/pJz7qdrcZAUj3TTPqZerB+U1Kqc0gJdzHNxnbH3W8TrD/ibxFqDbJC8OLAHVRHbPgfoEmicfIquR005c3eKLbV7qcY+g/h9QObEHafmPdu4+6tnKWtfr6lTQimp3MOyrWcIbqzW7Xjt9OEtojMX2sdDTjU3BcNlybrqwyEz2iNzgN3LnUXWdr+ezdB43VtcJnNhjOo+VTEG2upaMU0WXd8Lq45QNfUjQ7dTrpxGPulTEzmzvOI2g7+4U67MZ4+AcX3h9yuzzr1MB6f5qkhNAYKEv3UfSnxiiDBNENlKWKfNUOe/VgqskZ9JNdlJwdWR/Ws4pKaUuyj6O/xppFS648juuO647p59CVlA+NuVXHs4t+JVK3H3XZjbi3gO9ifqVRGypKmsYVreiWIHRkBwcp2r5HZQDC0Veh+5RkpzPVh4RQFqapoasoDQz5ep0HtFUeqSxWU9p7gGRDB+6nxSV6+5Pd+bZZYeVTLcpGjZ6T+tSUJPc3ObuclWzht0S1cj35V/hO6J3xuc852S/JfpTMx0e4Ky5H0nR3AOOk+O6mY3hrG6RhbGi4XA7nGE3B0Vy9R2PZbIOqK5k2pp8BFi2KVPnDpNGVD0n465RbNIb6qGlIsp3dZ9CqeSelNUzMmxT9RsNrZVciPYq3fxPjT2Oqke/W87Ja59NG+Iy9TT3SM6P4fg+dh3fK6P4+f15n83f42RbgfZd7wrVflBGJdskpOhKl2AfdJ9I2k9RMc4QXgVzwXJ+G4nKQG5CXpS6qeNKj9DrOVrxnBWjoUTNBwubdPle8h0eAoWujOVfwGvQ7CJtTOWtstPpazZdXneurDT4+SM+F2yL/RbPC0nKKrnSMWGqPVeq6l/Tj0SmIqwZB91vWdZ2uhG6OlY69Q9Limjn3CWlqTHUBZrCHX0CwVHMDVy6yLGyt9NqcNtiue1Ow+t1u6s6cJE7DcU4jal4nYhT1DWS6crYjTEVeoAZWrZVTRtkbjG/hZct6CjYI5NkgXuYT47puE08pIO4WyGzCbiUOYzUss/VJC+w1Qc/Tld3lPw/GncdMg32VNfhLD6iGpgIOy3P8AiVeXTeI+yj6YPnTMxTTNqwQdsrlzrlPxquZHNTjUfCvzpGbrLNTvqC7z3yk/r4bhTeT8K+CSPsDussE2s4guwmtzDGeoDJR5z9V6+cVLpDWF43HovQw3hjYp3OuUTXbDUtb8vu1va1tvHL7EJkbkivUsLIzzGb9lzbqmYwPEVrdLHzezD2IU+srPto2SSCAb6fKfDY3/AA3RGqpw2I4MQTtbmzRvkpSG7OGxz7IkL0RWCemptDXYc/c6e6frnpdUMZUTQQP7kjUPK3P+nmeuuQkpb9QxUjjrMo1s/wAi2394hf8AQ3G9pkuLmUVV/wCDe7W6Ty0+n6qG7yq5yKkraGJtLw/SMMj+Xyw0flA8u+6yabMo3uhrK18FE9zaWGmDcRM7ucEXTZxorfcGSWkU46pPokb3xj7qv9nZxNjOJI3smlDXCPUMEn2S84vlk383RC1ztJ1ZZj6T65VMxSmNup521jGRuJo3by476k1ynNPoMO8cLmAOcfqBxnAWfLftZVUc9TAHa2xhn0DuStnn1n2QXSjFN11RDog1w5bdvfK6Jng++vnl9r3SPa8DQJTp0/5Vveq4gmhoZG23mSDmHVpgY4eqyZbdGQtE0MUYkaHTEfMd/DnsE4yr+CDqgNl3hh3d/q8LeDpvZ7TLpdUSNzJOflj/AC+itm8c/p+nbOG8nLnBn2U9+tb554jU2qOANeHa2t/kue667cf4X1fPqKhrG7tbhJw8NKalbTtDpPPYBNBa6tvkVHSS1Dj+5aSP9XgLOkfErjVySPqKiQ5mqHOzn+JylvQB0dufmGmGCXOBcR5WZiOn2jhq2fB0UUbh1dyV1ZiFN6+V7yI2otPAeA1ml5JyFLTeMXxadtJ8dly7dPmxVU/sM7KfFbDGx08stW2Rp6ANwlNh9N4QtTWF1Q5udW4K6MZZ61o6/wCjAVuuaRmbs4hh27qVrt8cvlv4n3yOitfw7D8x+c/qkn669/j4lCcv1Hyq2ccs1+n9snYO/lcXpHf5a4Y1HKczK546tcJKqMB2y6cuLeVLCnJ8roiC9BjmkaCFDbr8Tq37O3Xm+z1vPR2LUyoZ9OVxf33J/jrNXyxyQvLgNgvQ8P5PXD7eLOPzv6heli9ebvAcnCrEdzjmOVExkL9SAPjYfCpw30tZEUcZ9LoWluMLIyU2jyWIpwlRk7Jek6nTx6RnylPwdBIWo4bgoVLktyaJCqcEnFntRMdGcreN6A57iSqTJerAWlhyd1aRhcdQlPot+R8vaqLMJ+yXWfxkIy3Q7U313XNxUVBVub27rI3hzQ1Lns3G6qQxgmkMuNwnmS9Pfg3Pp+2SQtuDz04xFXmOtcMbg9lzekd/nemFPqcBsubWV+iGsLTusxotRk05yrzKYqjje5wJ7I+i2NRbXxsYBndM594aKindgDPSixzanGn4djDp9S7f42Xi/wA7TSPduV03/XkqS7dHAw8kgUqhaBqZMtUiEdVJpcT6KkAE1B1+EWmWmfbCS0lLquTbC5+sZ25yYcnlBUZ3aulQ0pk7tzHzMUNOvLQ0tL0jI7KXTw+oGNYBnwuzyq+R0kw5S9DNWgKWYLNVSBzJlRWgeZ5chQsqs7oKSVmShjJ3uMljk8Q2x7g4TH2Kb/jlv+t5wi4v0grk2evp9r08tp8hcmk60tBNFgeqVOjajQ6LI9EErL1MxZUHfAyhLhtaXmVmfRYrJ+Dzlr8I6VTDGTO4ELeCHENG0sBTcLpH4YRucQjimGY4s0cg/ZR7+rSPn1BcfhrhjVtnC7ca/D8fRKapFRSCQeirf8TsNLRXkt0k7oxUtwfV5cz2KbRckU7dBJC47n9XhPVcQvpHFmrIVslsWW29unaTq/VZo/BBpxVsDSc4So0j4koaiKINjPT5+ybOVM1lZGv7t7nYrryrF1I98dTEXDBB7oO+0cMVDpKJuXbYToaLL42SprxTh3ST1Ll9D4Q4ptGiz6GbYCmTT5tSPjpKpwlOXZVPM0bbg2qAdJM3ZoH0q3BW7tFRmPYY5m4Huk1E6Onhe4ku7hv9k2SWFMzhJIyqptqmMjp/iVKzOuAJP2qy6xV03W7mb+w9FKz9ai+3XC8m4VVZMYma/wDDxtKX+v6PdchlY7RFQvDZgXSHGmU/U4emU88uJ5vWhlFC2OSqYRIe3qW58J5iEU3GKOnIfSdHNa0uLe5cluVZGUvByJGyjmOH1fqlkNNMlT0nxdYaQNMfLxsf9lfMPa2tupaNjNEUe7Bpdr7/AH2wnsSi2NmmoEo1MZ4KzjTqmnp2RjW7DM7lbkUl4gfTy1Ba75znDH+kKtZGShtuq4QH4fW4P6I3dse6XK8a+ntnxEz5ahjGCPphj8AeqYtoa5QtJ5FL1Z7P/iPqUNzUKe1BkfIkxk9T3e/oqRlplF8uXU0ezR4CLSPJrgKZpY0mSbvn7+FOrZiljqusPzD0juEli0GshpadmrCzjeg55WnJz38/2S0MH+INWaeCnpg/eQ63tHn0yp2tYR+mWblnJI+s/wCZTpLWx4MstNUVTZX5xH+VX8soar6fiOKk5g2A+kLosSVNcZTrA8KdUgLPzZHP/QJNGYrjOUatQ/kuTbo8mAquZqHp4UbXRxq+CYXO1ahlxOyfEZfx9ktVK2ChAHouuT8Q1p5Vuw1TtbiMxdHB8rh4aN1PTu85x+bPxLvXxl9fCCdEef55TYZ67ZVmD2KepSiIpXRlR1lT7Fiufpwpf1rz0V63PO6bjft4BhDU4hh6Ad0T/CnqOjzpzSu7H1Xm+8ep51qrPNvpPZeN/Kjs8qY3a1xz0ZcG5JXJ4e1lP6+fXyW/Uvws7sbL6v8Ah+n08L+TjhI969TMeft7G/Jwn4kLieWo4DOlkJTAdEMoAkN9EohjCMR+6FA0sZ159UgkWtZt9kKSLA3KDcS0+6Bx5kpeG69klLm4W8HQmshyaBIS5ICpAly8nUnLaKNPrjS6J1mayLkzFpzv2ULFpVTWn6h4ScP0wt1y5RAf6p4StfbpYJN+5Krkh9Sse6Nx/KOyrwvf1h+IW8q6E9tS5ufr0vGrIJugKXrl0dWulLlyTP6y16ylkkGQn+imVLC/IW9ZTeCJ22O62VDR9RygNDM791Trm23PCkR5Bkd+i9Lwz+Pmv5uv05e7JKtY4YpPdY18+lm3woWuahqmRobhTYz9fPkvVICrn9XdZpvRMRJXPrTFVY08vV5UekZ24tc52637NIopKPL91K6Wzlo7TTaOlStXhwHBoxlT4aVZ8bgtAPddnlHRmi31Q5W67JXTIGdIXLLVJHa0nVVb5Ajpug6gg9kdYTVbUdYzd0i+W5PKjpi6yLTOceU7msa7hCUNe1pUN5M+iUdViNcesluRNHdZQ5w1bpOJWHluuD5mOa536LCWAKyJ7pc+cpepU14ecTlvostPL+NB8GXPyc9k2IULL8mTJTl6NhuLWxduy3pe9Vtrea0gd1nfxXNYvi6aQNI91z104fOKjWZwW98rozpR9F4Vnc6l0HwF2Y/YjqmUFR8PVnPlHzxO/rSRTCeAacKkT/wtr4sAqG8rZrAX5rjUaR6pYZOzNmb0nOFvB1qqV3Kc1h8hJ/idQv8ADqjBb52VstzGVqrZI3BjByrxToGtoqiIse7bG+FnTfT6/wAEUM8tojk8Fqrn9RtB3OlqWXcFoyuP2vFcPOIqn5DY5u2Fz/YuXymvdGbo54G2V0YrIY0V1NM9sUbsB5wVeVlr6BQX5pigp2u0uA6X+6pxKiLhxXcaAGGSIyOfsJd8bqGtcU5+KqqqroxTSxt7EOLhnse63O0deaVbe4n17Yi75Uvb/Umui/4ZVVW23UrYXbc36ceD/wCyqf5Bz6HQxXAw0s8kmow/1BWek/G5/BltoHObUP1YimycH+JHjn8PRFVzY44Y9n68AHO/SmrVMlBQ1FNPPGdbsASeoKz/AFnOE9stEdfWSloDZIzjON8DynyOnXwLYI9bgXv1dRAT0QdyKYR/EjB0N+g77IaS3yURxh0LA3qDnjOAf/YWArfNNVTRlsQZnpe7v7p43gimiYKkv0apD2k9Ef43pkWtc1wc3Tj944f2TFV07IGh72sznaBvp7puD6c6MRtOd3Hc/dM0NmTJA+o9ktjYmKVtOwPlGZHdglXyqExafQJLToP1vBJP6LOgNJNHG1z3/Swail0OvlnEVeKiukqH9Q3LM/0C59GB0VFgQOcfnTO1kO/hRmdQ3p9S4Yt0cMDXObpkfvgemdv6LrxOIXRxfKjEUcA6SSNk9vWyLp5IoaaLcfT4U6pIVOkc8ucRhvhT1WslxZDrYHM/Vce67PLLFTuYHEYUVm1/DilEj9Q3DTnC6PKJelfWWBrYAz0XV1yd/S+tOSVGx1ecZLiN7oKCoqO2kFSrrlfni4W+Otq5pz9TnH+6eOfV/S6WwOblzcYRayZCmgex2/ZJdL5yjJDoU/tb4QBA+63qVi3Kbh5tJIfpnQuS1fNPaQjb2XD7Zej5bPrfLh2V5vv5u3z/ABpaap102klePucrtl6+accwt5zi1fQ//GV438/EjFkZX0MeJqvIfrTpdMGIHRVPKQcIb03pHoHTKFrUrYNZuhRGSPdIaOAQpEgl6o44wtYrPZPwiGEcClzQgdVHY7dk3R1fSy5fhyclpxBpIGE3CdJOIaTqEjRu1R3Fc1n4nuHfz3U4rFvKLhlPwNNw5UNBLHHdNktjbwsn+E2PR7Kl0j/1h+KN6kPPhc3f16Xl/gOlle8ALNLdNI4xpHqpfI6YW8DVpPhR3hoyqjIIcDgeyn9NsGUc2RserCplLWRFPUv54/kr4y4vSvrPDbcWpme+F63nPx8p/Mv/ALDz6rXPECFjXzCWXq9lz1zUDV1KRhDXTHf3VICuN/Wk3Qc0TcvA8Lj3QurY/l4U+s4zVW3MmEdUkdT6GPSVWHVLKwR7HdTqkdLPnsVimYofO8TA+i7PJ0ZhkyQlgBXS65FnM2yhSR46XCQygyZQFL3oBfU4QCO4tBbj1TxPUYu5s0yk+6o57DCxVPLmGD2Utlbmgrc6Rq7rk0ymVLJ/ivuk4lWgs7tNTo/iRxOnLqQvmyOyz5R0ZWu2ujl9ij5PlpY4gY8nuAq5jKz93B1HT4U90hW2WR0B/iS/8HFts1h5DjuUYjc0u4oow+F380u8uzzfOzA1sh+63y/1SndmuHw40+q7cuX0o+tuLXvD+3ur/JM04s11aGAakqnyfP8Amx6mbrLkRlbpaZH1YfjbKlrJ0IWxwTaMDKnAfk0uhm+CQlrOKLrpMLS05AVcN4VmTpD8LogB8RU/MpWvAwe+QpbvA3/4b17jZ44neNsq3lU1fGdwfbzzYRqe5c/tP1bDLVUlbc4tUp0rnkNWIuwNNPoI7HdxV4QE6o/7jVbI41fDlxbPb8E/OjfsfZVpdZbj9oU1RT8mbuG7EqOoWUr/AOsKaCB0MvZuWrm1VPlJht81MypjxzWkOx5ITfSdy0VZNRXK3xVUW8TdnE7dS6tXsLwyt7nPgpoBIDI49PnZWxO5IZVktRCz4aGPEpOHyjs1v/KOHoaGkdA59UCZXYA3PYqXpGwNZbnH+0KljR8qUkva7wQo+G20ws7445KmRnS/V6eCu6VnDyuZNLSnkDbsQk70EUVK6lyHOc9shyfb2RwBq2Dnsa+XanHV2ySR+VPmAPG91Q5jRDyh5jH91o6HmbyZ3MZntjfwPUo6E5avRRsc12Wk4H+b3TwC4JeTCJZdnO+gJujiiWbmENZuUdPIYQ04hYJJBqf6LPs3C6tqdTi5zhvs1vop3a2YWy3FjW5xuPCndKcCvvcZ2+nHqs6OFN6vLHUZYzYv7/ZT1pnywbCye6tEm8LTrcPZqmXZ3bKeOpq3yO3aT8iP/hW845tPpNnHJha6TDNAwQV1yJKK7/F1wcSdDBkrFIEp6l83NZ4YcNyp1SDo3MLNPc/0UtCf6znFEPKZv2cuPbu82ClZrmwB5Uzvov4eU7YoC4twc4yunyS9G8+Ibp3VqlMhaggt1KdXywX4iXFlNZy07B2QUvFs18bj5R32yd08jm1f1doYSNshZYaV5VW2GSPUwbqdjozWcuVM6H6gpcdP1+EznHmJ5ENaXROdlbRF+FOqQXTP0uwjjfo9opWrl9Y7/HR1SvC871j0MaO6aYAd9l5Prh2Z0xXGM7XSuXu//GYeV/P0xbtl7jxqjHscp0hsb8oAiFrs5Qpw2pCR3QzhrA7KUQwpyB3QovaAUjUXR4WKRWQAEqqrUtgdsQqs4odkHutZx5jUFvCvAzdHGPMaSPVbCU0opMNGVROqrjh7T7hLrJs1k54nxSlp+vOfZR/66M17FJn9FpjKj5jJWyf0CA+n8NTfE0ZYPTymlQs/WO4xoZoaw5HT4UrP12+VLaFpDe26FumsUeoDO32TfA6aRUvKbzD57KPpk0rytqA2MZ8rk1lSKKepazs7utwzUMqObJ1ei6sOD1j67wZU8+zMd+i9XH+PlP5c/wDY4d2Q5+IrGPj9VVABQcxXU1QJxlJxhdUOL04Dxs3yo7rDu2jAyuPdNwRUs1BS6bjN10Wl+QjpgOHE5Cfikg6nMqnVJDNtM/pONipxSVOej6chdmK6/N41xDR6hdHXTFmvbCOqIPKwvVZcQgdVSuwgdAzuygdKqwZamlFrH3iPd33VOo6B26YsmCTSLe2gOkDSuawNJHRycxjhlIlYfWyJ2sOPdL1OtZQsJO/ojqfybU5a15HsstbILimJOB2WTYsLqmAyOessTpcyie1zgR3TcZ10dOWSZz2VM54bOf0DdwZI3A+ij6V2YfPa6n5chzsn8st9L+Ek90jhl+rGF2Zjl/1ay+MlbjVldMNMGlsu2C3SUtwfrd2G7NlAae3ZLWHvw0cmc7+Wqeo3pFdLbomMgaua/jeklzmnAbpOCEnWjKEyTQN1FXwFtZBpdG31VLrjBlXQiag+nJA2S6nYB3AdUYo5Kc+Mo8tcJwTf3wyYdJvp8JfRTNZiqqqh8jjGNMePCzOGXRNxFw5I+zi5NdnP1eqt8RO6rHQDQ0NcfdbFsD6KtNNUhwGGZ6ltp7OtvTXKmrYo2REc3HjwsR1nhTJRnW+d2JMH6FHWG50JgMstEZIncpzO4Hp5SXBm0t1VFFZ6ejqIuiqI0PB7ev8AdX809tHS0MFEA2Bxy0gteuv/ACJSL6SqqqitlpZJel/Ynuo42rrLy4VUVLI5pyC7ws97+DznWehkJujye2nAIXD4y9N6fjTRc9sL2t2c/SWn2Hddu92Qmb0RbbpUQV8sM4c5r94HegPqk8PSn3BV1lYYuTE7VUSb7eF12pktNLViWWOUaSdseE0rKJmpNDXSxHDh9b/H6JtxmWerXuAa2STJm7ub3x6KOKezi5gp3cnq6Gdm+FaVsjqyrbJNhrssbsn4f5HWyEMaHu7fl1JKzoS6XnTkB3tkKGtL4z1n57k12RndTVkLpquTuDkrOtDcyIZfO4j/ACo6f5I6iqbI+XfpIOCk0l0uE0LLfNUDZ5xG31I7FbmJbbj8OLBMSK6uHSB8ke3hdfnj8cmtNhc3wMla0db/AMzQrdZC74t7YZdJw89glqke2incYnyyd3Kdb0ZTxxsJJPSp6hss9xS4SbDcYXJuO/zYmCD/ABOcbZwfupcUr6fwtS8qgBP3V8fiGzo9St1nUZR8vdTtNmsxfrXTXOiqqSYA5a7QfII9EKPzvd6esoquWm7OicR+gKPtKwHBW3BjsHcLPo0hxS1kwHV2KxToipom1kP+ZZxv2yVxtk1JN1A4Wt4ojdhZYaL2uyp2KSrA/fdaDCkq9PlT1jqufWw9oqxh8rzf5Hnx6Xh69O2z/J9l5Nl69DrCcR1HMncMr6D+DjjyP5mukhGV6bg4gBhMT5Xwu3wgppTb90G+h8ZSfRjGnTFg1rjjKTqkGU0hWG4JOCgwOZhWcU6Hc3CDKzJhP0KSTqynhbUw8pyrIzlwQxJ0QLgt4SpCQNOlu5WprXgOA3+4THkJLswOyR9Q7Fc+4rCyGRpy0Eah3SdNKaUdQ1paO6Dtbw/dnU04Geg900JctHxFbv2pQCohAOhZo2NMY1rIctcNwllda6CpaXAKnWGcM4eCM5CzUEoatYHDc9IXF6ZWzSYvfzRg9GVucM3toLbJ8t3qml449vsfArXMsjM+V6/l/wDV8l/Jt+j4lCErxDePgtVV+qi4y19QS7IS0O5uwI8qN0F0TMuU9VshvTMIGFybqkgqpaeVnyp9PwmrKYvOrHSjo4oholTpoNgpQHYIU7VIZhrOVg9wjEOHklZ9J7rszHX5FrpRrVXTFjXIO570MVOehiiR2UAJLhDQNV2IWxlZW8RDBPuqRLRLTACoH3CXSL6Xw0NUTe2MLnobuhgjdG0qdTplSRxglJU6fUJbnHsk6XgluecQVnRwbTxlsuPCIyrGxAvI9VXKdW/BN2yq/IkBVNAGklqWqSEVbTHD1zXP6vHzTjCoEBI8rt8PNK18zrKiWVziPJXX8tkSpKkxbefdPDWH1rrN27opW2tNwMek5791Oh9Bsdc2SPJO4RYB9dGyYEAeFx+kbGWu9pfs4D7rn40G2R8GlmN10+cAyFks8rNfZU2Gpbby2j1D0Tf8ZS2xwinuB8ajvlQxf1hpc7bHqJd9JV7Gxmrny4WOY3vjZZDcJZa0fseSkMgOezU0rNZYOSDD3Bxw4HZq00VCVxc5h2wgZr2nuE9JPqjeQ7t7INYMoLvVR1ZfI7VE7uEJ3JpQ3GqkqnjVhjxs0ILxubfVwOtVPT1eWujdlj/VZ1vGkt99lnn+HnjDI9JEb/PsqfTblH4kR1UcokPy3dX2SfJf+Gs8kVza75fy27l/qPZV4Xzo2eioaSgjMWHl5HfuAiYkNq9HR2+oqoBM06Wdhj0RcdSlCyufHcIiW6tHS4D0Us4+apb0xfRiQtew8rOQ8+d9106YVXGKKmhY5sut4dn/AOVsoDTVryz4eHBfOQWl30geQqfXRZwBU0LYedM1zZJox1RHsM+ilv8AG5/WffWSUmWMdv5H3RKrIPtIbIDU1DiB+UHsU/02r7neW6WYOiPJDT23CjrQxlmq6odUtJEmn3UbXXnIEvjiZzJJhgDu7ZZ03Gbu3GlHAdEHzT6jZLa2RlaviO9XKsih5miJzwCGeiOl21dRDppGsH1O6crOomFktDbncKOkDcxxdUn6eq6PKOf10+qxGnpmthGwAwAPRdfHL0LPPE2R02RqctUhVJU/OA/iKWmhvDCWxE6sNPhTrVsrYG0uPJ8pNHyyl5+ghcm3f5kdDBrrQ3GxKSRSvpFshMUDW+26vmIaHx/UmpXVYOg+mFOmyy76mNlYS/dm611fL5N+JNr5N5bWRt/w9WMNPukpLllWN3zhBRcYa7wtYKYxzeyC9eVlHFUw6XfUg8rGV9tkpJjn6MoUihr2hTqkSMgKbhevWTe63g6NprhpUvXz+lPL04cx3xxptOpefr+G9LP8pnriS+UuHleh445HH667QWcd10ZS0j37Jy1JoLX7ITptSFFENIWZU1DCnZ05VKWC2g4wpVWL4cNSdV4JDxlb0cW8rWMpmwHUQHug4R7MrYK8EQCpE3jgcHATh4wu8oYn7piVVGXiXZCZnBFqG/f1T5bKHrqCMHWTt5S7ypKzVwtro5jNFvH7Ln4pEIHua3IGyOKGlvrOTUMMr9ieyC19Asl4cWGPB056B65WaTqHGPDFRDRMu8YxDNs6MeHJI6fL0ZKCnm758bJz6G00vIyXnun4T6V1NQ95JOzfG6lc8E9FUMRkkBb2UtaH2c0Yk5jI426nSENH3Kbzz2o+2/nL7vw/SmmtUMZ76Rn7r1M/kfLb19aHeViXHYQ1+a6qoOr2UXEqjLj28qHpti6Bj/5Ll+ga00J1Nx9RWXRpT+Kiw3PlRq+VlTGDDjyk4YufGUcAbQGO3Wm45suH7rONVVFx0v0juq+cUyXS3AumXZI7vOPQ7JyhcS13TlDUHvQFRflDEHpuM6ElKODpbUPRxtZy7O6CmS0S0728/f1S1z9b/h6raA0ZUrB1r6K6BjtOpS0UfDdcTYyo2ssaS0V2uUe6QjQtBMrThDKPbJiTcK+cRLq4kCTIWW8EXsla4fZNN2qTLx8YcDss6fhJd6f5bj5ATZzKN3kfFuMsSVDh913ebnxq2shHbQW6irOgmuDBA8n0WVq603BvMa0lJ1vG6tkuoNweywcbGx1+h+klaWvoNs5c0AcVzWF6BuEJ5v8AlSXBpSC4wN540+FuaZKFrmvbk7BPtjcWt8c0AafTyt871leVNvhhdzAzt3KT45SdGzxRVlCC3ALQqt6x3ENuYY8s+rsUlUzWCrKR1PNk9lkNqkVTDHLVOITdBVV072yHf7LY2ZBNmbr5b/8A9lphkdPKT0dQ9UtaupPiaSYVOrVp/IsZ8tLabuypdynSFmojAd2BKBY18LZo5mOeeqIAtHqE0JTc11LU0rpR06O4Pr/7CrKlZxbScQujlyYj8C8Bkrx2j9z91vScM6q40NSM083U06Yx4IHlN3rTfhu+ObBI1zvkjYNJycrZeEsGUlfQMm5kjsvGXMYl3emyqkvFNPHzIHh2X4LM7gpfrpuF1wfBAA498ZAO+SU9BLLJDLjVq1NDnMYP7pst/wBWW65RzfJmZiTThw+3k/ojTc54Q1sLZq12l2I29z7JFYsqeI6JumBsjWhgwwN3/n75WfZ/npFV3V0hdzHZY36Ap3SmcM7dOK4aOLS0Hm/kH/Kja6MxjK++VlS5zp5i/J+j8o/RZ0UAyJ9TKNR0tH1H2QXrR2Sy0/x8Pw7sn6j+iEd6amiBq7nokPTAMv8AQJ5Cf8fQ+EaH4aGapbECZT0n2XZ5zji9dHcwp9ZDxhzNyfvurpQnrJqdzm8vf1QvmKTE2pmaY2/T3ws4Nfhu8aYWD17pLCzSm6zw8prY86h3U9RTNZu6OY6EZd1+Vybjv86s4co2PxIOpw7rMntbOIYbhWSqQk0OWdYquFQxtHLITgBqnav54fL6m6yTTTBjup2Q1ErtmYNpOHTeuG3UNe75rMvp5T49k/z1H0/HzC4WqotdQaaq6Ht+l3hwHol4gqgcBut4To5jwe6OMXjl4z4RwwCupqaoYYzjUfKOKys3WWCaPdh1BTsUlJp45oXaXghMn1EF3jBQzqxjim43omB2PK1v1R8dOJW5Wcb90PU212nLQtn4f66XxRFrsOC3oE/DDOUdZwZSs6kDhzTtS8aZ00XQmrZBbYwFOqR0bQ526TivV/KOEBbG7Qt6bjyU6wUdaCMW6eFtRcwqkT6gG5OE468dCMoCJDh9kxalBHl6E6a0+loH9U+WCZoYpY+2ybX+GlZm40b4S4fkPZc9VlrOVGuJugZJJ6UqsoyjMb+XzDufPojjWxtDKkTs0SB2Bt/sssLct3bqv46D9m15ww9wf7rn/ZUbq5Zm/cO1VmuDqdwBifh0EngtTXTq8/T6/wBeWjhW43ypEVNH8vPXKfpC6fKdcP8AK/lfD6dS/hVZKaiZG9vPmx1ud6pPbztc/n/N/wD0BVfh1Dr+UxsbfYLi/p11f/y8mVl4DpaSVk0p1PbuF6Xj5ceb/K/m3U412hrAGg9l0deZPxEgIN1wWM6/Ls7suXN1yCqJmTgrl9K3htDTdWwXN0cM6SHTj27LLRDiOVuhTtdGUXOaXLWgpRh2EAuqzl2yDqJhu0jygAaxjwMnureSmAHZ+orrd/muZOFi4pszcYQxAvygIoCTt05QszSgFdTEd0GrN3WJ2hy1LTMvkdHMD7rbHM1djr92qVjGto5zzmnwVDTTqnDjUNKgytxw3ETI3X+iOJtrFE0HPsjjKvZE17i4q2ScD1UjWE+qntvFVFUlxIKMGhiZtLFtOTXirY2BzifBymxWb/x8L4qrIfipADuSuzNT88srLccMLR4T/S/GeuNU6Tv2Kz6HCqCqMM4cD5WdD6Jw1dWysAJWWtbe2y6TlPlljf2G4/L05S2J2HksHMj1pLBGXrWk1BxthJYdZTwPc9ue2Vm5+MaikgkZoczZqbxZo4quXLTEfnwui5IS0lY+OfkP29FJsE1VBE52qT6St4OsrxVbKb4dz2gdG635bnXWFFtp5GGXXoCzisZq7yMiqDGw6h/EjhyuJoklwB98oB9RRiMacbFLWx0zRHKWacnwVjVWhnMGOl2coa1VHd6yXlh+5jGNXsnhLBP7XwHCJvUO7T/daS5H2+8imp5IpDmCcfOz2P8A8I6z5T/a1FFFG2ll1hxwW+R+qfLLlo7ZJGdLshk3p4PunSsEXB8jsmnfpqBsHeMHvhLRkl+IpLVGwxyudNkmUEHfKSGcy6TVb3Pl+lvVj2Vq1Ubq9r5C0bPaYx9il6aRQ24GklDjhziwagEl2pMk10vk0bnzQg7/AFjxhJdKzLOsqImS89vnfKQ/yBu99dglm3qkqkjG1Nc+d7suIyerPoiQy230JqpA3ViEd5D4TcJa137DgpKPYiVkg2k859AFjDHhaORgmnfHoLcRaCN1iOjuyUnLknAZvNtlWxEda/H0dj/gbdBGBjGNwuzEcehdfJEaZk2nU+bZ39lSmzGfZSYrSGnLXHt6BCt/DOz07YqlwJDg/wClBLREzPnafLUlLkvqWktcT3U9K5Ze8Tho6guTbv8AM04PrIRCQNnO7KWarY2DQDvndW6Sx45u26GcZ7i6tEFtdGD1OSV1eUfPqVrDJ7f7pZF+Npw/I3QGOP2C6sVzesDcZcLU94txGkCeIZjl/wBk1yk+R1FFPQymCoGmZvjHdRpK6JksrenZDUhT1WfsgCWUrT9Td1lNKtEUQZjQkqkoWW00cxw5gJWsBzcE0Ug6HaSgFNbwVcYBmHrCcE8lJVUxxNGWe6AZ0WCO+QgnTNtMHjBQpKW1dBpdkDZCikQ5HbdAXQRYegHdLBqQDWGLQ1bTxY5uVOqRCEAO3SHHhoMaAoe1CjxgOceFoe8vLk8JXklPgZPZUidB4IJ2+ycIuefPdAVufkJmVbSvDUJ0fCPJ7eipCpSVjGjH0+6axsKaxz6nPLGoDuVK+a00RV9uqWsEmOxU7lSaThbzG6S0Nef6432SnOLNXR6A9j3NkjdjB7be62NfTuFIaO5PNQ+XQ4jsd+3dbrDm9D6k4bob7VxR1NSZIovpBU/Lz7pxe3rcR9Bt9koLTCIKZjWj7d/ddskjyPX1ul73u8nKOo3qrAylppard6LZWInGFrEUB2EB+WhCXPXB9OU3oqbqB8hcmtGO4Iww5UetXB2Dshki2OTLdlnFYmXuDsnstOollOcoAQs1HKXphXwWWsOEdAO60J5eWro8lcMxVEt6V1u/zVMcsXExSEoYIagJICeycqiRACSxg5TcaRXSl1MOyC2MTcoC2Qkjytjk0Z2CYahlJtj6PaqUScpx9ly6Y1lNb92PA6fKh/0NVZxowfRMONFHWDbf7rSVNtVnOlb0qDwZgQp29AajY+ORwP6J8wSmbnaWdRwnuTvnXHPE8FNG+Njt1knGvi9XPLVTPdvhxVfs2MAajRCwkppqq3LNV1SC448KsJQDQ57k/E7Wu4Zc+L6vVR0fL6ha3CSJhBTZ0bjQ2u4mCbT57KpdZbq31fPi06tz2U6hbSu6ROEx1NwQkPi9Sh6Wsd/NbT8PqO4B8YaB2S+d/WWHNGGvbkrsiNCV9sD3c+MdbVLWTZAS3PTCWTDceUSNsYrjG+O5PLbjq2ym1RjLDBkr+nWer+SRVOW1RnfYkDdDeg5LfG3qaOod8IHU6aQxyDV27JNNlEyPaZdGnOfKVvVbKZrj6HwsNkbRSybxnZ7fpKaU3EpWEyGVhx6/dMXiTy+SEsL+/YIHCymzBO4Pyxo31ps0tye0nF7OW1jus/TlUlTuDeu4vktlvFTgSjGiOI98uRWfJdbuNmVRdHP8p5+mLGcfql4PlOe6PL379TwAceibppHr6iQHTnTktIP9Cp1SZC1FZtrd0vyRn1CRXMKLnc4Gxkuk9tHf9cI4dnJq97tmnpd2RxpVWuqKjVG1wbG365HbI4brynjoo4C76ng4BO4KwHorKA04bDTnm5a06fpSWl4fW9lVqgmcwcyP91HjLR7rOt4NsbpRBPO9wfNJO7p79ZOERzbra8P0eatlPpzoaNTv8xXThx+mv1q5aMidkUn0HsuzKTr1NEyFsTWZEfkI1VcQnie5pLgM6/q9lmaba2N8lPcWOxmIDv8AoqcTk/DWBrJZTKMhp9VOxvC+5gB2FHS2Iyd4gdICfK5tO/zhbZJ56a4hh7Ln/wCun5j6HS1hdj3VOp3A3mjTut6T5fPeP7mwSCLKx2+ePxj6SsbzNOdlsqjV2m4gFp8hPEtTrY0dU2oZpOM+ivNOTeaQ8U8IQV0bptIEjR9SPmUkj5/+yaiknMRG3hS4zUGQ0LieobjcrSSoTUugaw3LPRIeB5CGjAYs4pEO7tTmaVjRTfXdAMYwws2+n0ThKa02yqixOxpKAy904Njg1T0DukeO6YfJQxsjHaXjCn1i2SnErcHumP8ARbLSOidkDZBk4IDq3WdZ08tlO4jsmHTSSDS1aaaRLOlL8qShcHWp8U6NY/DN0cHVbslYr1OJuyGdc0de/ZVhLVkmkjGE8hOh5IhgnwmHSub68IHVAfh2/ZM1wqNLxjt5QXi6W46Wd08JYGYH1Dsufsq5JWmtduiFKSPTc5VflK7qvkwfu34LHHB/Vc+orj0rL8TWest1wjZH1Ru3iK59Tjs899V0sV6A5cdJzGB2ojskUvH0LgiSspw50rmsiYdTm+Qq9Q1ht5L8ypEdTQfJZF0s093Ed/5pe8cfr59jbcLcTxX2kIeNFfT9MzD/AEVs3rw/XHNGzwQQD+qZPv6pcSFrUEMeLA8IQHiA/NtPTb5Xk605TWkZpUqYbrU6FkMHMKFJB9PREN3CFJEpofldkApka7VgoCuOQAuBO4RxnTCCoj0gZ3CODqq4ubo7q3k6MMLc5AKjZdbv8wrZViwmne4oA9hKAlkoCScqJaSgK3xpgW1kPcYQGMvNJu44W5c+4Hs3RNv6pdFkfVuG3MdDufC59RnGtoqmPlhmeyhYOG9uqmuyAsLTKmmyShOj6V6zpTKiAdn1T5yKunip4Gl7iB5VPlkfOONuOmU4dDTHr7Z7peqSPlFbLWXGZ0s5OPCy6WzgDUOjgZpH1BZn/VmSvFa5zu/ddOYWkMrzk+qvIlRVBE5xBTI1rLRH1YXNtXL6BYnadLcrM07Q8jL9StC6ajh6rEUgjedj5WVP5a6ttsNZT8xv1gbFTpCqej5dPg/UO61XLy0VMerlOSZ/02o0MMwA2Oy681zaGUkzZGFpTZHSu60kT9UZ2z2S7Pl8u4ptVW1zh3YDsVBbMZQsq2O+W3OAt6bjyOasw4Fhb6lHRxbA4nII3KOjjpIC0E4yfCytkW0j2xgZG/lYbi/bmDSNllbHpZoex8YLsOGpv3Wxq64wOEeqB3ST1t74TloISDmNjJ8bIYAu0ryxzDs0AnUlp8sxQ1NU2o5zN2B3ZNGVrbrVippadzhlo/o5UhCy3MfDcNTusOP1e61nD2skfvpLc/m8IAJ1zqAc6s/12U6aBZ66qmeGM3J7ZWK5B1VDmqcx8nzB3cPRBkobPNNI2KmZrlecNJ8oLa1lj/COoqqYTXNxJLj8hv2zugv0CfwTb6NzzXSfDxOJ5TdQ7N9ktUzUrXS25kEkoiJo9WWu2B1KdMdWiFj5D8RmCNv7vV5BCS1lo/h6zspqOqq5GZaHF0Q9TlU83JutrwnFE2Ayv/fSO15PYBducuamlcebrkjcDHH6KtLwnc6Yl0jx0Y6R6lTtUyFlme1oYG6STuFuKrcnbw34GNsTdTyOr2XQjYugLTCIy3AHkJKwsvDcOyDn0UNHzWYqHOdKQ7sufTv86R1zxTVTJ/Vcdv67I09nu0ckAfncDdNKf5FC9MmeWA/oqNuHzXj6qL7md/pCF8z8IaOTD8rRw/oKvS8dWypCWNnY65xcDlNKXefxraaaCVh5jxv4VJXDcs9xFYmGdlVGzVCdnYRYb/SeqtccBBDstd2Clay+Sksgh2e3VlNxHoSShiPzD/Jbw8ro6Jssf0/ol43qv9nOx0jCzg6p+GniOcpOnFOgc7yjoRhopckeD4TdMqm4PFa8lr+W/wAFbxOltXwTeqM6g3mM/iQyUrmpHs6J2aT9kKSh/gwH7FLGnlspsDdUAirAQ2B/GEKQLI0tPupG6lqbjB7oHUwt4r1dH2Rwdesb1ZKaJ2pkDuqE6GndsVpyqRji/JGyAGLDrxjumZ1BzMbHsgdCyxO7/wAk8FSoXOZn/dUSp5QXF5BjDsNKrlz6XHW0A/V5Wahoo4pqOdbopm/vofpXL6R1eQLh+5Nrq9j5pDTMjHzd9j+inx0dNTWS0t95kf8AiaCU4PL7kfYLW/TS2riCjbWjQHtMbsGMtzp9MtQnqNVbK+opJai/UhaZAR8ZSOGl3L8uATZ/Hle/l19CtF8obzRipopBIcAvGdxn2V3m+nnwS7BOyxJHSsocQsCKA7AQH5+pIMjsvG05pBnJ0jZIZJkWpZw/DWgh6QfKOKyG+kNCONCVIZyyB3WMJajtnyhhDUTGOQnPdOmop7pLz8eFvD8GVlc57O6fLowyVxkJm1FdMrsxVEG/dC3TOnAQca1ATbugLMBOOJYCBxU5b0cBVIyhjNXiDLe3lajqM9GTDUfqipNrYbqW6VLUa0tFdXNm9lz6gaex1OZi0+d1NOtFSH5jge3hYmaUnfdbIOLpLtDbup7grZZYwXFv4hSTaoYO52yEa0M5YCTmTSOmqH58gFc9roxkFU1IbloKbMWZ+41H1HO6vmMZOuk1PPsr5JaB7uVUrTi2FoxlJdJn9CZNW3ZR2fNbOzTvGnP3SRSNtbhz4+/dVxr9bYaRQPhx7dlUtaWz3kkNjcVLaXDitgjliL2nfCWU0Z10RhnDh+qzX4bvTW2VQeSHnCfPoncGlBIxs5AOytKX5e3loI1+i2tjDX6bpIHUHbKNdEZuvpImwiSN2g+Qlp4UCvcG4czPul6fjmVFI8kdijo+V4ga9vS8LZWcetoWj63BZaOK5acxEOYchZ9GkOLbSQuYJDs/GyeUmgtdBPBG7P7txO6pCdZuoqmxy9Tfp8op4Glro543tdsD6pet4x/7Skoq55A1xZ+lZNG+Yeftqmnha0PwD3Z6K8T4gL38OdBGWdw5awZBcHyDmY1B/koZRLWtA1FwGVnAZ2ynD5QxwB1fuzhHy36MJqKiNdG6dmI4d5tO2srLB9054fq7dTRuuUcLXPeS2GJ++B64Slug9/4wvkzuRBJ8LFq6Wt2J/wDeVlbj9ZytoKmvax0zzJK5+gAqVrpnIjO2SlbBS1MYY2B2slp2c0JR0xivbXlzyzMcpzEzO4AGyPlPVatt5dDw/SROYHSVRDPTGT3VfOIan439DSinoGxnYFg1Lsjl6UTaoajkQOzq/ktahJWaaqOM9WgZcPdLYtjMR3ll50je5WZVplI+KSmxE7SfKtNOex7DWfCQO19QHlbWfJZUXGmnf0yZXNqmmSivhw4uB3KjXXhlr4050g5x3XLrP678/wCE1uuM8E7mEnQji/mb264n4rVk9ROVSOiycZ3iqpM1e5w3T/KfS+NuOyONGU87mvAPhHWNBbri+ItIcnZY19vuLHhp1bnut6jcRpqSpifHpfgs9E3257jjP3uAOmeY+kZ6fZSqub/+l1wtbqeliljkE2r6wtmqXf8AH/6ogp+Z+XPsqSuTX4LbR6X+i0n0sNEHMQeUFVW2TR1Hq/gUvlQHFSTh2l4ys+R0yippcZxujhvo2pIu2oDZN+lMsh0Wk7j0QUnr+HIqobsBQ3rOVPBrmnLO6XinQws9dTd4yU363oOtbIwZeCFp/wABxvLnbYwhvVdV9Sz5aF1ZkyEfLRTTlMZf2G3lHA8fPpGFvGI63lpKZnFYDn5yt4OrJacaBsgdAOhDXEnwgoCXU+XT4TB1REQGhv6po21WKGXQ5zVTiVoiG2zlreV3HhUyThiXyM+W4YeRhNWwqraGcka3dPcBc246MUiqYJIqggZ0SensoLWtTw1dRQyRnQx47uZJsWgei0rWVYlun+MoYxSXB+JMggxvA9f0WxlpjwvBe6j4uR0kQEH1VD89jsW+6f5cnpqRtrVwzFbrjQ3OgkLHNj01LW55cjXf5e2QqvN971uXBrupmCHb7LHDVRCK1EgJQ8wEB2AgPhVI0NYPsvD1UpF2nJ9kMWwMa12EHhlTYYMfyQbqc9T058oHQEtQUrQU0gIcD3QGaubXvdsqMkBRQua9r990KcNHwEx5RmqYJblRHwF0ZrryXwsIOFRaGVOAhSC2oD0OwgLg5OHaigIPQAsrcoBVX0mph2TE1GSulI9riUIWOttc+J4BKzUY1tvqS/RJncLn1A39mmGtknbIGSpcZY18OjW17fpxujhOIXDiCmpYCAepHBxgL1fausndpcQ31S/QkKS1rG6nHLvdL9K/BTX1e+GrDQmq6h+DumyZn66odvuujLKVYLnFWidetpST2TVOmNHSOBGynaONRQxaYw4jdS1Qf2+XIAxhJ08aaxXARyYcdk2dGbeHTUQBzVfOiV0EL2SAdvKewhv8ZMAG76eyTjFj6V0ketqTU6fIXS5ju+HBL8tsGUcrmSg6u6fJBtxq2mN7Se4VekZCoY7cnqGdgpddEI62hdLUAN21eFlUgap4fnDe2/qlkO6Phlxxvhb8BM8MVGflu3HlbMN6FqrVXsPVkDwsuG9LnVUlM8NmHRncpeDrU22SAxtMRDw7yniWhVwidNSuhIGnGr+SrlOMQ+mZUEtB6gcFZVIDqrW1uQDthKZlLnR6c+oOClycoDHQyh2OnK6YjTY1TAzL2gt9FrBFNLTwljnEmOT6Q3whlOLVLDNOGSA6XbDKGNnQWt8YPTkfkK0tX1Fhl5Ye8cxx3Y3/AJS0vXUluDCyHTpfuBt+qyQWnjOH6aWldLNGHSMbjV6ErdQuds5V2xlNUyEzEiMExk7Nyufi82QVVvLGQtqJnSE76sdO6OLZplw9aJam4sj5YMbT+8PoUF23Vwt1HHe7NQVLRG2N+W+7fCfCWv8AH0Gu5TXcmNvS7Zv2XXHGQTWuYT62eFp4opKGSodNLINDm9gtN1QZyxrg5nbYLflTN6uheeWXgdPkJOnCSPmnhkcdmeia0EVTFpic5vSRuoU0JqniPlMcw7nsFOqzJBU3R8xLh3JUK7PNZT0csxY4NWcdUjWWuyxxQF5b6qkhdbYe904NdI5v06iFWRmaXu6dvzKdVSieTk/yWAXBLgjJTn4d0VdJEQfy90J2GUvEcsUfMj3x3Ckf46ItXEbK2UiVvS7un+nPvz4PuNBOHNmgJMZ3IPZPxn9ouOmqH0XPZHoc36x6pepa85oLU1jY2jmHRK76Qm6575OiuTAwaj90dJ8ufU073a9XUsOnFUMz22Hf3QBjKuIN+lb1nHsdUH+yOji1tfCOmQ6FjfkdT18P8SB8ozVNNjOxW9bwHLU0rvO/lHRwDOLa86XYI+yz7V4Al4ftL8lrgw+MFH23hRcOGCRmCTV7LfpRn3W2pppSJ2kDwj6CyNo8brS9XPHStHVTN34KYdFmJmjPlA6rDCM+iYvXszxpACwdL5I+rfysjQMwLX7KkCbYdUmT4VJC2jI4mgY0qkido+np3AtPYKkherZ6Wn5od6+6awdAXOKOSM6dnN7Ln3FM6IGMZKdDxnwuWxeaLp3fC1Lopd5A4Yz6ZQ3rUWuWcObNbp2kNGDHncLYytlY+JKxkbWSMETZOiZ2AWFv/KrHPvDe8M3kPilzMJqCI45h7tz4TuXfk0lFUspn8lzvkSnVA/v3WOH0wYuHUQfHZFRVkJWPMBAdgID4XE3x4XhJCY2jlk+nhaxzXtJz5Q1b8V8wYQYRofIMIaongdoz6d1nDE9YXNft5QATKUynJGU5ljbf0dXhDRXIYI8eUin+FdTAD3XRhbGiGeDlz+yu6JREQAblC8Wa0B61AXN7Jwk1AelqArMWUBTLTgtIwmKQXe3tIcdPhBNZZSogMcuwwioNHw9NzAGE4IUNGj6LZp2iPS47AKbdC67iMQx6GORUf+s1UVlRUvLnOJZ6KV0rxCSRjY91IcKqupcTgFPw/S2R+M+qDSFFY4kk+E+W2EtXgkroyShoo1UplTQ5dhZS8OKelAxsp1h5bYWuBafCnpvDyC3bgxjZSreLfh5aaXUOx7rM1rY8PXXEbWucunJNNI57HdbVfqUG0Tmvbg91jaMEpYCz1SVkpdVQuadaXqnUROwPZg/dDeCp2CVuoLek4USMLJfUFKqqqLbK6QTxhaOnUFC2aFrXtGU+YPt5V2MMYD2VGzZfPBNHF0YLR3J2QLopnldJknuECUkrqISgkgb98pLjqkvCiKsqrTJyyMwncFZ8l/01ZxHFUROa1w3GCFnW3DP/ADYKp0jjgHss6JAtRUPkOPHqtjaWXClY9oDT1OKbg6HdamyfJcOXMPoPqnlJQklI1rnRVA0t7ZWsCOoaykeJYsyRfl8hbAcWziE028sOvHYLQ+kcN8QR1lM0MkaCf+27GQtiPpK11DI2YNAbuOk9kJdMGxxxSa5qb/Scf1Rxn0OLqQ0+ANvQ7brRCWaxRXB7C7AjidkxY2I+6ncHlZ7iThgy1LGn5VKT06T2AU7l0421XDdn+ApR0tc2Qjllo1OwPus+RvZ9xhwzDdrbT3S3A/F0D8NPrjuFTMRuwvD99inbpqnN1s6X5OHByvKlYMqrlT6Xae/Zb1mZQ0d3jo3aywbjzvlH0e4pJda5k2SzYuOSk161fz8wMNwMYLXnZJ9q683kvEULYTT6d/VN/Yn/AFUjutyc9rtBSWqTyY+qpJJJS73U7V8yraOnGcOSunzaKhfE3A2U7Vro0qbxHFRFjN3kKuEGPqoTI07b9yrHyRVrXMk/uo1aVXG4gHB/RYeJCqw4ByOnGxVuNs7LejgltQHt5be79lheirNTSU8+Pf1S8Zb19AtN2hELYpcOZ5yrdc98jmKZjAZYOuI/U1TtZ88Z2sZS1VQ98zNGdohvstNYEmsZhjaYTzP9Sfjm1A5Gh2HRlq3hOLo54Q3BJBQ3ix1YxjUnG8VR1zD2dhHBwyL6aaM813V40rGgJ4qmP/w8mUH+Xk09c1rGMH+pK35SgfUHeRukoHFoiJOox6h6JOGNIJ6LS2KSiGsDujlHTGlskc7hLG5kIO+gn/lL+s6qu/DNdOzEUcdR7s7p5KT6YW42KWmnflvLe3vGVbNaVygbjGMBW/GAwHatljR0cZLQgJTNOjATECYaXYKGxGeNrxsiQ1Cvp24I8qkT6pi/e7+E0paaQyQhmSqdIlLWhw0sTS1oWPnucA/IPhUlCFe0g6Se6nuNhKxjhVMYNzlc3P1TpbxzQy01zgke9rXvZzG4PYehUr/p5R1sfb+VFJE+Rk0wxK9o6fdMS6bK20dTJSa6WRs/w2477575HZMU6t16a2UQTRfDsdjnaP747Lelsay18XNDKqKZpqJqcg0wYNuV4ORtkLZXJ6ebVWPi2luQayVhp5BsC/bUmcmsHeOx7tPYjslS4iUMeIa+JMYvDQWkADZACZIJygL44n6w7wg53TwjTkoCupjaIyPB7oMztbDl5x4QEaFo7O7pji3FqAVS1GmbT4U22gaiYZwujzUxSyuaHbrodGapY/bCHRmvdSFBESAvYBhZ0LGMR0LxEMI6HnJR0K5YU3SldbTl2QjoZW6ULhL228rep6yHoJHQS7DsVtn4k19LcZXxNxsVzUCo4Xy9UnZQuxxOV0cDMHb090vTE1TUvfL/AJU3AXVFSGn3WtgYvdIc4WVSAK/ZpA7ozRSGbUX7rqySrKZhOybpTilpzkreg3hbhm6ylH0D8P8ATKlpsaahq2MIBOw7qNaYyuinxoSwK4C+nflXzWH9tuxOlrj32XRmluWooXAN1Jk6O5usggZIQWOqZg+Etc3dS0pCd1M9wL2+EkqkE09Q/laXd0yYaU75KyqGdJplptCaMVUtZJBLpf2CcujZ1TBM3UD27hHRMh5BDOOW0d00Gi+rtDWHpDWgpmyhqWno/iGBwB8OymmuCjb9wlR1NJ8mNuXfTjz6pNVmdPm934InhzJTamyM/KFGuqehMKStl1smaNUffKwWqRb5nAYcMnuPRUySuFA5jwZew7D3TADfdTWxydpAcgrYWg/j6apj0Tf/ALLWBDJyziJ3SPB7JoBLHQSt1PjDDnAx/daBTKGoixPTPI9S3+ywNFw/xfXUOYq0OMXiQeqzqOsPoFFxdDVU0QDi8t/mniXyInrYJtJbqjk/hP8AdaeQzttyY5uh+WFvSfQrOssPoaO21cbYKxoEZA7bHP3C1h5RW2hizDj5LR8k9nf0R8l1TFkbo9DWBoYfrB+n/wCU0yna+fcT2oS3dtRaIMVUeTJF+R4HlN8HxokkvVPpMVQ10NRns4EdlLUdeYoqKp9a1rYWukkb9IZv/NTU6dUHAV+qYGyyYi1fS09yt+U77cN5Pwsc6HU+sw/yE/yX/wAhkOM+EG2KFk3xImcezdsqOrHV5enWOkflTunUHeQM+6ldHkCyPAcMDHus+jQVTuZjYpjaXSOLmd9lbCIcSxAOBVqpCavAdId9s7KFVhdNGMdP6oVgZ0Dy4H0QZ6TJnCAMt9SY5skboTNTdRCx8p3I7ICu28QSSv1uyGjwt4ZsLXxFhwDH7eQp3KdaOOe318fSRr9U8IphMtM4sc3mM/KqwvyZPpouVzXYzj6MeUEuQ5tFNUYIwCf6IRrx/DpazwVvB9l0/DsjRqj6m+qOD7CGgrWNy1mMJeKSqY5pQ7BJB/hWcPKLgNRLs3q/0qX2fi98c7B85pZ/mcEfbOL6VrC3DHbrep8P6GhgfpdI7Dv0R1nDuWxU08bAMg+239k8SulkFjnph8mbTj/33T8T+im+2eKrie6Vmmq/7Z8H9UvyeafMr5ZaiLW5jeodwmi0IIdW+r6gdwnAyGoH0oAiXQGZTEBOi7uQ2Bt2aif0WxtVQ5kfk9k6aM9M7X0numjFrKKXA3VImviodP1KkjOrzPyAQQMEfUn4OklZVl/fdyltsqizsdLcssbr07kLnn+n6D/EiWCuqIZxHy5Y26HN8Fw8hSv+nlLOEHTa3xh7uXHh0jGjJHrhb/0vf1uKb42jmknoCRT1DcciQEH7hM0FNc5oGc0wu5jcifmdh6EBDctDYOJL5A4fARxSwGPIikA1OHnRjcpoX0je0s9FcWQzn5MtLhwa/LDk9wWp3HuHlludfCWtnIMEhOgZyt45NxqMhzdQ7JajHiUz4oyVnheGjx3MDnYQOPXMyUDhhBTdCZorWGsQAVTUtLNkpi57db/ugIMg0HOExwj6jrc30QCuuDufkdlnD8CVEcutrvVPK2Kp2Hl9l0ZrozS/6XYT1eLG4KTqouJHQviBQ0VE1YBTWLOh7yyjoQliJxhN0A6imznZHQT3C3agdu6eJ+lLqWyfMyk36IcaCgtTQB6rj36N4LuM9PRxAfmSSNZt9RLUykjZoTcMGrJ44xpaOr1W9AKGlfUP1uGyy1sgmSmEbdkl0pwmrYnud2RnTeFslvd30roz6NuIrjY6M5wq/cSuTSmn9VvS8E/FtDVnS2LqW4NzjKzTIeQyOeGlp2Uqc4t9TysBxU2U0mqGFmR3V8se0c27T6FNNCtxZK6KWLQ47qk0lYfU+mOUfwq2EtDqqmp5W6gBlZuMzqkjWFlRp/J6KHHR11QyNsoLRgLRAVT1v2WU42k1QPb/AAuCAhWPgLnsafmHymlASmldCeW8/UmA+GdsbtTDu1bGaUzB8/zDJu4qkqfFctEGPD9XV6osZ0XSyS8ssZIelZwpbXyPB2JLvKXUPmkdeyA9eka3eUnFZSCrotUmW7fZNDWqpqd4j0kb9wUxespc3yGQsk+y2NjIVl0EFW6FjuxWtXQXFof17g+FrKd0c0BADjlh7eyCWm9LO+nf/FCUF6aM5UrXEgaHeVvB1GllqqB2qL93nz/Zaw0g4mnGp0n5N2goNIvpeLflSSai45+jt+qnr/TfLY8N8W2+qAjM2mb+J57n2CrlO4bukvTomt5jS73/AN1WRDUaSKojmiY0HWyQd/QqkidIr/RS0dNrp9pJnhjJTkkeqKMsdVy3qor3TyUvxtJTYj1CPGcbJOLf2PonD1NRikjqDRtpXYy8OaG7KeoX7plV1Usk0Pwmh9PnL3j6gEnS1Ovr6OLLpXYEbckHZJa3GXwjiq4PuNzfLrJj1HS3wpWPS85wk+GGMuS2R1ZKqmUOqDBHtpG6irBdRQMdRMkZ4G6Tn6YvjjmY4loJJV8gVHzeWeZ+qpKziieGDk6gc7Kn00nqnDCSmlBmfAWKyotq2jYjZNxv0sDoSM5RwfT1pja4HVlKzolpp5QQT90DottDSaOnAVWF1ZUT0kh0/SfRYSmli4n5GxJ1eVNjY03FNPJomBzj8q3o6eG5UtS5kjdidyFZlMaV+qTRANTihHWDqnpGPGHlzX/wrHLYJqLdSfDgNDud5aPKCkrqOQSuje3Rj8rlqv0af9D0c1Prdgahlrmb7+iOF/sJrjwJXUTviba5znN3e3/0Ub5r+fqppb7BVD4K7waX+vZcnpLHR9RGp4WZK0vttR1//bcl+2Ej33Shk5dS1zC07Edls9D8PLbxZUwSsGS+PyrzaF841EXFlMYsujdqVpahcBJ691W3mBuGDs1Ux0vANZbaesgxjTIFuoeWsJf+FpYiXQ/V3SS1TrKuimgf1tIdndUljbBHNLgAQmT6tw/Tv2KbjehaiEkFbxnXRMEMRz3K0tdHH1aydvRNCdGDxhPGVY6F7s5OB4wnmiq57Q+fBa/t9Se6YHoaCDTNEcE+CVO6hoJ4Wo2U7aqodF1gluojAXN39VzGa44ipJ7nNIflxOA0gfxYU6exmLRGxtQDTSOgqZDy9fYfqnJW44dPEGh08z+aKYubFFsd/X1OVhovuXKrbHLPVyYr4iXOiAAyP09FrOk05rHsphbp2CQjIawkPZp327YWys/1seAKyuulzno7t8y4ujD45d8uYPBwcbLpzHL6/j6E6SljiZGwuAjOGEgg/wBUtcu2ls87svgf1bB0bluv8cn/AEz3UzPgcFR1BeJwcFRjrSEGIAsVQZHjymAeWsOEABzXGTSfp9EqvBIb06ggcRe8eqYFL2/4g+6AlPQ6hqwgdWSW3XEOndvdA6BqLc/Tpwr4p8bZ+upXxPT2u7CiJ2Viw2IlAGxJOmHQM2R0DIoUvQs5KOh5yQm6FEsLB9SOgrq+Xqw059kXSGquoKMu3LdIXH6b6JEq6ugpG6WndbjzKydXUTVtQdzoyr/LXlRPHSxaQck91nDF8DX1Mupw6VlghsxjWsDQFz2qSISx5SWqcCih1u3CndNkeSW3IxhL/YfgGa0D0Vc+pbkP+znN7BV/vJ8qpKKTGwVsehbkKIZY5Fe6/E7Gqs83yQHbqVYZjmPcC1TYdQ07nRDVvsr5KnDG5h9kNNqGt5Dw7K2UtjaWy7Q1LG5PUrYqWoY/EkbZyMqiKiXUH6gMhJqKyq5PmYSKQDU/JOe4WU7nVb54PdvZYAfzpHh+cPYtDqiVx68bjut6ATLiW1Gh30FErRMNcxpId2VJS2Dm12cFnUPKolU4pzHIZCel3hBVFdLracd0NKgzPSQs4pKqmjbvndbI20sqmbYat4XrGcTQ/DxSSEb42Qph8vbA6atLjvvvlYc5gg30+UFpnSQkSBv9UJ06ZTyYyw7gJoVfTTVEL+3S7+60DX3KN2I37Sjx/ugOdTMlaRktPcIPA73iJrDI3oB0ags4fqPxuiowfyY5UjVpn0Dhzj2eCMCsdzYmj6nHc+yabLvy62dr4xpKmtjdTy8nO/Lz3/mqT0cm/JsKXiAyyMbU4IactJTd6l8GlNeqIDl4xh2r7oZI9uFugvAy6eQRfwMOP5qelJAVvohbZ+bzS5p+WIif5FRreAeMap/7EqpJJGAhoDHD6u+FO1bzy+REaj2z7qdrsga4VIghLcdSS1XNZl9WI3STn97nH6IyrKdW6tpjFpe7ZwyW+6a5VDVl8jpyYxu3tkIACS8wv2Djv4RwK5asaBjsnmQAnqI9Pff0QzoGSeMDOceyFJVIk5+zO3qnJ9LooPGcoH0JERb6FIPpbraMEbeqB9OFT09Jwt6y6DTy8xmHI6ndFj63kvyE/B9GVovEutvhHB9N7ZuIqZrdErgnb/Y1NDX6GsqaJ3X+ZafpzFfZ6lzdZ0u9kcT1g9s12EdWBUnLRsHe6OOXUFX408sramncHk/WEEWWMVE0bmxzaSw5DPy5WJ8V3uur4KmN+nluj2cQekpZo8/GT4vhZW6aos5Lx3LO5Kj6R2ef6q4VrSR8JWu0PG7JPULjuF4Ovlztpa6gdqOodMuO2VGqQhqaKhpqdphqNU0e7s9nKua3WTC1XKCSDlyNy4/m9F14259ZPPiGxUwnD/lt207Lp1riHxU3VET4XTNdu8dKX+wfFJajVPM0OOG9i72U7pbOWevNjLnO5JY4FS+1medRvbIQRhrVTHsnryWOALNOM4XXnaNyWv1cw91Qr2SPXpPbCGVE6uw3PhNExUGXgAfqfRODKjp4YXOJdqJ9UTJXSVTWa29tQ7p/lsI7RXCG7MD4+ZGZMafvsubakjZcRv5cXIga1jTu79VOQ75TxZzpY5G5HMj7e6ystLOB4m1F8paWqjdI2QEyR+S1oySPsqRO1pWGot9TI8wmro4+pz2EgaD4P+YLeGlMay1tm5M7I20lBIzmtkcdT/Xfys4XrOXaKaousD4pY2c0Zp8Nww+uSFkGae8FTWK1URvNyFSZRMWR3KnPTGR+RwHgrpn+Ien+vsFbUUNdaqa8UdQ2phkaGtx3P3CnajqD+Gqx3xTYJfH0fr4Td/HFr/WpcfH8ylY/P0IIcF4ishhHIB3WEsWunQnVLqrJwe6A5zy44QwVHSlxz5SrCGQODdDkArq2ujd6LOsVugc/S9vlPAZww6ocHcpmCRExufdDA9TStJyFSMwyl8ptnHG6d3Y0zjMNKZ1dHU6SnhhTgJDmNMgD4lnGrHFoCOBQ5wHsmYQ3i7CM6Izqci2SI72hZaOoqH86QEM77rmukjK6XSnooeWzd2Fs8z/TKP59fM47gHyqwIVhjo2Y7uQCqKnmrJS47NS9aZx0/KAaN/VT1RBbGEtUNLR3wznHZQtUiQg0DdbI1ZDDq3U7DdRqKUrGg/gyfCxnEhbC78q6fGk0BqrTh/0r0J/iNE0VJoHZR1SG9L0kLYOGjatg2wn6WjYafnR62n9FsJVLiWuwRjCZsGUVwdBICHdlTDNRrrbc2VDdzg+itELDfmN5ekJ5IwHzSx/bpKTUNK8qo2vi2UafoelgDW59Fsg69ljbEec0dPlbYJQbKykfOQ7Zp7hZxSFlTSxGpcIvp7hbIYLMXAlrvCYIU1U9kuM7J8k1D2CYSw+Mpk6k+QacEbhbCBhnVla0PMwuJwO6xpfVRua3IG6Gs1xBTyTRFhGQUKYYeawxRTlwOD5WHQ+Eax2r08oLURWxxOwXoKeW2600m2obJoWm7RDMzfGStYFqqESDSfHZZQjBLPTYb9bQex7rB0d8upYdJ3PdjkdNATrQA3TG7TIPp9D7boUlLqx09KNxokb377rFpfxdbuJ3U1RDI9xY8fS4dgtT1H1WxcfU1U1nMPUzuQe6fNc+vOttBe45IRPH2H89030n8GNDeOoBsmPJHsstA90zapz+cCxo+lzfKnWEV3tldJbp4WkPZJs3X3HnKnYri1g6ZjmPdHL9cZ0keqncuvFDX6lEtISO47KeoowU8E7n8zHym+vqmwPoNNXtiic92WTZ2AVVZsulu7Wk5JcT3Wcb9pR3GLAfnusb9OkubHHGU8b9B3T/ADC7UdPojhPtRJJqOTl3ojg/sTZNMwtLG4CYn9gkVlbnUGbLR/Yi2uq3OPSe6zhf7Evjp2jD0cH9iUNU50RO6OD+xWaqR406UcZ9hJG+Xhaz6TimZG3LRuOyB9CW19QDqG6oPppLBxXV0j2seSYj3CDf2Potlrorhg0rgHt75WOj66dU9wkB5co98oZ/X00jnjy4h2fZajfNoLBeBCG0soGh3aXyhGwVeKJ8zHVFJJqDR1t77pPlkZqppZJGfM2Pk+inqOjGiCeiEbnNBO3YrlsdcUS0xd9Ryp/Ji24UMhAfG84b3CbjeqqGtqKCUs0ao5vpcfCG8OnXWCKlEeol0n1Lbu1jxlwkyIIzqx9PpgrPqjgj9oS9i3qb291s0yxdJTU9dBz+aIdfZv8ACQq/nCwqqIYpYDSaA6T8swz/ACXNr8/xToGKzSMOdj/l9F1eWiWQHdLZLFC6eNmzR1tXZNOfUJmvjds059QVVCroYOklxGE0KKpWxul0gYAVIKJkjawFwO6rxO6Kq2bXq3wxFZj/AEBwzSSV/FlLTQ46nDHp6rn1FbePpvG9tipHx08LxLJj5vrqUuNuvx8u4utvKonmQdf1H1wjcZ1luFWTvusb2v0fDHmCYnScemUeaWuvrEZ4SZbXU9FLzKibrdTynEer7909rc2sl8JfauOaOKibymu0uLX5GPRqXqvFFusD7dczbLvl1JUkPYDs7J/hd4RxL9dY7NPaeO5bZRzc+mqm7Qn5sD9Xr4BHqm6Xc/G/ouHnQXJssEoip6TLZ6VhOguJ749k2nP6Wn9qq423mFmTq5gAPggpsuX1fQ5PCTTI/PzpA1wXhqxzqoIFiQqtXlCdiQdl+UM4KiLEDhpSSt9VvDCpdOdQ7I4ANTTiTvulkT6jDTYGgjb1VJGdWkiJvdBlDqsau6GiG/Ni1NO6eE1+E11ouY3sqRfy0xNTAY53A+E1ejBNOp1SGEKQ5nTNQB7MNCDKpXoBJdruIgWRHLjtstt4l6bL7TaZqyczzjDM53UNXrnPrhcKe3UfKYRnT2C3GDWsfzJ6+qJOdOVTpZB888VBAPLsdlihA8zVs5eQQxYDSGIMjAYp2hexvUCe6n0QUxoLeynpaCYY2+igdRV4G3hVkZ1ZRQnTup7bKsmpyXbKTevGULvTdZTSjYLedtl0eJdPKyz5jyBuvRn+I0rbRuZkFQ0V7EC1ybITmY87tTFpla6ySOPQRv5KbKdXVDtZynEQp29W+62GplT1Tqd4cDt6KkqVjT0F2jljGTuqSp0U6eN/SStbFBmkaC3vGlsMJpo2ywnllEgRla5sfLl2HqmsYRVoiHS0/YpeGlCv1ZYSd/VFN0FVyAP77rB0C+pwdWMYT5AikuO/1YHomJTaGpa/8y2EFxn+qYOke1vfHslpoXVVTDg+qxrO3KVrs+UGyztTC1x1Y39UG6QX57oKUvb3QxktbpHZJ7oC+JtVG7XCcJo03t/Edwgd8wamj17rRxr7df6WoZ1jS/HlLSUzZDT1TdLHtJKximptNbT/ADGN1N8PCGJ0dc2dvJqo9BG2oIPKhX0IdH1/MhH0nyg30z9ysDZI/iKN2JI/rgd2cg8J6SrqKOR0kgfEc7BarP8AG+sPHdayMZPy/wCqOp6y29p4ngrjs8wOI+rKOpXDT095mZGOc8FvjB7pLWfIqLihrjy3BvT3+yeX8NMs9xA2D4n9oU27CcTMH27pbVZQuWTRkfkIS6ybrPXTheCVhZFKRqOot8KUHSKu4Ulb2GRjCtI36JY+EXgP5mx9FvB9KDwsT67d0vDfTm8Lx774KeQfSbrTTxM0POy3iVTgttOSN8tRwDHW6k2GcLGpzUNIIWiIjPYoCnk0kQxgakFDyW9tTKMbBAFC3R08BBAT8TAfCjOcI4A1XBq/KjjfoGyjPhHB9JgBg0hqZi2B2dm7fdAN7ffLjbpdUOTn0SrzbS0X4hEPaKqPTnyhee7TWjiaCaVrmyDD+7SmP99beiNE+kE2olw/KCglyZUV7k1j4camjYsKLE7B8rKaZjtA5Urvqid2SWE6zN3gmo3ZezXG/wBPCnrDqxouPLeNUf8A6rk1HVHj4A8YHc75SshTcIpWtwxmp42H6oOXUzKl8vzRuz/t/b0SsNm01GxmaeUmQ/8AZ/MHLKFdNWxtleJ9tA7ecqedGse2+uZHNJVuBdE7pEavNE4Jpq+OeV7HN5Gs7Ed1jNGVNa6UAvD3Of8AmJVco3S2pogG4eRjHS//AJXVmsYWr4dpjUyxwuMc46sflP2V81nwXxWmtkkcx0nJ09tfYqsT1kdRW+7mZ1NHSunqfHKBIVMoaN28E8YSBo/Z8mXEawRjAKbW3Pf06m4S4EpYTT3B87qyMYqQw4DCVH+51+X8e0VwzwNwDbbg252+4za9iI5MELL6Sl3/AB9IcYXa3VV3c6lY7to3YfHlIXX5lifxEtv/APCuukbmmJmI3tP177AY+6PQYfLOHrlV0k7J2RQGF7tLmzdh+nujzbqNjfqOoqnMvVNan0zmhoYIwTTy+vdNYn9PaRvPmZTVNS+2sY7WdLXaBkbtCWRv9hHfIQJH1FPVT1D2PJjilPdvqPZMpKnwzw1xPcnPrYasWaWR45Mkp/eDwGoT3X0j8O6mumbdobjTCO8079LyM6JGj/uN+6fTn9IcWuTXfqXUMEyAke4TYcvvH1B3up6Jl+eZ2OPZeIboZ0b0zerIWvQwUNu6Ag+p0djhAE0lyCxkMo7hr2d2QTS1s2XbrSQU6WMRdlp+FNyqenpKGl8M75XblAPLR/C7t6J+s2sraYHst6Xz0w96onMm1ae6d6fnoJSt6ljoNqeD2U1YZQAN8IPxa5yWGkJbxdeSCxmC47bKkc/psutdtlrZjNLsO+6nu9Rh9cqylttEGtxrx2WZyxkg6ouNQSQRGjVNwXMae3xZ2Lx4SZaSf4i5VOTkMBVKDWOl5bA1o3SWgdHTaY9TlNgUxOMmVlNkVFG5IqM0aI8lL8tASHW/B3RwD4CGtA7JNz8EWQnmSZKjww6KMZR8gdTGNvdVwy0ZM6F0WMBehhLRBVQMEh91HdLADqY6stSzR1sceO4Tylo2Gn/MB91XKVRlG/p4VpCpMiI7H9Ulb1fjITRicFSYXjdUHDiOsbI0EHdPGcGNuMYYI3jb1TUqTZpYPmRdQ7/osC5t3hqRplGCtLQ1RSQyD5bgfdNCgZbZK1pdnUt1G9ASW9r8nJDvOUvyeFVYxrejus5w5W98kZ2zhAMqGvcMYOVsJYZNuJ/MfstYhPXgj6lrCmqqu+HIAB5e8d0NgZzdLgCMgoay/FmGx8sdygdZRsR1oHR9P3WmlGmma5uQEN6nTB8WWuHSVgG0lRW0kglgJI8tQzjY2LiundpirNn+pWUcPp7TRVcXNgIa8/masbwsNDcKYkj5kfnCC0O6jgneHRO5U/lpQOk9yt3Vy6mPIz9YWnlAstTGjTGdlvDfQ6kir6bDqdxI8tWVnWrt/EE1bEIXDQ9gxv7JeDqZqauKbUSc+cei0dO6K7iVuHdsaXBJTxXK6SB+qDdj9yCsasFWSAfKzgDV1W7SNOE8aUz1UpkALdytDwZ0ZcME91gByR9Tnjz5W9AB9Kx7+rutCBiZC7AHSVoUzvB7bJQDdztXfZYEmzgHDxk/xJgu+LmZ+6G6ApnuNTM3QfqHdb1nypbWu+kjdHR8oy1TfRN0nyHa5ue6Oj5etZHnOd0dY7lxeqOgQ0yxt6HLQnK+OVmJWYIQFlN8nqjlIPoCg002XC/EN2ZUCLOpnuULZ9G8tt8tzYHtJ/xp8eEdU7DG33V8hBndrOrwmhLkZVVrKhvJHbKNTrM9gKeijL9dOesfU0dlz68V8+qv4UNBLstJ8Lm/rq09IHqYTj62uB8+Ql4tCuWm0uJ7g7A4SWt+ottctvgrBLVxyB7P3ePUdsrfzjOqbvb6CeqdUW+TTK/dzTsMqXyeUPSU8zIzC+Nx9S3daW0VSzwW+fXPGXlo2a4eU06y2HjL1R1UDvhCGyZw5hG/2CeJfKyNtXj/ABMREPiQfSunPeJl8trj5hkdgxjfdX8+l9NDGRU94fDRwUoeTgdth7q8cu/VvWWqKwUpkoQ10sY+bIe63W/xHN+icfiNpaTLIB1b79go/XXZP4f51gOLbPxTfL091tg0UtSNYcfzfZZ8WurH8nOJxRbuCrxRTQw3SeSmadsg7D/2VTHnxzev87reR2S6WqHnW5jKwOGHCUayPcLo/OOL+76rB8X8HVN2dI6rquXM4F0UR+XGJD2GFz+imWB4D4K4WuPxlNeC6K60Mp5bGOPzP9lTz5wuu9EXptXaKWV1JdqhtDJMYhQTHU5hHkDwFk1+t+UnVUtztEFlaDDOMyNmeOqb1OfZZpL5/WWr9DZaanjlAlA5colPVkHu0rZk/eNZYuHLvU08dSyo5TqSTTGXdUZj8jHr6J/kn0+kWSGnZBDVUzhMSx0RlPceo+2QjaXS/hnnO4vZDUNwwO1sPhPj/HN/IfVXk5Hk+qj/ANLP8fBnRbLxDBnw4dumCbQ1q0ISv6UAsllJduUBdRaso4aQ5Y3pRwm4JYTpz5QSRz6lw6e4WKcLZZC4ub6LSvaGFxk3QxoqWnLXNI2BVPhL0o2WkLm5CPgsrP3u1yPjcdO/qmd3hpluTyZdPlD0oZREhuVNWL2zIOEuF0ETMDGorbEfT0KrfbJq+q5jhlufKS1z/wCntfLS2ulAGA/HhZnLKzGKi61WX55YO2Ua3xsMpjS2+mw3GvCXP6dnJmT3CozkhgKYGdNAIGaWjqS2gwpad2Q5yn0QRPgDCD8CtjyThZRIvjiKQ7qybS3StBfA7VJkreAVzh2WajRVK78yl8mMWSAjZNnLKlG4nYLeJ2iOXO5m2V1eadpdVmT03U/TDYphfg5KT5OLlbHy9bf5J4WiKOSORnfHjCrlPQO4sdC7Y5arwj2iqMtwUsgFSHAyEUA+bl263NbDCllDexVoymTeW9u53TEVvqJY+nBI7LAgdLx2wVsYqkmq4m4YSQi0cSpb9LF0ztJasm2J1tzpZI8sdg+Qm+zQuLYXM15/RZ3pwk9NE9ob59VgBGl5Ry1bC1F1U5q1gWavyO/ZNC1UKkOG61iUcm+PCDRCpljY3U7xuhrDXiqkrKo43b4QAbaRxO4QBMdG9u7WoZ0XEHtOCEDovQxzUGy9DC048IMl8LqdrBxIjgNLLfK63zaS4lv3RwNfR8Q0k31u5MjvPgpaWq66ipaj5o6X+HtWMLKh9bCzS75rB2KaN6XvfB+9IIkP1BaOiqSpp9y7Zvj1yjg6Zxx0kseqnc1svcjsVvB0XHPlzGOZ9zlZwdSkdqBEXS4dmpLFJXprZ2MbrGdKzjerIrpHINOA1/5sI4OvZ2seO51LDwI+ORpa7OrHZDXSzam7tACApAY5pGcBADTtGRg7BMArwyR+k+EAJUxYd0jGVvADlY1p8o4EXMasPxWSR5ygcVtaC4nygcVSSCN6BwLJUajsFnS8UMqDq0nZZ1nF0k2OwwjrOK21Put6zicdadWDsE3SCDWl7tsFHQKgDO/Zb9m+DaknfAWuifv7I+ym9HfjTu5rmhzlsUauzcRWuejdNK/lzN8Jzf2HlFeKSpj/AMNgv8u8pZTWndlm50joxjUNyqTSVFOqaN8r2uBjA2Oe6S4NnRG+ikg5szJchzugeylfF1T2W3J11jp2tZAJYiBl4G49VH0/jmz7QsiuBjdzHxFzm7Brhso/1LzcNI2U1XCx2A+d+fl+iPkl0prqHlNDoY3RSju5Hy3qHxkk0BhqIGSu8vx1H9VsyXq2js3zwYn6QerTt3+6pMkvo29HQ11RaX2sRRtbjVrcew9QuzOPxxX1/es5Jw5XzF7ZnaIgDkjsVbzyNe36ZcNW6W10klwheA5gI0Hvgei3Rf8A7VnuK/xHq20EjKZvMllJHKwubbuxnOXz7hWanud/EVzl+HY7qdqOGj2WecZ7+t5+PulKbdLbRT0tc18lIOiUEE4xs37Lq/yPM+dUvmrrLdqYNranl1rOjSzvkecJPs0wUHjS02EmlrKqSdzPp0fV7BZ9KTzfKuP/AMUrjeL7FG+Lk2ukcHMhc3Dv/MUn+umY4Cff2xSxXemo9GXZY6PbYd8ppf8AhNAKirrbvfpquOhNRUVIzo8D3Teef1K643Nk/Ci6y07Zaip5NVjUCTuA7wFbWOOb+79XW/gCotUhiq6OKqj1ao5jhz/5LYNbaigtUcMT2ROHzNzGfHqtqcL7xUut0DmQloH5mt22U9sl/XcLyCrv1KY/pjBcfb0Cpj/HP7vo57+22FD/AK2f4+FiQYwe68IwaSX1VGh5ZmoAd8/utYF06nrGGlHDs3funObxMbpQHYKOFeOYcYwjgCmncH9krB1DTZOQEBpIKePT9l0SpWDGM6seE8Z8hbnTN0EeFt4r5Pn98puTNzANip16nnQbag4xnZSsdOVFVc2xt0s+pITe1FFa6u4S8x4IYmc7RvlpLTS9JHMx2R+BlnGqvNYDJkRZ8pd7/wDwGk/wtuptDSNeFKTqjNyPnragjJ0p/wDGGAa2CINaOpJawbb6Vz/mP7JeshoyP+ixSRTPGPRKorZFp3KAm1pwT6LZAWXOQk7eE/GxRTamsJxujjaiJS6QLLC9NYTpB9EvG9FQSjSt4y0ZSHLsp5lOtBTtiLAVbH4nQNwo4g7IAwUbbCSopCzceq59GdHG5zMZ2WxiqPmwzdshL2souVhnbuuvF/E68p6blnfdJ39J1dPKGN7d+ytB0pfKdZ2WcNlZHXlh32VIYZFc9wWlU6zjS2iSnqCBORutJYY3W107acugwT7LCkQcW9MgWDrpIKWTAWcaAqrRCDlhxlDQMluqm9pOlbB0PK+vgGQ3VjymAZ10e4dTMHygBpahjx6IBfJjBOVsLVcbjnTg/dawbrbHHq7keCl1WkFyrZ5SRuG+iIAFPT/MBI2Tgxit2s9OyAPZbBjBCGJOtDD4CArdZi36UHlUTUM8bc6dSG/SqOX2IPuhvVxjhc3OBlAcJHNOHDU3xlYDOiuFVTgcl+sZ+hxQ3hqLvHINM8egn8w7LU6rko45AZIyHA/woYA+BhMp3LH/AJt0Dq+Oi5fTzvsfKG9DVPxsQ1Nkw7w71WmliEd3vEQ5s0HO0/nZscI4b6i08WURw14dHq6Xtxs33SVvz0VQ19tMmYpwc7791jfinkdxt50kSAk+EDlTqJG8v7+QUcb9A5adsjiGlKb6BBksGWv6x4yhv0HqKhzfyIMBfVxh2SN0BF9ew7uyB6lN9Djzm08hGX7eFv0OIVNNkgwuBC04cxPAO26AiISO6mxTU0Tnx5zugFZbI1YxW8nOcboCJkee61NQ7mB2yArlcmY8gnfH23QDOCuc/uUp10dxdA/YlAMqW5te7qTyso/4iNzPlnDvUJ+pjrHxBVW6TDjlqG9bvhzjCjjrWTB2kEdTUBo63i61VNcx0ga4NHYLeqfK6a6WiqmibSOAkbjK2aHyc1tVyWwtBadbew9U9Jwtmdb88mePEj98pfmGmrFdLRigzVNxgnobn+ynfOH/ALlFwu1yNRvA0xY6U08o2exTNceIoqOSphpm6t8j/KlvlwX1J7Teqqqc6SrD4nQnrdvjKpMQl02P/UuvlSmpcwMbp6TjI90yfyfWzj22Vgjt7mf4nHQ3wfst6y4e3fjbhyCE09UOXPnTyR5Cxvn5s0KqzV1aaCnpmtdI3UyY9x5S6U1KwXGNlp7TN8VFUZkc7EjUkPml1puVyYTPSVLogdnPOU9AW7Xit5z2wzOeWEPdK0+cpeMVVFfXzsinqATP31ncnHbKGfYC5QXKulEjmfMfgff0SWn/ALEqOhFFcYKe7SuhoP8AuY9/GFXH6S1veAKWnfd3zWuGSW3uyG1D/qC6M/ji9dPo9FUVccr+cwgatnuPgLNb6jMjam8W1mp7ntc4DLnJTcY+98a2+nGunj1ZWwVl7ldI6ofEl+lmMvaeyXWh5w1/Byt+Pr6qpbkxtJYxx8hV/wAy5PS/+3H1rJOCpGj4G5/nyvBX4olJDc5yVRgRwe5aHrYHHusbxeynHogcFxEMTsEioA7FAFQu1qnCjhGC3cI4Hpo9RScAqmpNDsAYRwGkbNK2UvFhlAOQn6OK608yPZZ9HxGK4ihzCceOyd24rGTV5ijc1u70ti2/QbYLFU3CoEswww+qnYl/rSXOto7RTCGMjmeyW/jWZhjqblUOklzy/dQ1roGVVRS2yDDcasbYW4w2M3zqm5VR0505T/4czjpm0zPVxSWsW09KZHa3fyU7QcxQ/L0t2HlJ00ixjTu49m9kdU4ok1ZwfK0O+rAWwLXMbHEfdVkBDVDXLhPxsXCIMhRxtAM/eosTpnrAYAl4zrwVIacJsz9HR9JU47lPYym1PcMN0d0lqdTlmfI3B38pfoQI86jhwyl4d6xjG5x/JUkY9gjZI7qO6TjKvliZF37KkqddGIXg+qfhAs8Pr47K+YFLKWJx37reANXW9unY4WVvSwcyLzsslNk0t93EZHqm62xp7fxC17A15BHnK2VLQmf4Oc6mbFaV7S27Lsnsl0Eay2SnJhxkeEvR0jndLFlsjcO87LZWxBs0Jb1HIW9MGnp6GXfAKOgBLbKQ9tkdCMdjif6LZS1M22mg7gLesBVEcHghYCCtijL+4TwKooGNITg2iMbWgjZATNSzOMoAyna2UjfdAN6az69yUMq2aygDb9UM4Bn4YhmaXY39UDrN3Gzvon9BOlCuQglIGmQH7oOg8Ob1wu3QBMF2kADKlufdDODIamnc/MTiM+EDhlEyB4xzNz6oZ8PDT1EWXMkBz4Qz4V8yf/us2/iWlseOdA3O+rPqtHA0vwjwRNCJGv7+qzhpqoMsNiqWfKcYpgMaXeCjjfuhP+nrrQO1sBni8EFHFJpz71VwyOjk5jf57LOM4c0F4ilz1gPA/ms4b5Uz33TvJg6TjCzg+U3VtJVsy0gHwjjOl1QzGfKOD6Dh/wCXRkecpflv9j001K84HS4o+R/YrfS10EgEEmr2ynVm1oqqhjcTR/crW/b0yxuGR39Cl4HjjkYGyOAO+jyNWEcAOaliPbZHAH+FcHb9kcTeug9kcBbUwE9tlgCAyNQF7JkplrZs90ASyfHYrJWVL9rOZsCQVTqdEx3Z53ccj0R0D6e5MO5OEdBzS3eXSMO1N8Z7o6O0fBfZ4HcxpwR2wjo7T2m48lkmh+M+hmMKvVPpqaWsoLrVx1PxWjGMsytlZ9G98vNGyKGKMt6Mdv7o1o+MwqbeWVdbDAx2rI3KfGiek40VY0xU45UTpC5uHbLdaRyy1a/4elcPhsNe7L9tv1RxeZB/DPr7dI+MtiGMYGxKU3HUdXTQSUzJog24wfu3t9vdA46az19/rairfHh0XYZ7hBNWxzKKqwZoYXMqYBhr/t4WUs1ax9bLdK0SzVXVypOuJ3oFkisPaZlJerJy7DTjns/et7Hbun4l9/rKWWdrrm+3XClMcsp5Wvc4Oe6Xg1vr6JbuHqQkQT0ZqX0xy17RhrmD1WaicD2j8P7pcr/8RUxfDUjcuiZnHb6Vk809en684x4Ys9BeKYXWB74m/U4HO/utzOVu7bn8bXh+58J0dII7WWMj0/uthuunvXHZpC+18ctNqj+s74B9FOxaV8mv3FFfzXxxA9JwVg+0bLXuuL44qhuw7+y2VlvVPGsscFI2gpgDLUnGW/lapT9p/rkfRfwWs5orNJKW6cuIYu3f/wBXm97t9IyuZ0R8ObSE9wvDdDx1B/lWlUNpDnsmgWCnDe4WmVO27ICmWXC0qEc+rygcNaGQ+qZuoaxTLSQUyULAZ0+l7c+UAS4Zb0oMpkZluyAnFHqj0nupw3GW4mjbFE5WmlcaY+z8OSVtU+WXaHOyz00q0VbdaK1U/IpsGTGBj2UPoMt8PUXWs585IZnIBS96bMMqutpbbS6G41Y7LZ5i1lJ31d1qNDQTvtjwntbGgobdFbafU/HMcFC1R5GznSF7uw7BLSjqeDIOFOiGMUW+OwxulViTgPpA2Ww4R+5/sqFThib5CAoucuhuAr4jSSLU+XdMBNQcREeVSQtK2E89JoouWXsFkjKHEm+SqZhV/wC0Wx4z49VTgMLfXmbBBSawGhpvmNBU/gV1RSkdTVlyUvdIWZ9VhlUVQ5j9aWsE1NRJLHuq5sLQMFXKyXS7P3R9FkNnFkkOXd/BVM7ZSiSsex+kHynrIhUV0hbvutMhAxszMHuVMA6qhfHnT+ipB0NBXTwPDTlOWn9tvwI63HZBWjpeIIyzAcgUfT17ZXd/5rOM4NZQUtQTrAdlLphdc+FGHeMYCVjNVPDNWwnGcKmWylr7VcGE7FPxv08+Jr6X6m9vXdHB0rq7nVvcc9j7IYVz1Mzgd/8AZNMtBaJnbpvliccc5ON0caKbBXEaW9loTjttwLxqyhhzQ0FUzDjkYKSg+gr+UMO7ojF3xzpCA05z3C1hlrjbSk4wQFsbxlb3K2Udt1pir4HWzcbIZalBaYXu0eUM6Jk4Oe8dBPsPCw32XycL3emJeGZHsgfah1NWRggksd6lbxSbQFZXR4/Mjg6Mivb2jTJHv5ShfHcrXM7TLFh38QCDSPamO0uyY5tLj4QOF00Ibjkyaie6AnDXXendpZPlvlh3/ktJTBtypJmu+Mpy3bTnGQtHaXVFopnSc2jl07ben8kLTRPU2y5R9cg1tPct3Q37URzzwuzG4jA+gjCCVFnEjmzASZye4KAasudI8h78Z/LhBOIVFUNWpp+yBx3PncRg4cEH6sguYL+XOOlBLoVNT0b26mOU1Zp42PGwwR6rFJV+BjG2PRawO+mZp6VgCGBxOcJyvW00T24IwfVACT0TG6tgsBJVRsDtggA5GPj7HKUvXrHu/Mjg6kKst7o43qDXCR+5QwXEBhKSL2OcPKFInHXTsk6SUNNWXN5aMoYt/acbiB5T/QHUtxnidrZKQfGCn6OGE3EdTJgPeS4DvlL1nUqC8VUUokY7Dh2K3obC0/ibU0J/xDOa3Hf0TdbwTXfiVR1sDo3QgZG4x3W/Tel1HfrTyi0uLCDqat6yaC1tdbnVgqI5dwjp/o14e41oKOd4qHkmXbuhM+peOOHX6o3gjV23QwE2r4NZVySyxamTfV2QX9FWrjDg+x1Ej6Cla3mjD9IA/st6WwLdeNuEXN+IpaJsM+dRdpGcoYztR+Kk8crZKcYI6f0KAHqPxR4kcS+nlADfT/hH6zgC4cf3XiKNrKloc9uznY7rZAROqblb38xpcxuc+VaRHVbSw8XtrGRM1an/AEvB7puI3Q2/8NRc1tRHgNm3f7KetSK4j5XxBxHPb7k6ktL8aTiSU/7KP10/yZcPRzyyCoq5PiJ5ez3b9/uunwy5vfT9IcH0YorBSxYAcWBx/wDMj2rn8p+nWpQdD5IyJq8VdJ7EFDOjDfCpAHqFpgErkABI52pDeLoYerZA4bUbOlMzYtmtCcGNPTqQfhjQv2QOGlP2QxMQ9WPCAi/RAx0j9mNWWH1pg7rVPutxMMf/AIcdyktPjKF5u1Pa6U0tJgS4AwPVR1t08ZyioKmtn585OPdEbwyr6imt8ADcFw8LYXWmVfFV3SrIwdJKr/Z+DOetVbbVBbacPdjWe6h9KWB5hJVzb/Q3sgnRMNNtgDslphcbRGMDuVOiCcgN27u7pVore7Ow2TZ/0wct6lfhV8belbICm6SZJGey6JGhKZukElSv+hKpI0KsLS9gGvslpEn7rZBVQbsVXMIR3aqeweypxqVkvZhIDie6WiN7ab5C6Pv+iTopwbhE9m3dLosL3Oa9xScMsbTxkb9ktyFwgB6Ruk4Soz2nI1Y+2FTXn+FgCYzx/LO48JsZ4KGdTFzdRVdFjyOkJ29VsMaU1sEeD/NIXS+ejpXsOSAQqQvSKqtsXMwPPZOAklqfE3LDuUNDxVtRTyEOJwENh5R33ZuChvDal4gkGDlYWw6o+KIztKUcZw2ZU0NQMtLTnvlNCaip9BTEkjH91pOAqqzQSDDmj+SGk1VwrG7sEDpJWcJN8NKfNHS9/C07R0p/odDmx1jPy7LOjr2OGqiPUwlA6b0s8O2toCDRJ9Y1xIYkrVDmPfuQiMoiItgAJK1guoukMlIWs+pbDQkqnskgJdsR5WgCyvEbMO3CGVZT1YMgcxpH3QxoKe+BpaJNghh1T3Snmi0kDdDOFlwpYjq2Bb4TSNZupoInfSMH2W8b98UstVS4/Tke4WWN/sQmtpjz8tzfss4eegL4TU46naUcN9JNpcEkk6Qjg6i2CaN+uN7sfdYaRa9tc7DM9H9UN4tprXOM4fnPbKGcFNpZ4hgvIf39kDimSKjkcRW0+vP/AHWbIMAreELVVn/CyjmYyM7H+aAztVYLlRSFuDpB2c3cIbxZRul1cuVpc8fogcHtqKcTHLdLsb5QW5e6IZT0t39QUJ3KcTOXKWE9JWcHVziYziPcI4pNPdbnDBwHI4b7cG1LW6g7IRwfa8SdHYLDK5KiBn+X7oAeVrJtw8YQCaenkL9t0MDPpH+i3hVRpn6eyOALycuRwvXNi0u7LODqyOV2pLwQSSQ1HFIm0OIBASNXkyaNggByXsOUsgTbXvGBlUAqKucl63gmO7FncLejiTLtzJAD2TdNw2hkikZnVg+qOjjpgA3pdlN1O4UtkdkNcdlsKrm3dnunDmiXGQcIAxk9W+PQDsgv0gXTs3P6rYy0PU1e2Hdk/Cl8zmOdqYUcC1s0kY2Gx7o4EKWQ00/OY8D1CP8ABw4nuvxrW63DpTTaWsPLXc6K3ukqA4OLT2W69PxH4e3j8T7tLSywQjplGGu9B7KFn0rmcZz9jvFHHWSn5ku7ie+63GC3bccIW589Vb6cNzzHg/oO66/NwfyNP0TC1sUcbG9g3ZQ9L+qeU/FmpIq+R/ELx10m1KA578rQDmBTADNFnsgKfhygwqnh6UAxgZpTwtGxs1J0xUUPjGyRQdBT6HIBpCxAFaN2oDO8XXAMp/h4vP1FbosjDOr22+kdp3qH+Fweld/lPwtoqOetqjNNnU71RmAddbjDbouVH9avGEEUVXc58vzoU6JGsttrp6KDmPb1AZypqBKmSSsqA1u0QO/2T0nV/JDQA1IxbGdH3WHixoG7j38LKdz+jGNy5LI1HAz9+6pmGiGcO9QqGqbpQ1v3XT5xO0hq5NT/ANVuhEmtw1ZI1VUprCBWYzlJwJ6clbAqmwGEBWyCG4Qc7KcEk0U0DtkF0Ntt7lheAXH+anqMjYWy885ow/fClwxvHKdPqt4xz65wGEcZVlLdtDgHJeFOv2zTuixnqTFpfNVU8z8kAHytKX1NRyj07tR0RGnr2g5Kb6MPF0JB0LPoApq+XO/Yp4Sh/iXl+StsKK+J1MxhbABrqeN7s7DZObJUQ+Jxx2QYbTVuBhDKZwyNcNjuhgyJ9YN2v+26yxg+G7XKAZ+r2WcHBTOLHdpWYKG/I+m4ho5NiceyCXC99XRvad1sLwG807u2Ew4p0Q9tsFA+UXU1E5uNI/kjo+QFRaIHDp2S1vArrbDF1eiwB5qqBow0po0LPPqZthaCk1joXHLtimgQfWc0ac90wFwUURaM9RQ0cyiIbhrEEoaptta+RoY0tA/ktEE0tS+id/iSdKU8FSXSGSQCN+rK2UmltEyF8vzR0hPEqbTT24M0Y7JxCiruLY3lrWB0H2Q0mf8As+pzyul/j0WcNKq+FqGR6HODs+FnDyqzzIxghJYrK5lRv1d/VZxvRkEsQw7GSfdHDRc64DBB8bYRw8ilhjmyXAaUwRngow3W3Ov1CAHj1Nzjdn8Lt0cYhJR26pOph5VR79klBdW2GtYdYxI135h2WG6X/sm4xvyzshnU3CpYfnMOfUJifKuSpqIRnu308oHyhFUukOckH3QXgmKrONBegcWtrGatDz/JBnT/AOJ2Hb1QOvGWzB0tcU3GfSJpZg7cYRwfSXwQ0qYDyUjR32QAv7OaXdgmICqqOTmdAQFJhfH3ag66Ll461gSNRE36Sp8bKm2Yu8o4eV7KW6c4TcMGDWh2SMooTZL1dlMJPeT4Q2It1tOUKdHxVGGjLsLYymFFURDqlcPsqE4orq+EE6HIZ8gm3bBIyjpVv7aaGEErRXjL/LG7p7FaXiue+zv2ae62DhbPcKt7sFxwe+63paMppoWR/VlHU69lu2huAEdELJqiRztQcRlB0W1kzfzfyKCvIpZN8k4d3QWnlssslbRumbu2J7QrRzbrWX+gFPbaZmOpvgLJ/pcN3+FFo5k7ayQdNO3S3Pqur/I4tf8Avp9VDu3suK/66osBQZ8davHdfFjFqaekoCL2pgr5PsgIugagz0ANQFjZk8bYNp6galQlhlTub6o4DWAh3hZwD2AI4FNyrRSxatQ1flC3gfPL5dX9crzv+VQ9bxXzyz9BT1NbUGWYZ/hC4b+10f4ZV1ZFbo8N3lVuMZz4apuVVzJM6Mo61sbVbYaeNjiBjCSU9j241PPPIi7din4n0OY2wsHqihKFrs6j2Uwu5f8AXssOmyPpMj//ACoUVEanLZAg46cqmY1XqT8ZaGrJ8NwurET6UNdqlSaPBjfdbg1/wNVuVLCB4xlJwLtOGrZAAqCfVU4ArodQWgFU0esEFAIqujfG4kdlhanQXKWneN8YWXJZWvob/G9rcuGUvDGPxcUn5kWMqJ6vpOPdLwrwPqAdisoTLqkb98rGcete5/S5bIEeQcrflgmMYCPkPHNy5PCVJzBp/smtKo5z2nSiMRfI5ydoaSNyG9VsjdkoC5tQ+Lfx5Q0ypbg3bfustB3T1cThus+gJ5FFMPGpNP1ip1geeuJy3hLKHfRXOJ3khDcx58TWMHUw7LDcUvvEjfqYUNVi/wDqNKB1z+IotPfdaCe4X2d2zD0o4zgGKdz93O3TSMooYdsXLeMSFupJCde60Bv2cxknT9KAc29kWoNJwUNaehpqcDVI4HCCUJcLtQxy8qPcrWRnr1CJaWSRiWqxkuHaitdcuUDmPO+URljfwNc0BipErHlVSzu6md05SueKsyQWHHlABm3gA8vLXd0zOq21c8bsYzj8yOHlSkronscD9Q8qdjfoIzVJG52cAHue6zg+nZIwYyfs5HDz0T+J8PZ/JHFJ6LI5WB3RKMnuzssN0YypZ9L0Dq9jYntIb2PdPwwae3A9WkY9QUlgFUcVUxmiN4Lf4H7/AN1nDfK50NO362FjvLu4RwfLyS30ckfp7lYz6LqnhyPVqblDPooqrC8F5a059EN4SVdHUwO1YI/RA4oZJKX/AMP3QQZHXSRIBtSXOEnU5Mz5GPmiqOpjggfIWVtQGbLONBapHfWEcAmWnLoMx9/ULCFD21rXoDyVkjm5Iz9kHLqiB57ZQArqaVvqs4nKi2omjdjujikq0Vri3q/ksP1W6s3QxMVjMHB3S8b14K4/xI4OrH3HLcDujjfpV8TM/wDMt4Jpa2eTyStP9PeYT5QPpW1hLsoKJY2LTh2EMeu06cNTFBHUCVsDnErWV4Hnx/JBHhec7oFdkFBOvNDEGEU7WuGjyUMrX8OVfw9A+Hs7UNvVWjk9D67vmq7rQUHeR4GQFX+PnunN7enzl9r4WtMdqtMVPpxId3/dL66/eJ+E4c5yoOvi1iA+Q4XlcdKbHBMHutAdrQENaA5zggyh70BBj9LkoERP/Mt6DOnqVQnDakqUDhrFMrNrIcaX2Gk6C/qKPonGOaZrnN/+L8i8r2/9q7YfiektVNvjmYW5/FOs6YJrlW80/RlCeWlo7WyKHsNvZAqFZcAz5MffthbxqFPBpBlP1Fax47L3dY2HZAXwrAtaA92PRKeIVMnZg7IUQZ9JK2QBZ3bquYAzpFeQpdX1G+lOA0HfKSAZnAyqAFLJqJCAnEzZbAslOG4TAA9mpAdytkBU+DKGF9TSg5yhjPV9CQS5v8k0JqFrKyaB/fGEVkPLbf8AYBzt0nFGhpbk17QS7IWWNMG1kbtkpaJbWxacIKq+Li1eiAk6ryBpOFoeCtI85QHja4EnP6ICXxx/RbGWLWujky5MnYujbDpWwqRbEey0Kvh2boAKqjIbgeUAAJJWEYQbI2nucsfdHDGlPesb53WNhpT8TvZjO4WNMoeJqSTZ+MnstlJqDo6m3zeGnK36J8vJbVbpe2BlNKywBVcJUz/oKZnCmp4Mew7dkABLwtIEcAY2KZn5f5IHVZoZWflKB17HG4bbgoAhsDneclAWtpZWnOk/ogL+bVsYWt1Y+5R0cL4qeZ0jnuB1epWMSvlR8LbXAnrcEKQg4ZY6N7pMZLynhdPoNuiYWjUcH3Wp0eQxuxxn1CrlNzxDgktymBZU0sc+RHHp9ThK0rqbL09HhDQX7Gbgl2xdsAsMHNC5rvVvogPKiEDAeMRj6ShoUgDU8ux6BDS+d7WuxgZPkJTPYppxn5m3hDRkFc/VjJ7JDzSxlbp21HPc7rG/YqK4TOOpjgmW/sEPuVS4Y2QS+iiouVUW42S8N2OhvtZHGGPxK0dx2KODsEHiWkP72HQ4fmG6OJoy3OzVP5MfxZRwA5LVaJ/3UjcehwCmY48PQ6f3QLfUboa9PC9O1mN2OQPsvksNVD+4lJQPsPJLXwbVER0tQOqBWNe/+H7oYJZUaNg/I9Ew+UnsZIdR2QOPJI2hnSsrQwEH/cwElCmqpInnA7eCEcTBT2oxx6gMobAElCHDsQlVBS2+Zm43CGA5IZx9kzEOtASjLyd0AdTs7f3Q2C34a3chCihmpztuyGCGRH1QVeIDhATii/kgLZKVmNSGgJmNBWwUO4NTpuDQQhlVF2HYQRMPAGUBKmc4SAtWUNRQB0s0EYG73jICpnPXN7afU+AOHxcOJJrzO3MFNhlPnfJb3Xb8/Gf/AOvK1f7Lx9Wy7+q5du/yxyLWqJlrUNfJXBq87jpVudj6UoVc1AdzUBLVqQHatSDKXtQENJSgTToA2nVAY0x/MgcG1Nxho6R1RKfpVM0u3yW7VFTf7u94/csXN7bU8stJbaZtFRiU9mrnWoZtPNcqgyy/uWrJ+p/RpbqZnM0t+hvoqcUyuu9wjhi5UZ6vQd0cFL6CkdI/nS91gM9DTsgOMDcICojJ5bfO2UAQGNjiPrhKeBJBqchR646WqsgBTuG6eQApH4BKrClFWdUiahKA6dksC+V2W4ThRGwl3ugC9mD3WwA5pNTsJgi1iAt0dKAqe1ACys2Q3hdV0m+UMsZu6287kBbEqQyiSB/un4WUfQXySMgEpbDdaClvrXtzq3U6aDo7nns9YbiXxnnKC1P4w47oK9bW48oCyOtbndAXfGMIwtjYtjrA3YFMWxa6ucG91sLxdBXHHf8AmtHFvxmfOUF0plqQRuggXUNSGovchvVWt2rZa2UVHVlowUcb1aZ9eNDsELLB1Nlyq2dndvdZ8t6Mg4oqYT1brW/6bUnGo7uOFvR8mjeKaeX82UfRbFsd0ond8Ee6PsvBTZrbJ4b/ADR0fL2WG1u20jPsjo+A0lrtbh2wfVHRwJJaaVm8b/0R0cDOZJGdupA4qmnAZjIBQOF5uEcZOs7LYWsteK6SvmEY/dhy1sPrVRxMib7J4zR5SStLsB2y1KmYhk0kjqwmg4FNRKTpdst6OLHTNjZ33PhaxRzyGux5QALy4xnKDF5nEYIZ1FACyCSoHWMY7BBgdRTyAEbboAF9FUl3fpSmT+Fmjbjv6IAGdtVC/vjKnVZYvZTzzgPZ9Q2c31Q3sMrdbKgN6hjUUyNp5BbHNbgtyhO16+0P1DoC3g/UP2UfpkhA91vB+hX2RnMd4b/Cs4P0M22ta/ToW8H659A0O6e38PlKr1NraiN3y5NJ9Mob0bBdKpv7xglY3+LuhnBrK+jk/fxmJruxagcRltNJUdUU4c135Xob0un4LMn0sH/l3QOlU3CdTE/BB0ph9vXWmZjOXpOQgfaDbHcZCeSct/Nq2RVAUtvqNWmSMEs85UwrZR1sPVyyWHsqcIhPJUDAfEQ1ZwJBlM4ZI38hLxvQdVby7JYcg9h6I4JS+SkeBhzdWO6xbgZ1Ix/+XHhA4pdbJicxjLUDiLoKiLu0oHEoyHY1hDRrWQ6RhAWshcSMdkN4IbTuQOLWUzwgcRqGvYMeqBwqeTrPothKHlCcjmDG6C1AM5jkEXOgLRpf9XhDBduo5ZJWho7lBd38bbh+yvkr2xs3mPSz7nyu/wAM/wDXmfy9/MffrDaobZb4qWMYc0ZkPq491L39uk/i+fJ0zZ9S5uu36WIYsasa+OvmXn8dYd1QjgUmbrRwLmORwqbHo4E0vDJIais4HMW8A2J6dg6GbGz/AKVpKyXF18nrJm0FK7pUd65G4i2w2ZsUPV3/ADuXF/q4yoPxUvIi/dt+tVjV0uiINp4u35k8gWyTMpKPUP3hH9VhyalilqagzSf1Qnab50twsrIuZq09kh3r+gZPc9kzI8gjBJee/hCkdK7V0rZDo8vDSfRPwBZ37FbICuaXqVAGqX4anyCsnU9ZQta1NAkZABunC+lLPqSh5VyN8LYwI0ZOUzFvYLK2O1pTovOW4QFZjygKZYNQQylddRas7IZxmrhbckppSajO1NI9jzpVYlYGZVTwk4W2Fl4Z0V67NKX5E9D2muEbm7HdK6IM57dIOrKzrePHVDP4sLKyqX17B2es4xULvj862QJC/D1ytC5t+Z5QWpjiNnhBVn/UbMeiGxAcRRl3dDeDGXmnx3TZLYsNyiP5sJmceCuYez1lbxaKsH8ywfKz4lv8S0fKcc+s6Qc5W9NMm0NnlqQAxDbEKjhm4RbhjiPZBKBMVfAcGN/3QTrjXVTPLgjjeroL1VxuyD/NHGyiG8S1zXYKOFtFR8TVZ2zhZwTS03ud25dusb1xvbwwju5NGF010leTqb+qAFlqNYxpWsV0w0P1cvJQBguNQNtGAhlgilubg8ZGn3Qz5Po70OVpEnUnlJYp/aD3Z1/UjrOKRPKXanv2P5U8C6WqDWZCAAmrZXuDGdj3QF8dHEG6j9aAGqGPDsjugwV+ZHEnugIyRsDcuP2ATB4I43R7vx7IDyWCmliaO5b+ZZwy6ipoueHgtHjus4DhtCc/XgerUpVja6SHof1N7Z8oC8VHM+huUoWct57oCE0A1dTcKnSqJY2N3R0B3xRZ1t+tKeAKlnKfq+pvqg61v08w9X8SJWrZqaN/Uw7J4xOkax5cxuzx9AS7bgcx07Ht0ks090kPVtTW1kAzhszf8wQTiLL3a3s/xFHpl/iZ2/qhn9QKPiOwVrnwU2pszNnB7C0fzTM/XtNZ6aeZztTcHxlA/RDrFobgu1MHYpW8LH0wMuidoMY84C0cTm4TpqiLm0zwPVqfpWdqrRWUriOWS0HuN1gDups+gJ7hYebK66zzAcxg2yhSeiuLntbpx2S/J+rssOlso2Pdb8jr2S3UMmMbZWjrn2KHTlp38IHVM1HNC3p8JeG6rhnfnB7hHB0dDzDgph1KfW44cNkAuqKLGSmJQZp2g5Wp1SYi7IC0CrTZ5535cNvRHOpWmVZY2xuaxrsl22lZ0f2tFQW2G1UHxNQ35rxiGI90fP1eOXfp8/v/AB9F/C7hmXlG8VzdMkhPKafQr0N6+cceLJfb0/8A4+k57/0Xn8exJz8TasauYgLAgPhrpFx8dal51I4HrGI4BDGuRwohjEcD16XjOo81HB1Dmo4OpN6kcHRsXSg4W+XH4ek0s+tywhTYLTLPL8RIOt64fTXXRnJ/cJRTxMpYv3ru6X/BpZDTNpabA/fPTxrhR8pnNl+pUBTVSmV+nwOyVlo+30rtOpyCdEuZusposZEW9SQ6t+78+iZkTc7pQpEY2aiSqyHeVJ0NT8BPWS91sgLe78p7PwKK1+GkLcgva/dLQt53SmgU8zU7CcCuboZslAaSRzitgWx9kzeJZWUIZy7CVq1jMoC8Q7ICDoUNB1EGQUN4TVVLkkIZYTVNq1OO2U8qdyQ3G0FuSG4VIncdIZI3xOTubWeCILg5iW5PnY+O9OxhL8H/ALFct5eey2ZH2H/aErit4OrBM890WN6tY16Xg69cH4RwKxrRwPcyjsjjY7VMjjV7JJgtasZWyhaOL2V8gS0+YKZWynCw3yLjqZD3WUfI6hqHCYLOmmX1fglsU+nKfLNx9HjsVM6EFwTI2BpeFrdL9UYKC/ISb8P7RK0gRBA+Cev/AAooZM8saSkumzBDVfhVXMJMD848JfstwVT8A8RQb/DawPI7qmf1HW/ktnoK6mdipgew+42TcL/dHNiiO+lYea6vipYnHBbsgz11vi/KgKzThnfugIZYgv0rk0Y+nKB9Bteg6ghiyOumJ6vp9UDggV8X06jq8Kuf8JVmuZ0R1atI/MtY8bNCD1O3HZAWCpOfqQFjZ87O8+UGcY2ZQFM9K0tD/dMA9TStcw6e6ADhiezp/L/umMKiheHB2FoNad7mt1au+yhSiNWoY8eSgPTOIw3SlC2C4uGHec9SAZNr4Xsa7SjpVrmUUrPpR0Fz7UzSd8/ZMeFtVQlg6UKRVDHK3Sxw6UnQm57otTH9Lf8AKnlC6KNhGsP6v400TtF1MkpYHMHW3uVPSma5ldrY+GWE4PbKFOBJ6KNw1xHVn6m+iG/Yamom51D6hsUxuxGekmZ9BLP9KB2IwXCsY7VzyWnpwlP8CJK1xA1Ma4eTlA+HNrnRg6WnT4R0n9SM3EbKYNEtKZQdit6P6gEtdbpi50kDoR36Vpb4pC30s7A6nqch35HoTuOKXcNSE4wCO5ITdL9B5OFJS7IaceqzrZoObYxjuo9tlh+vRap3nMUw9ghvU5LfK1umTqTcb0K61AflxnysHQ2g0zvULB1KeriZGTJ9XhqI3pLPX852lvb0TCpaNLcLYlUHR6f1WmaSzwvijHLGp0uwCbLm9GhbQ0NuDa+5EOmP7qAePcos65d004W4VuHE9ybcbgwwW1jstDttWO2F2Y8/idedvd3/AOsfY4YI4YxHGzQxmGtHsuP139V2+Pj8Rd4S9/Ff8/FjUrVo7ICQQHw1rXOUJHTam2n3RxnUmwOH0o4OmFJb5pVv9bLRws79H0o/rTtDVVtlb+RbfNPpTL0qFX86g1y1vRFOhSGWImRcz8i3U43VIOWa+td/AxcPvtmY08bYbXQvnf8AVpUcnAUUfNc+vqu7t2JoDO10j6uo+Jk+hv0/ZLjPRqhr7WNdMaWDwunQzS622uSao0u9VIHtTG2CMRN+rygBtCU7x/YBvYICl62Q8cxUkOvL+WPumaX1dRutgJ6qQF2E5gj5mtWthRX1fdLaKEZUfzTQi7nHTusCUB1HK1i+R+2lPGPGw53TtgmOLZYd49qyhKKLUcJQKYzShsWDuhquQLY0FOxFACWLdKFRptsrRwhu0GA5Nml1GJukXzOyvK5PTIIRvI2bum65vmpijqP4UfRplfFa6l5+nCW6PMGlPw9IQCRlTulpkyjsTg36En0eZRktbh4wt635Q/Zj0dHy9FteEdHyh8AfK2U2Y74PC3p+O+FwtlHFZp1vR8pMp91jZB9NQrGmEVDsk0F0VLodlKH0jgKrZDIwuWysr7RQSxSwtI8hUlQ0LZSjVutJHj4Q12AsaqkbhJs+QvO+aG+FGH0fUkEErRqbldnm872z2q7hwtaq1ha+JpJHcrocvwxF6/CqmJ1UXQ8fl8JKrm8Yq4cO1lue5tTTOwPzt7KOovn0LzS0zz9RSxT/AFF1pp3jutZwLLaKeM5ymlFzFcdqqaqTlUsL5CfI+lPMdc+t8aWz/hHda0g1jxFGfHlUmE/7q1lD+C9nja3nannzlaldap5T/hnwvSsGadu3kjKPpszQt1sFhpoNMcTNP90l23hdbOAOEbsC98elx+rSmmm3/Htb+BtiI/wtTNH6bqs0l80oqvwQrGxn4a4B3oHj/dHG/WoUyfhJxbTjMZin/VZ8t/u0S3PhTiyiP+Itz3MHdzNwl+VZ7k0sbozieKWIj+JpAWfJv7IqkkiIwCj9Wm1cc7y/Tq2GwR+t/sEGfDT1dkhfxKGsm8nbwgfgxjmv6ljfoQx3oNKBwRE+nw058pCpS1DWfQ9AQbXaX6m7puDNoOsuELnu0lHHRnSuKqa5n+ZKXq+aSMM1x7n87EdCGWAam/T+Zip0cXCeJ8OXHGlHY3iujrNBcx/Wz8j/AMyzjN0SZadkmQcZ8o4SVXPGA7Vq0y/xeH/ZZ10fSg1Bj/edSOj6Bz6GPLgflP3x6JVv7I6PTjqcNJ/9/wA0D+yL4w545bnb9mv9vROW+j2VkQbom3Hqj+upX3gVlGJPlxRvldnbQ3Oyb+qk/wDKyi601dO7JpZ44z5LD3W/1Vl/k4MqO3XirAbSUs75e30kD+ab+lH/AMvJ1Bwzx7nS2gAyOkvcj+kf+VkPXcFcXfRLamP862PHdH9QnuUVPDd8pnjmWyobj+Aav7I/qP8A3xS6lEXVI2ojkH5XsOFn9dZ/fAtTUtYR05++UfFH90CupjV9yIs9h6o4bPpCir4Yri8n6x4RIv1Q3huaJ2ZGJuFuhJ4fc4Ak4HojhPpbFZ2tcHSHGn2yqZ8+pentI09itN1q3sZbabIP/wDoLdgq/wBUjzPT+T3/ABvbV+FlAJWVl3ldWTjfS7ZoKy+kiHxrVbWKnhhaI4mBjG7MYO2Fza9LXd5+EzO/9EBIokEBIICYQEkB8WYxJItaOp6N8vZHE/o5obGUcZ9NBQ2b/IqG6ZfsYoTtB1tk6PpTVmmKvlmfE7U1Q15jOiDRpcoKyi6diFJQ95qzFTcpr0vpr8b0ZwtQ8xnNk2H8a8/nV8QRW6rlV8kf+Gi+pKx7JmaZtNB9DFVh7WTttdrOPre1VxnhNVmqGF0uuql2J/Mlv63NH2upbFzHfm/KkO9kndJJrcgPZX9KU6nWgK3qsh48D0/Doyy5BCxpZXT6QtgJKmr6lQwKpq9ljYTTzufIVLVFXU8erCfJBwgfsmC2KDC2MWiHdPGLmgN7qjYty3TslO8wCsoWNDW7hKHgdlyGxe0ZQ1xYFsNAszQM4RT8DCn1qdHFxosRFZ0cI7hbJZDjGQtlZYz1RwxI95OhUmkrhdScJOPdi3Wk75msPB2Ru1L9ieYqPhRrfyo+j/A6GwNYO2El0eYeutbVmaa5CSWoHxlN0vyGNqwT0I635Q/Zn+Rb0fKmS1Z8YWyjgU0GMret4FlpNK2VsgUwYK3pvl6yHdbBw6oKfOFrOG4oOklJomlD6VKU1stWaecEflWGfXOGLyJIWZTSpajaw1ALNlSIrRugK5oehZWylxi+YFORuq0NubpaAunDk3R+rC6HP1F7/wCSUUHVWyjqoyyVgdq9UfLGRuv4Z2yfLoWcp58hLfMfdInfhTPr2qXBqz+tv9mjGg/CuijkDqp7piP5Jp5kutVq7dw7baFo5TBt2wqz8Z8WmTWtHYYWXRpOJtes51SaL71XCGB3qFO5ZqvnF9vEkmynY59bW8BXd4rDA92MnpT5jcbfUuZqYCfRUkWVl6y9L1AvdnZZ+j567OvZ3ZN9F+IFqLXbajaamY/30rfpn9RXPwPwpUE8y3x5Pc4W/cZ/WDf+GPBjv/8AF/Io/sjP66rP4U8GOb/4Zyb7hfjQV/4N8Iu7c1n/AJkfcHxoHUfgrZn/APhq2WF3jK38P/7AJ/wYugZ8i5Nd/qaj8H9miK4fhhxpSDVFHHVM/wDxuwo/1n/8kjq7PxRTu+dbJm/Yakf1j/yS/Fzj3fRT6v8AQl/rV/8AIwrfSXKTrioZf/1cj+uj/wArCyn4b4hc93Joagtd6MIR/wCOz/zcjncJ8ZM0/wD8dUB/8TUf+OP/ADciIeEuMHv0m1TMf65W/wBFZ/5jyq4Q4up9zbZR9hqR/RR/5aj9l39v7221Gf8A7jI9039LN/yYkeHb/MzMNDUO+7NKP6iT+TF/7I4jMIgltdSXDsdC3+sf+YNj4J4zniaW2xzmY75a1xR/W3/zER+HXGErf/60x+2tqb+o/wD5ryP8MuM2400uA7u0vbsj+pn/AJp3bPwgu/Sa2vZTxA7sj63bpvxP/wAjemrt34ccLUOHTRvrZv4pnZZ/+qP7IT+q0+p6KhpBppaaKFv+VuP7pf7Kf+vKbtBO7Qf0R/ZR/Xl2oAdIA+2yX7o+YiZHrPqi5iPMejtLMu5h87jyjtP8oOhp394mu+4yt/trPlRPa7XI3ElLGQe40LZ6M+Cat/D/AIWq8/4RkR8uZkH/ANFT7g+bCOq/Cm2OOaarliPjqJC37jf7KWy/hLWa8x3N2PQhb9ZZd6WU34TYOaisc4edKabyndbp3Qfhpw9Sy63MdM5u/W7ZGvWI/Gv+tNFSQ07WiFgjZ4a1Quqv5+En6sG6jYtUtOE//GRYEpnqA9CAkgPQgPk9BQvlePdRVtau3Wnt0qsTaGkti1h3TUOlAHso2oAaooW6UxWZu1mY7V0oHGDvFm5TtTWqFjYTO+X9XSpuiFuh9ZXaVze58NaGNpLeyni/euXJFK9kYyjpNA/fv+tNnPCaTsVJmTmuT5w3IC+1T6+4inj/AHbFbdYhWycqJlNH2UwjT7DSpnFxNx1IY6d3SjggePqKOKRTUSOanhlEbnOKo1OeXQxbDQguVX3TVSEck+pxUemVTOy1ZaAzIHOKMlOKGhwz7q8Ax8DQExU44dkRleObjZOz5RLXYQJHMYdXojp+CGsYNy7dZaEHyw9tSwItlpwcl6GxMV1KDjWg711fS4+tZTQN8RRvfu/ZIpDOnbb9AOsfqsqkWvbSv7ObhK1bBa6V4yXNWwL38PUjxsWlF2S5eR2SNnbH6JPpP4FNt7AO2VnTTL11EweMLZT/ACGmo24WjgGWkGdlsFioUecrU7A8lD7ZWwqn4PHjC1qmSkQyg30ecp4wDU0Kc+SuajwUGVMp9JQyn1pgy4IZxpTR4iS0miupjw5YRRH0vBQ1s+GLnypAhj6ZbbhriH2T5T3DqknaQMpkqJkAcwkJdFgHR81LlujmhGMLry5NjC7BTI1AnKGIE4KA81oCJdugO1oCJO6GvEMdqQCO/NdJlo8rGVka+yvf+XOAjiVhNbKaahvsR/K4pNGxl9eo5Q+lCrP8XqZ7rCIHuhrtSGO1oDsoDkB2tASQHa0Ne60MdrQzjzUEDivl0z/+3H/+qr9s/pR0Q/8A2mI+x/THuoJet5Ha0dHI7WjreO1o6OO5qBx3NR1nI95z0o4rc9YOI61vRxBHRxyxqCGuKGIoDw9kBFAceyAhpQHIDkBx7ICK0PD2Wh4BkoCWhKHaEB2nCA9HdASHdASQHIDkByAyFqt30/dJmNta2hoU7DmnpmoA5jGIC5AQc3UmMAq6RrmIHGUvNrY7Uk3GyPm3ENC+Bz1ybq8gOw0Whzqh6jsYP6RuuR9Q76W/QuSn0qkHxU2t3f8AKq9ZkfVzsoLaSPrKpbyCkdCxw1zv/NupYvWJOHMfzXdz9KehNjFM4hq1iiodk6U4joTpRxSKKsMcUQylhY1OAdwqWtCaHjLXKbW9br/FIFp4XE5XKZa6HdAXwUbiQU+SmtPDpZ6K8CMjo2u6npioTXKjij3dkhbGWlVRxHA3t/NMX6LKri2IAgOWyC7LZOMmZ060/wAE/sCScauB6XZR8FvqFfxhM47d039ZP7VbuLashH9bf7VLuKqsnZZ/WP7kTxPWEI/rH9/HM4oq2uyj+o0/kimcaVTVl8lJ/JWM42qc7rP6jf8Akj4PxBqG6RnCy+Q/8kzpfxIdvqm/RTviefyDam/EhvmTKnry4rn16dUfH8L/AKjkJfhWbO6fiWgqcNJwVnyrm9EGSN/Y5Cwwd4B7LYLFYAB3Wp2JPibgELYnVDoMrWKZKfZDKHNP2TxgGopskpz5LpKT2ygwR9J5xhDR9rZpkBQ1s6eDVB90tS9CK40mlzliRe0boBlb5+VIgN/YLmHtbl2NkMrX0dSDpwcrep2G7ZstQmridmTKMs0bU30rrz/jk0tLsFMjUSclDHiAiXYKA81oCJfugPM5QHIDs+PVAS/ZnO3TNCVdnacgoJYzV3s8MMsbz9QKjtbGWitz/wDDBUn+DYo90JonugPEByA5AcgOQE9aA5AcgIICaAgjjXLeBBaxyA5AcgIoDkByUIIDkByA5AQQHIDkBx7ICKA8PZARQHHsgIIDkBx7LQitDh3QEkocgOQHo7oCSA5AcgOQHIBda2t0s2S5DR0vdMDCJAXIDkBNAVVCARXZrdHZJpV854qa3S/ZcmnR/wAJYNqdmNkvqSG52oRjZch3lG1utu3hZP8AWAOI3O5jG529FT0CsbU22yp5/wCM0r/M1I3K5iQy1AUv/eLQh/2yqQBKlzsd1Q4RznaTutjSSuJ5h3W1SFTvrU6pBcDW47KRloa3PZAHU4Hoq5arrpJGglriMK//ABjL11XU63fMKyJ6Z+vq6nf5hVY59M9V1VQX4MhVYlQhc49ySnTeIDw9lsDwd1oSQHJQ8PZbAitD0ID0oCKyhywPckOP2Q3omGpnYAWyOH6qelsarT2Wuq8sPNdlc+nV5Vu7PWVRbvIVB6GDp08un6lWNDCqqNX1lLSUdSzSOPU7OEsTq/JJK1jx/ZDKqwN0MVSNbpOyaAuna3PZaAr2tx2QfKdOAHtQdrrd9AWVPQC8gaT90qdIHACRBFzPqCDxprE5wlGCtbW9trnaW7p4nThjnY7rNFX0x+YE2EfU6p+y6446uC1OvD3QVA90BA90B4gOQHICJ7oDh9QQD6ga0wDI8JjJup4SMlu6E6xnGbWtkaGjGHLn9P8AV/P/ABZav/BtV/8AhL/o5DKie6xjxAcgOQHIDkByA5AcgOQHIDkNcgIIY5AcgOQEUByA5AcgIIDkByA5AQQHIDkBx7ICKA8PZARQHh7ICKA5AcgOQHID0d0BJAcgOQHIDkByA5Af/9k=;" vertex="1" parent="1">
                    <mxGeometry x="190" y="49" width="91" height="61" as="geometry"/>
                </mxCell>
                <mxCell id="28" value="&lt;font style=&quot;font-size: 24px;&quot;&gt;Top&lt;/font&gt;" style="swimlane;whiteSpace=wrap;html=1;startSize=40;" vertex="1" parent="1">
                    <mxGeometry x="75" y="110" width="995" height="680" as="geometry">
                        <mxRectangle x="80" y="110" width="80" height="40" as="alternateBounds"/>
                    </mxGeometry>
                </mxCell>
                <mxCell id="68" style="edgeStyle=none;html=1;entryX=0;entryY=0.25;entryDx=0;entryDy=0;fontSize=18;" edge="1" parent="28" source="29" target="63">
                    <mxGeometry relative="1" as="geometry"/>
                </mxCell>
                <mxCell id="29" value="&lt;font style=&quot;font-size: 18px;&quot;&gt;data_collector.vhd&lt;/font&gt;" style="swimlane;whiteSpace=wrap;html=1;fontSize=24;startSize=23;" vertex="1" parent="28">
                    <mxGeometry x="45" y="120" width="210" height="310" as="geometry">
                        <mxRectangle x="55" y="270" width="50" height="40" as="alternateBounds"/>
                    </mxGeometry>
                </mxCell>
                <mxCell id="3" value="Radio Module&lt;br&gt;&lt;br&gt;radio_channel.vhd" style="rounded=1;whiteSpace=wrap;html=1;" parent="29" vertex="1">
                    <mxGeometry x="40.5" y="40" width="120" height="60" as="geometry"/>
                </mxCell>
                <mxCell id="36" value="&lt;font style=&quot;font-size: 14px;&quot;&gt;Gyroscope module&lt;br&gt;&lt;br&gt;gyro.vhd&lt;/font&gt;" style="rounded=1;whiteSpace=wrap;html=1;fontSize=18;" vertex="1" parent="29">
                    <mxGeometry x="30.5" y="120" width="140" height="80" as="geometry"/>
                </mxCell>
                <mxCell id="23" value="&lt;font style=&quot;font-size: 14px;&quot;&gt;Accelerometer&lt;/font&gt;" style="rounded=1;whiteSpace=wrap;html=1;" vertex="1" parent="29">
                    <mxGeometry x="40.5" y="230" width="120" height="60" as="geometry"/>
                </mxCell>
                <mxCell id="37" value="&lt;font style=&quot;font-size: 18px;&quot;&gt;pid.vhd&lt;/font&gt;" style="swimlane;whiteSpace=wrap;html=1;fontSize=14;" vertex="1" parent="28">
                    <mxGeometry x="540" y="120" width="170" height="310" as="geometry"/>
                </mxCell>
                <mxCell id="74" value="Output" style="swimlane;fontStyle=0;childLayout=stackLayout;horizontal=1;startSize=30;horizontalStack=0;resizeParent=1;resizeParentMax=0;resizeLast=0;collapsible=1;marginBottom=0;whiteSpace=wrap;html=1;fontSize=18;" vertex="1" parent="37">
                    <mxGeometry x="15" y="140" width="140" height="150" as="geometry"/>
                </mxCell>
                <mxCell id="75" value="FR_signal" style="text;strokeColor=none;fillColor=none;align=left;verticalAlign=middle;spacingLeft=4;spacingRight=4;overflow=hidden;points=[[0,0.5],[1,0.5]];portConstraint=eastwest;rotatable=0;whiteSpace=wrap;html=1;fontSize=18;" vertex="1" parent="74">
                    <mxGeometry y="30" width="140" height="30" as="geometry"/>
                </mxCell>
                <mxCell id="76" value="FL_signal" style="text;strokeColor=none;fillColor=none;align=left;verticalAlign=middle;spacingLeft=4;spacingRight=4;overflow=hidden;points=[[0,0.5],[1,0.5]];portConstraint=eastwest;rotatable=0;whiteSpace=wrap;html=1;fontSize=18;" vertex="1" parent="74">
                    <mxGeometry y="60" width="140" height="30" as="geometry"/>
                </mxCell>
                <mxCell id="77" value="BR_signal" style="text;strokeColor=none;fillColor=none;align=left;verticalAlign=middle;spacingLeft=4;spacingRight=4;overflow=hidden;points=[[0,0.5],[1,0.5]];portConstraint=eastwest;rotatable=0;whiteSpace=wrap;html=1;fontSize=18;" vertex="1" parent="74">
                    <mxGeometry y="90" width="140" height="30" as="geometry"/>
                </mxCell>
                <mxCell id="78" value="BL_signal" style="text;strokeColor=none;fillColor=none;align=left;verticalAlign=middle;spacingLeft=4;spacingRight=4;overflow=hidden;points=[[0,0.5],[1,0.5]];portConstraint=eastwest;rotatable=0;whiteSpace=wrap;html=1;fontSize=18;" vertex="1" parent="74">
                    <mxGeometry y="120" width="140" height="30" as="geometry"/>
                </mxCell>
                <mxCell id="42" value="&lt;font style=&quot;font-size: 18px;&quot;&gt;data_filter.vhd&lt;/font&gt;" style="swimlane;whiteSpace=wrap;html=1;fontSize=14;startSize=23;" vertex="1" parent="28">
                    <mxGeometry x="305" y="120" width="190" height="520" as="geometry"/>
                </mxCell>
                <mxCell id="58" value="Output" style="swimlane;fontStyle=0;childLayout=stackLayout;horizontal=1;startSize=30;horizontalStack=0;resizeParent=1;resizeParentMax=0;resizeLast=0;collapsible=1;marginBottom=0;whiteSpace=wrap;html=1;fontSize=18;" vertex="1" parent="42">
                    <mxGeometry x="25" y="250" width="140" height="150" as="geometry"/>
                </mxCell>
                <mxCell id="59" value="Yaw" style="text;strokeColor=none;fillColor=none;align=left;verticalAlign=middle;spacingLeft=4;spacingRight=4;overflow=hidden;points=[[0,0.5],[1,0.5]];portConstraint=eastwest;rotatable=0;whiteSpace=wrap;html=1;fontSize=18;" vertex="1" parent="58">
                    <mxGeometry y="30" width="140" height="30" as="geometry"/>
                </mxCell>
                <mxCell id="60" value="Pitch" style="text;strokeColor=none;fillColor=none;align=left;verticalAlign=middle;spacingLeft=4;spacingRight=4;overflow=hidden;points=[[0,0.5],[1,0.5]];portConstraint=eastwest;rotatable=0;whiteSpace=wrap;html=1;fontSize=18;" vertex="1" parent="58">
                    <mxGeometry y="60" width="140" height="30" as="geometry"/>
                </mxCell>
                <mxCell id="61" value="Roll" style="text;strokeColor=none;fillColor=none;align=left;verticalAlign=middle;spacingLeft=4;spacingRight=4;overflow=hidden;points=[[0,0.5],[1,0.5]];portConstraint=eastwest;rotatable=0;whiteSpace=wrap;html=1;fontSize=18;" vertex="1" parent="58">
                    <mxGeometry y="90" width="140" height="30" as="geometry"/>
                </mxCell>
                <mxCell id="81" value="Radio signal" style="text;strokeColor=none;fillColor=none;align=left;verticalAlign=middle;spacingLeft=4;spacingRight=4;overflow=hidden;points=[[0,0.5],[1,0.5]];portConstraint=eastwest;rotatable=0;whiteSpace=wrap;html=1;fontSize=18;" vertex="1" parent="58">
                    <mxGeometry y="120" width="140" height="30" as="geometry"/>
                </mxCell>
                <mxCell id="63" value="Input" style="swimlane;fontStyle=0;childLayout=stackLayout;horizontal=1;startSize=30;horizontalStack=0;resizeParent=1;resizeParentMax=0;resizeLast=0;collapsible=1;marginBottom=0;whiteSpace=wrap;html=1;fontSize=18;" vertex="1" parent="42">
                    <mxGeometry x="22.5" y="50" width="145" height="150" as="geometry"/>
                </mxCell>
                <mxCell id="64" value="Attitude rate" style="text;strokeColor=none;fillColor=none;align=left;verticalAlign=middle;spacingLeft=4;spacingRight=4;overflow=hidden;points=[[0,0.5],[1,0.5]];portConstraint=eastwest;rotatable=0;whiteSpace=wrap;html=1;fontSize=18;" vertex="1" parent="63">
                    <mxGeometry y="30" width="145" height="30" as="geometry"/>
                </mxCell>
                <mxCell id="65" value="Pitch rate" style="text;strokeColor=none;fillColor=none;align=left;verticalAlign=middle;spacingLeft=4;spacingRight=4;overflow=hidden;points=[[0,0.5],[1,0.5]];portConstraint=eastwest;rotatable=0;whiteSpace=wrap;html=1;fontSize=18;" vertex="1" parent="63">
                    <mxGeometry y="60" width="145" height="30" as="geometry"/>
                </mxCell>
                <mxCell id="66" value="Roll rate" style="text;strokeColor=none;fillColor=none;align=left;verticalAlign=middle;spacingLeft=4;spacingRight=4;overflow=hidden;points=[[0,0.5],[1,0.5]];portConstraint=eastwest;rotatable=0;whiteSpace=wrap;html=1;fontSize=18;" vertex="1" parent="63">
                    <mxGeometry y="90" width="145" height="30" as="geometry"/>
                </mxCell>
                <mxCell id="80" value="Raw radio signal" style="text;strokeColor=none;fillColor=none;align=left;verticalAlign=middle;spacingLeft=4;spacingRight=4;overflow=hidden;points=[[0,0.5],[1,0.5]];portConstraint=eastwest;rotatable=0;whiteSpace=wrap;html=1;fontSize=18;" vertex="1" parent="63">
                    <mxGeometry y="120" width="145" height="30" as="geometry"/>
                </mxCell>
                <mxCell id="71" style="edgeStyle=none;html=1;entryX=0;entryY=0.5;entryDx=0;entryDy=0;fontSize=18;" edge="1" parent="28" source="58" target="37">
                    <mxGeometry relative="1" as="geometry"/>
                </mxCell>
                <mxCell id="73" value="&lt;font style=&quot;font-size: 18px;&quot;&gt;pwm.vhd&lt;/font&gt;" style="swimlane;whiteSpace=wrap;html=1;fontSize=14;" vertex="1" parent="28">
                    <mxGeometry x="755" y="120" width="170" height="310" as="geometry"/>
                </mxCell>
                <mxCell id="82" value="Output" style="swimlane;fontStyle=0;childLayout=stackLayout;horizontal=1;startSize=30;horizontalStack=0;resizeParent=1;resizeParentMax=0;resizeLast=0;collapsible=1;marginBottom=0;whiteSpace=wrap;html=1;fontSize=18;" vertex="1" parent="73">
                    <mxGeometry x="15" y="145" width="140" height="150" as="geometry"/>
                </mxCell>
                <mxCell id="83" value="FR_pin" style="text;strokeColor=none;fillColor=none;align=left;verticalAlign=middle;spacingLeft=4;spacingRight=4;overflow=hidden;points=[[0,0.5],[1,0.5]];portConstraint=eastwest;rotatable=0;whiteSpace=wrap;html=1;fontSize=18;" vertex="1" parent="82">
                    <mxGeometry y="30" width="140" height="30" as="geometry"/>
                </mxCell>
                <mxCell id="84" value="FL_pin" style="text;strokeColor=none;fillColor=none;align=left;verticalAlign=middle;spacingLeft=4;spacingRight=4;overflow=hidden;points=[[0,0.5],[1,0.5]];portConstraint=eastwest;rotatable=0;whiteSpace=wrap;html=1;fontSize=18;" vertex="1" parent="82">
                    <mxGeometry y="60" width="140" height="30" as="geometry"/>
                </mxCell>
                <mxCell id="85" value="BR_pin" style="text;strokeColor=none;fillColor=none;align=left;verticalAlign=middle;spacingLeft=4;spacingRight=4;overflow=hidden;points=[[0,0.5],[1,0.5]];portConstraint=eastwest;rotatable=0;whiteSpace=wrap;html=1;fontSize=18;" vertex="1" parent="82">
                    <mxGeometry y="90" width="140" height="30" as="geometry"/>
                </mxCell>
                <mxCell id="86" value="BL_pin" style="text;strokeColor=none;fillColor=none;align=left;verticalAlign=middle;spacingLeft=4;spacingRight=4;overflow=hidden;points=[[0,0.5],[1,0.5]];portConstraint=eastwest;rotatable=0;whiteSpace=wrap;html=1;fontSize=18;" vertex="1" parent="82">
                    <mxGeometry y="120" width="140" height="30" as="geometry"/>
                </mxCell>
                <mxCell id="79" style="edgeStyle=none;html=1;entryX=0;entryY=0.5;entryDx=0;entryDy=0;fontSize=18;" edge="1" parent="28" source="74" target="73">
                    <mxGeometry relative="1" as="geometry"/>
                </mxCell>
                <mxCell id="31" value="AAAA" style="shape=callout;whiteSpace=wrap;html=1;perimeter=calloutPerimeter;fontSize=24;" vertex="1" parent="1">
                    <mxGeometry x="300" y="-30" width="120" height="80" as="geometry"/>
                </mxCell>
                <mxCell id="35" style="edgeStyle=none;html=1;entryX=0;entryY=0.5;entryDx=0;entryDy=0;fontSize=18;" edge="1" parent="1" source="33" target="3">
                    <mxGeometry relative="1" as="geometry"/>
                </mxCell>
                <mxCell id="33" value="&lt;font style=&quot;font-size: 18px;&quot;&gt;Radio signals&lt;/font&gt;" style="shape=hexagon;perimeter=hexagonPerimeter2;whiteSpace=wrap;html=1;fixedSize=1;fontSize=12;" vertex="1" parent="1">
                    <mxGeometry x="-130" y="280" width="120" height="80" as="geometry"/>
                </mxCell>
                <mxCell id="39" style="edgeStyle=none;html=1;entryX=0;entryY=0.5;entryDx=0;entryDy=0;fontSize=18;" edge="1" parent="1" source="38" target="36">
                    <mxGeometry relative="1" as="geometry"/>
                </mxCell>
                <mxCell id="40" style="edgeStyle=none;html=1;entryX=0;entryY=0.5;entryDx=0;entryDy=0;fontSize=14;" edge="1" parent="1" source="38" target="23">
                    <mxGeometry relative="1" as="geometry"/>
                </mxCell>
                <mxCell id="38" value="Gyroscope / accelerometer" style="shape=hexagon;perimeter=hexagonPerimeter2;whiteSpace=wrap;html=1;fixedSize=1;fontSize=18;" vertex="1" parent="1">
                    <mxGeometry x="-130" y="410" width="120" height="80" as="geometry"/>
                </mxCell>
                <mxCell id="87" value="Motors" style="shape=hexagon;perimeter=hexagonPerimeter2;whiteSpace=wrap;html=1;fixedSize=1;fontSize=18;" vertex="1" parent="1">
                    <mxGeometry x="1150" y="410" width="120" height="80" as="geometry"/>
                </mxCell>
                <mxCell id="88" style="edgeStyle=none;html=1;entryX=0;entryY=0.5;entryDx=0;entryDy=0;fontSize=18;" edge="1" parent="1" source="82" target="87">
                    <mxGeometry relative="1" as="geometry"/>
                </mxCell>
            </root>
        </mxGraphModel>
    </diagram>
</mxfile>